Fanwood.ufo
<glyph name="exclam" format="1">
  <advance width="261"/>
  <unicode hex="0021"/>
  <outline>
    <contour>
      <point x="80" y="23"/>
      <point x="111" y="-8"/>
      <point x="139" y="-8" type="curve" smooth="yes"/>
      <point x="149" y="-8"/>
      <point x="181" y="19"/>
      <point x="181" y="50" type="curve" smooth="yes"/>
      <point x="181" y="75"/>
      <point x="142" y="97"/>
      <point x="124" y="97" type="curve" smooth="yes"/>
      <point x="108" y="97"/>
      <point x="80" y="59"/>
      <point x="80" y="38" type="curve" smooth="yes"/>
    </contour>
    <contour>
      <point x="97" y="594"/>
      <point x="110" y="405"/>
      <point x="116" y="182" type="curve" smooth="yes"/>
      <point x="116" y="175"/>
      <point x="123" y="172"/>
      <point x="129" y="172" type="curve" smooth="yes"/>
      <point x="136" y="172"/>
      <point x="143" y="175"/>
      <point x="143" y="182" type="curve"/>
      <point x="155" y="446"/>
      <point x="169" y="640"/>
      <point x="169" y="652" type="curve" smooth="yes"/>
      <point x="169" y="670"/>
      <point x="161" y="673"/>
      <point x="138" y="673" type="curve" smooth="yes"/>
      <point x="112" y="673"/>
      <point x="97" y="668"/>
      <point x="97" y="648" type="curve" smooth="yes"/>
    </contour>
  </outline>
</glyph>
<glyph name="numbersign" format="1">
  <advance width="442"/>
  <unicode hex="0023"/>
  <outline>
    <contour>
      <point x="30" y="169" type="line" smooth="yes"/>
      <point x="30" y="160"/>
      <point x="30" y="155"/>
      <point x="42" y="155" type="curve" smooth="yes"/>
      <point x="110" y="155" type="line" smooth="yes"/>
      <point x="112" y="155"/>
      <point x="113" y="155"/>
      <point x="113" y="151" type="curve" smooth="yes"/>
      <point x="113" y="145"/>
      <point x="91" y="10"/>
      <point x="91" y="3" type="curve" smooth="yes"/>
      <point x="91" y="-7"/>
      <point x="94" y="-10"/>
      <point x="109" y="-10" type="curve" smooth="yes"/>
      <point x="129" y="-10"/>
      <point x="127" y="-9"/>
      <point x="131" y="-2" type="curve"/>
      <point x="132" y="0"/>
      <point x="132" y="0"/>
      <point x="153" y="150" type="curve"/>
      <point x="153" y="156"/>
      <point x="155" y="155"/>
      <point x="165" y="155" type="curve" smooth="yes"/>
      <point x="251" y="155" type="line" smooth="yes"/>
      <point x="257" y="155"/>
      <point x="258" y="154"/>
      <point x="258" y="151" type="curve" smooth="yes"/>
      <point x="258" y="145"/>
      <point x="236" y="10"/>
      <point x="236" y="3" type="curve" smooth="yes"/>
      <point x="236" y="-8"/>
      <point x="231" y="-10"/>
      <point x="253" y="-10" type="curve" smooth="yes"/>
      <point x="276" y="-10"/>
      <point x="272" y="-10"/>
      <point x="275" y="-2" type="curve"/>
      <point x="276" y="0"/>
      <point x="276" y="0"/>
      <point x="297" y="150" type="curve"/>
      <point x="297" y="156"/>
      <point x="299" y="155"/>
      <point x="312" y="155" type="curve" smooth="yes"/>
      <point x="398" y="155" type="line" smooth="yes"/>
      <point x="410" y="155"/>
      <point x="412" y="156"/>
      <point x="412" y="169" type="curve" smooth="yes"/>
      <point x="412" y="184"/>
      <point x="411" y="186"/>
      <point x="401" y="186" type="curve" smooth="yes"/>
      <point x="309" y="186" type="line" smooth="yes"/>
      <point x="305" y="186"/>
      <point x="302" y="189"/>
      <point x="302" y="192" type="curve" smooth="yes"/>
      <point x="302" y="198"/>
      <point x="315" y="280"/>
      <point x="321" y="318" type="curve"/>
      <point x="321" y="319"/>
      <point x="323" y="323"/>
      <point x="327" y="323" type="curve" smooth="yes"/>
      <point x="399" y="323" type="line" smooth="yes"/>
      <point x="407" y="323"/>
      <point x="412" y="323"/>
      <point x="412" y="337" type="curve" smooth="yes"/>
      <point x="412" y="352"/>
      <point x="410" y="353"/>
      <point x="397" y="353" type="curve" smooth="yes"/>
      <point x="333" y="353" type="line" smooth="yes"/>
      <point x="330" y="353"/>
      <point x="329" y="356"/>
      <point x="329" y="358" type="curve" smooth="yes"/>
      <point x="329" y="366"/>
      <point x="353" y="513"/>
      <point x="353" y="522" type="curve" smooth="yes"/>
      <point x="353" y="532"/>
      <point x="345" y="532"/>
      <point x="329" y="532" type="curve" smooth="yes"/>
      <point x="316" y="532"/>
      <point x="316" y="527"/>
      <point x="315" y="525" type="curve"/>
      <point x="313" y="518"/>
      <point x="310" y="496"/>
      <point x="289" y="360" type="curve" smooth="yes"/>
      <point x="288" y="353"/>
      <point x="287" y="353"/>
      <point x="281" y="353" type="curve" smooth="yes"/>
      <point x="191" y="353" type="line" smooth="yes"/>
      <point x="187" y="353"/>
      <point x="185" y="356"/>
      <point x="185" y="358" type="curve" smooth="yes"/>
      <point x="185" y="365"/>
      <point x="210" y="515"/>
      <point x="210" y="521" type="curve" smooth="yes"/>
      <point x="210" y="532"/>
      <point x="203" y="532"/>
      <point x="191" y="532" type="curve" smooth="yes"/>
      <point x="170" y="532"/>
      <point x="174" y="532"/>
      <point x="170" y="525" type="curve"/>
      <point x="168" y="521"/>
      <point x="170" y="523"/>
      <point x="146" y="359" type="curve"/>
      <point x="146" y="355"/>
      <point x="143" y="353"/>
      <point x="137" y="353" type="curve" smooth="yes"/>
      <point x="37" y="353" type="line" smooth="yes"/>
      <point x="31" y="353"/>
      <point x="30" y="349"/>
      <point x="30" y="342" type="curve" smooth="yes"/>
      <point x="30" y="336" type="line" smooth="yes"/>
      <point x="30" y="325"/>
      <point x="33" y="323"/>
      <point x="37" y="323" type="curve" smooth="yes"/>
      <point x="132" y="323" type="line" smooth="yes"/>
      <point x="134" y="323"/>
      <point x="137" y="322"/>
      <point x="137" y="319" type="curve" smooth="yes"/>
      <point x="137" y="313"/>
      <point x="127" y="236"/>
      <point x="121" y="193" type="curve" smooth="yes"/>
      <point x="120" y="187"/>
      <point x="121" y="186"/>
      <point x="114" y="186" type="curve" smooth="yes"/>
      <point x="41" y="186" type="line" smooth="yes"/>
      <point x="32" y="186"/>
      <point x="30" y="184"/>
      <point x="30" y="173" type="curve" smooth="yes"/>
    </contour>
    <contour>
      <point x="158" y="199"/>
      <point x="172" y="279"/>
      <point x="178" y="319" type="curve"/>
      <point x="178" y="320" type="line"/>
      <point x="179" y="322"/>
      <point x="180" y="325"/>
      <point x="186" y="325" type="curve" smooth="yes"/>
      <point x="276" y="325" type="line" smooth="yes"/>
      <point x="279" y="325"/>
      <point x="283" y="324"/>
      <point x="283" y="321" type="curve" smooth="yes"/>
      <point x="283" y="314"/>
      <point x="275" y="278"/>
      <point x="264" y="194" type="curve"/>
      <point x="264" y="188"/>
      <point x="258" y="188"/>
      <point x="257" y="188" type="curve" smooth="yes"/>
      <point x="167" y="188" type="line" smooth="yes"/>
      <point x="161" y="188"/>
      <point x="158" y="189"/>
      <point x="158" y="193" type="curve" smooth="yes"/>
    </contour>
  </outline>
</glyph>
<glyph name="dollar" format="1">
  <advance width="500"/>
  <unicode hex="0024"/>
  <outline>
    <contour>
      <point x="58" y="53"/>
      <point x="135" y="6"/>
      <point x="226" y="0" type="curve" smooth="yes"/>
      <point x="239" y="-1"/>
      <point x="239" y="-1"/>
      <point x="239" y="-14" type="curve" smooth="yes"/>
      <point x="239" y="-136" type="line" smooth="yes"/>
      <point x="239" y="-147"/>
      <point x="239" y="-148"/>
      <point x="250" y="-148" type="curve" smooth="yes"/>
      <point x="262" y="-148"/>
      <point x="262" y="-148"/>
      <point x="262" y="-136" type="curve" smooth="yes"/>
      <point x="262" y="-14" type="line" smooth="yes"/>
      <point x="262" y="0"/>
      <point x="263" y="-1"/>
      <point x="276" y="0" type="curve" smooth="yes"/>
      <point x="383" y="10"/>
      <point x="442" y="74"/>
      <point x="442" y="169" type="curve" smooth="yes"/>
      <point x="442" y="263"/>
      <point x="352" y="306"/>
      <point x="274" y="342" type="curve" smooth="yes"/>
      <point x="263" y="347"/>
      <point x="262" y="348"/>
      <point x="262" y="365" type="curve" smooth="yes"/>
      <point x="262" y="602" type="line" smooth="yes"/>
      <point x="262" y="609"/>
      <point x="266" y="609"/>
      <point x="273" y="608" type="curve"/>
      <point x="386" y="596"/>
      <point x="353" y="505"/>
      <point x="383" y="505" type="curve" smooth="yes"/>
      <point x="390" y="505"/>
      <point x="418" y="517"/>
      <point x="418" y="532" type="curve" smooth="yes"/>
      <point x="418" y="562"/>
      <point x="365" y="621"/>
      <point x="270" y="628" type="curve"/>
      <point x="262" y="629"/>
      <point x="262" y="628"/>
      <point x="262" y="637" type="curve" smooth="yes"/>
      <point x="262" y="673" type="line" smooth="yes"/>
      <point x="262" y="681"/>
      <point x="261" y="682"/>
      <point x="255" y="682" type="curve" smooth="yes"/>
      <point x="246" y="682" type="line" smooth="yes"/>
      <point x="241" y="682"/>
      <point x="239" y="681"/>
      <point x="239" y="673" type="curve" smooth="yes"/>
      <point x="239" y="637" type="line" smooth="yes"/>
      <point x="239" y="628"/>
      <point x="239" y="628"/>
      <point x="231" y="627" type="curve"/>
      <point x="140" y="619"/>
      <point x="62" y="557"/>
      <point x="62" y="470" type="curve" smooth="yes"/>
      <point x="62" y="372"/>
      <point x="147" y="329"/>
      <point x="225" y="294" type="curve" smooth="yes"/>
      <point x="237" y="289"/>
      <point x="239" y="285"/>
      <point x="239" y="270" type="curve" smooth="yes"/>
      <point x="239" y="30" type="line" smooth="yes"/>
      <point x="239" y="20"/>
      <point x="235" y="20"/>
      <point x="226" y="21" type="curve" smooth="yes"/>
      <point x="182" y="25"/>
      <point x="153" y="44"/>
      <point x="129" y="73" type="curve" smooth="yes"/>
      <point x="112" y="93"/>
      <point x="105" y="110"/>
      <point x="93" y="110" type="curve" smooth="yes"/>
      <point x="82" y="110"/>
      <point x="58" y="102"/>
      <point x="58" y="92" type="curve" smooth="yes"/>
    </contour>
    <contour>
      <point x="117" y="536"/>
      <point x="144" y="570"/>
      <point x="176" y="589" type="curve" smooth="yes"/>
      <point x="195" y="600"/>
      <point x="215" y="608"/>
      <point x="234" y="608" type="curve" smooth="yes"/>
      <point x="237" y="608"/>
      <point x="239" y="607"/>
      <point x="239" y="602" type="curve" smooth="yes"/>
      <point x="239" y="368" type="line" smooth="yes"/>
      <point x="239" y="352"/>
      <point x="236" y="358"/>
      <point x="226" y="362" type="curve" smooth="yes"/>
      <point x="173" y="385"/>
      <point x="117" y="413"/>
      <point x="117" y="480" type="curve" smooth="yes"/>
    </contour>
    <contour>
      <point x="262" y="265" type="line" smooth="yes"/>
      <point x="262" y="274"/>
      <point x="262" y="277"/>
      <point x="265" y="277" type="curve" smooth="yes"/>
      <point x="267" y="277"/>
      <point x="270" y="276"/>
      <point x="274" y="274" type="curve"/>
      <point x="332" y="248"/>
      <point x="385" y="215"/>
      <point x="385" y="147" type="curve" smooth="yes"/>
      <point x="385" y="92"/>
      <point x="340" y="36"/>
      <point x="276" y="23" type="curve"/>
      <point x="272" y="22"/>
      <point x="270" y="22"/>
      <point x="268" y="22" type="curve" smooth="yes"/>
      <point x="262" y="22"/>
      <point x="262" y="26"/>
      <point x="262" y="38" type="curve" smooth="yes"/>
    </contour>
  </outline>
</glyph>
<glyph name="ampersand" format="1">
  <advance width="657"/>
  <unicode hex="0026"/>
  <outline>
    <contour>
      <point x="40" y="60"/>
      <point x="109" y="-10"/>
      <point x="219" y="-10" type="curve" smooth="yes"/>
      <point x="303" y="-10"/>
      <point x="376" y="65"/>
      <point x="407" y="99" type="curve" smooth="yes"/>
      <point x="417" y="110"/>
      <point x="417" y="112"/>
      <point x="427" y="98" type="curve" smooth="yes"/>
      <point x="439" y="81"/>
      <point x="462" y="45"/>
      <point x="475" y="0" type="curve"/>
      <point x="477" y="-8"/>
      <point x="479" y="-10"/>
      <point x="490" y="-10" type="curve" smooth="yes"/>
      <point x="504" y="-10"/>
      <point x="538" y="-1"/>
      <point x="605" y="0" type="curve" smooth="yes"/>
      <point x="620" y="0"/>
      <point x="621" y="0"/>
      <point x="621" y="15" type="curve" smooth="yes"/>
      <point x="621" y="26"/>
      <point x="621" y="27"/>
      <point x="612" y="27" type="curve" smooth="yes"/>
      <point x="556" y="27"/>
      <point x="553" y="35"/>
      <point x="541" y="56" type="curve" smooth="yes"/>
      <point x="524" y="87"/>
      <point x="499" y="127"/>
      <point x="477" y="154" type="curve"/>
      <point x="471" y="162"/>
      <point x="467" y="166"/>
      <point x="467" y="170" type="curve" smooth="yes"/>
      <point x="467" y="177"/>
      <point x="543" y="284"/>
      <point x="564" y="314" type="curve" smooth="yes"/>
      <point x="572" y="326"/>
      <point x="577" y="332"/>
      <point x="584" y="332" type="curve" smooth="yes"/>
      <point x="614" y="332" type="line" smooth="yes"/>
      <point x="630" y="332"/>
      <point x="632" y="332"/>
      <point x="632" y="344" type="curve" smooth="yes"/>
      <point x="632" y="361"/>
      <point x="631" y="362"/>
      <point x="618" y="362" type="curve" smooth="yes"/>
      <point x="608" y="362"/>
      <point x="575" y="359"/>
      <point x="548" y="359" type="curve" smooth="yes"/>
      <point x="518" y="359"/>
      <point x="456" y="362"/>
      <point x="440" y="362" type="curve" smooth="yes"/>
      <point x="427" y="362"/>
      <point x="427" y="362"/>
      <point x="427" y="347" type="curve" smooth="yes"/>
      <point x="427" y="332"/>
      <point x="428" y="332"/>
      <point x="440" y="332" type="curve" smooth="yes"/>
      <point x="500" y="332" type="line" smooth="yes"/>
      <point x="515" y="332"/>
      <point x="519" y="332"/>
      <point x="519" y="327" type="curve" smooth="yes"/>
      <point x="519" y="305"/>
      <point x="479" y="243"/>
      <point x="458" y="205" type="curve" smooth="yes"/>
      <point x="453" y="196"/>
      <point x="451" y="191"/>
      <point x="448" y="191" type="curve" smooth="yes"/>
      <point x="445" y="191"/>
      <point x="442" y="195"/>
      <point x="435" y="203" type="curve" smooth="yes"/>
      <point x="383" y="259"/>
      <point x="340" y="306"/>
      <point x="279" y="357" type="curve" smooth="yes"/>
      <point x="271" y="364"/>
      <point x="266" y="368"/>
      <point x="266" y="371" type="curve" smooth="yes"/>
      <point x="266" y="374"/>
      <point x="271" y="376"/>
      <point x="280" y="382" type="curve" smooth="yes"/>
      <point x="318" y="408"/>
      <point x="405" y="474"/>
      <point x="405" y="542" type="curve" smooth="yes"/>
      <point x="405" y="610"/>
      <point x="332" y="642"/>
      <point x="266" y="642" type="curve" smooth="yes"/>
      <point x="181" y="642"/>
      <point x="106" y="574"/>
      <point x="106" y="486" type="curve" smooth="yes"/>
      <point x="106" y="440"/>
      <point x="140" y="395"/>
      <point x="162" y="370" type="curve" smooth="yes"/>
      <point x="172" y="359"/>
      <point x="178" y="355"/>
      <point x="178" y="352" type="curve" smooth="yes"/>
      <point x="178" y="350"/>
      <point x="174" y="347"/>
      <point x="164" y="340" type="curve" smooth="yes"/>
      <point x="127" y="314"/>
      <point x="40" y="244"/>
      <point x="40" y="155" type="curve" smooth="yes"/>
    </contour>
    <contour>
      <point x="102" y="259"/>
      <point x="145" y="296"/>
      <point x="175" y="318" type="curve" smooth="yes"/>
      <point x="190" y="329"/>
      <point x="197" y="333"/>
      <point x="201" y="333" type="curve" smooth="yes"/>
      <point x="205" y="333"/>
      <point x="210" y="329"/>
      <point x="219" y="321" type="curve"/>
      <point x="276" y="274"/>
      <point x="356" y="195"/>
      <point x="393" y="143" type="curve" smooth="yes"/>
      <point x="398" y="136"/>
      <point x="402" y="133"/>
      <point x="402" y="130" type="curve" smooth="yes"/>
      <point x="402" y="128"/>
      <point x="400" y="125"/>
      <point x="395" y="119" type="curve"/>
      <point x="375" y="99"/>
      <point x="324" y="52"/>
      <point x="251" y="52" type="curve" smooth="yes"/>
      <point x="175" y="52"/>
      <point x="102" y="117"/>
      <point x="102" y="197" type="curve" smooth="yes"/>
    </contour>
    <contour>
      <point x="171" y="566"/>
      <point x="198" y="612"/>
      <point x="257" y="612" type="curve" smooth="yes"/>
      <point x="303" y="612"/>
      <point x="337" y="570"/>
      <point x="337" y="526" type="curve" smooth="yes"/>
      <point x="337" y="467"/>
      <point x="294" y="426"/>
      <point x="266" y="405" type="curve" smooth="yes"/>
      <point x="255" y="397"/>
      <point x="247" y="392"/>
      <point x="244" y="392" type="curve" smooth="yes"/>
      <point x="242" y="392"/>
      <point x="232" y="399"/>
      <point x="222" y="411" type="curve" smooth="yes"/>
      <point x="201" y="436"/>
      <point x="171" y="480"/>
      <point x="171" y="518" type="curve" smooth="yes"/>
    </contour>
  </outline>
</glyph>
<glyph name="parenleft" format="1">
  <advance width="279"/>
  <unicode hex="0028"/>
  <outline>
    <contour>
      <point x="40" y="55"/>
      <point x="208" y="-140"/>
      <point x="219" y="-140" type="curve" smooth="yes"/>
      <point x="230" y="-140"/>
      <point x="235" y="-133"/>
      <point x="235" y="-126" type="curve" smooth="yes"/>
      <point x="235" y="-111"/>
      <point x="97" y="14"/>
      <point x="97" y="297" type="curve" smooth="yes"/>
      <point x="97" y="546"/>
      <point x="239" y="672"/>
      <point x="239" y="676" type="curve" smooth="yes"/>
      <point x="239" y="683"/>
      <point x="230" y="689"/>
      <point x="223" y="689" type="curve" smooth="yes"/>
      <point x="221" y="689"/>
      <point x="40" y="547"/>
      <point x="40" y="285" type="curve" smooth="yes"/>
    </contour>
  </outline>
</glyph>
<glyph name="parenright" format="1">
  <advance width="279"/>
  <unicode hex="0029"/>
  <outline>
    <contour>
      <point x="40" y="-134"/>
      <point x="49" y="-140"/>
      <point x="56" y="-140" type="curve" smooth="yes"/>
      <point x="58" y="-140"/>
      <point x="239" y="2"/>
      <point x="239" y="264" type="curve" smooth="yes"/>
      <point x="239" y="494"/>
      <point x="71" y="689"/>
      <point x="60" y="689" type="curve" smooth="yes"/>
      <point x="49" y="689"/>
      <point x="44" y="682"/>
      <point x="44" y="675" type="curve" smooth="yes"/>
      <point x="44" y="660"/>
      <point x="182" y="535"/>
      <point x="182" y="252" type="curve" smooth="yes"/>
      <point x="182" y="3"/>
      <point x="40" y="-123"/>
      <point x="40" y="-127" type="curve" smooth="yes"/>
    </contour>
  </outline>
</glyph>
<glyph name="asterisk" format="1">
  <advance width="391"/>
  <unicode hex="002A"/>
  <outline>
    <contour>
      <point x="30" y="430"/>
      <point x="43" y="420"/>
      <point x="60" y="420" type="curve" smooth="yes"/>
      <point x="69" y="420"/>
      <point x="78" y="423"/>
      <point x="85" y="427" type="curve" smooth="yes"/>
      <point x="104" y="438"/>
      <point x="139" y="481"/>
      <point x="162" y="502" type="curve"/>
      <point x="169" y="509"/>
      <point x="175" y="513"/>
      <point x="179" y="513" type="curve" smooth="yes"/>
      <point x="182" y="513"/>
      <point x="183" y="510"/>
      <point x="183" y="502" type="curve" smooth="yes"/>
      <point x="183" y="499"/>
      <point x="183" y="496"/>
      <point x="182" y="492" type="curve"/>
      <point x="178" y="461"/>
      <point x="164" y="406"/>
      <point x="164" y="386" type="curve" smooth="yes"/>
      <point x="164" y="370"/>
      <point x="174" y="348"/>
      <point x="197" y="348" type="curve" smooth="yes"/>
      <point x="218" y="348"/>
      <point x="227" y="369"/>
      <point x="227" y="387" type="curve" smooth="yes"/>
      <point x="227" y="411"/>
      <point x="205" y="464"/>
      <point x="198" y="496" type="curve"/>
      <point x="196" y="503"/>
      <point x="195" y="507"/>
      <point x="195" y="510" type="curve" smooth="yes"/>
      <point x="195" y="513"/>
      <point x="198" y="514"/>
      <point x="200" y="514" type="curve" smooth="yes"/>
      <point x="203" y="514"/>
      <point x="208" y="512"/>
      <point x="216" y="508" type="curve"/>
      <point x="245" y="495"/>
      <point x="299" y="465"/>
      <point x="314" y="460" type="curve"/>
      <point x="319" y="458"/>
      <point x="324" y="457"/>
      <point x="329" y="457" type="curve" smooth="yes"/>
      <point x="346" y="457"/>
      <point x="361" y="467"/>
      <point x="361" y="486" type="curve" smooth="yes"/>
      <point x="361" y="502"/>
      <point x="347" y="512"/>
      <point x="332" y="517" type="curve" smooth="yes"/>
      <point x="311" y="524"/>
      <point x="247" y="521"/>
      <point x="216" y="524" type="curve" smooth="yes"/>
      <point x="203" y="525"/>
      <point x="198" y="527"/>
      <point x="198" y="531" type="curve" smooth="yes"/>
      <point x="198" y="534"/>
      <point x="202" y="539"/>
      <point x="208" y="546" type="curve" smooth="yes"/>
      <point x="228" y="568"/>
      <point x="271" y="599"/>
      <point x="286" y="621" type="curve" smooth="yes"/>
      <point x="291" y="628"/>
      <point x="295" y="637"/>
      <point x="295" y="647" type="curve" smooth="yes"/>
      <point x="295" y="660"/>
      <point x="284" y="675"/>
      <point x="268" y="675" type="curve" smooth="yes"/>
      <point x="256" y="675"/>
      <point x="243" y="666"/>
      <point x="236" y="656" type="curve" smooth="yes"/>
      <point x="224" y="639"/>
      <point x="206" y="577"/>
      <point x="195" y="550" type="curve" smooth="yes"/>
      <point x="191" y="541"/>
      <point x="189" y="537"/>
      <point x="187" y="537" type="curve" smooth="yes"/>
      <point x="184" y="537"/>
      <point x="181" y="542"/>
      <point x="176" y="550" type="curve" smooth="yes"/>
      <point x="160" y="575"/>
      <point x="132" y="627"/>
      <point x="116" y="644" type="curve"/>
      <point x="109" y="652"/>
      <point x="97" y="659"/>
      <point x="85" y="659" type="curve" smooth="yes"/>
      <point x="66" y="659"/>
      <point x="57" y="646"/>
      <point x="57" y="632" type="curve" smooth="yes"/>
      <point x="57" y="622"/>
      <point x="63" y="611"/>
      <point x="70" y="603" type="curve" smooth="yes"/>
      <point x="85" y="587"/>
      <point x="133" y="561"/>
      <point x="158" y="543" type="curve" smooth="yes"/>
      <point x="168" y="536"/>
      <point x="173" y="532"/>
      <point x="173" y="528" type="curve" smooth="yes"/>
      <point x="173" y="524"/>
      <point x="167" y="520"/>
      <point x="154" y="515" type="curve"/>
      <point x="126" y="503"/>
      <point x="73" y="487"/>
      <point x="53" y="478" type="curve" smooth="yes"/>
      <point x="42" y="473"/>
      <point x="30" y="461"/>
      <point x="30" y="447" type="curve" smooth="yes"/>
    </contour>
  </outline>
</glyph>
<glyph name="plus" format="1">
  <advance width="527"/>
  <unicode hex="002B"/>
  <outline>
    <contour>
      <point x="31" y="195"/>
      <point x="31" y="188"/>
      <point x="48" y="188" type="curve" smooth="yes"/>
      <point x="217" y="188" type="line" smooth="yes"/>
      <point x="234" y="188"/>
      <point x="241" y="188"/>
      <point x="241" y="170" type="curve" smooth="yes"/>
      <point x="241" y="-4" type="line" smooth="yes"/>
      <point x="241" y="-22"/>
      <point x="246" y="-22"/>
      <point x="266" y="-22" type="curve" smooth="yes"/>
      <point x="277" y="-22"/>
      <point x="286" y="-22"/>
      <point x="286" y="-5" type="curve" smooth="yes"/>
      <point x="286" y="170" type="line" smooth="yes"/>
      <point x="286" y="182"/>
      <point x="286" y="188"/>
      <point x="303" y="188" type="curve" smooth="yes"/>
      <point x="475" y="188" type="line" smooth="yes"/>
      <point x="496" y="188"/>
      <point x="496" y="194"/>
      <point x="496" y="211" type="curve" smooth="yes"/>
      <point x="496" y="225"/>
      <point x="496" y="232"/>
      <point x="480" y="232" type="curve" smooth="yes"/>
      <point x="303" y="232" type="line" smooth="yes"/>
      <point x="287" y="232"/>
      <point x="286" y="245"/>
      <point x="286" y="259" type="curve" smooth="yes"/>
      <point x="286" y="422" type="line" smooth="yes"/>
      <point x="286" y="442"/>
      <point x="276" y="442"/>
      <point x="262" y="442" type="curve" smooth="yes"/>
      <point x="248" y="442"/>
      <point x="241" y="442"/>
      <point x="241" y="427" type="curve" smooth="yes"/>
      <point x="241" y="251" type="line" smooth="yes"/>
      <point x="241" y="240"/>
      <point x="238" y="232"/>
      <point x="219" y="232" type="curve" smooth="yes"/>
      <point x="49" y="232" type="line" smooth="yes"/>
      <point x="31" y="232"/>
      <point x="31" y="225"/>
      <point x="31" y="212" type="curve" smooth="yes"/>
    </contour>
  </outline>
</glyph>
<glyph name="comma" format="1">
  <advance width="203"/>
  <unicode hex="002C"/>
  <outline>
    <contour>
      <point x="40" y="-146"/>
      <point x="45" y="-156"/>
      <point x="51" y="-156" type="curve" smooth="yes"/>
      <point x="60" y="-156"/>
      <point x="163" y="-60"/>
      <point x="163" y="25" type="curve" smooth="yes"/>
      <point x="163" y="50"/>
      <point x="108" y="88"/>
      <point x="92" y="88" type="curve" smooth="yes"/>
      <point x="86" y="88"/>
      <point x="45" y="68"/>
      <point x="45" y="47" type="curve" smooth="yes"/>
      <point x="45" y="32"/>
      <point x="110" y="13"/>
      <point x="110" y="-34" type="curve" smooth="yes"/>
      <point x="110" y="-85"/>
      <point x="40" y="-135"/>
      <point x="40" y="-139" type="curve" smooth="yes"/>
    </contour>
  </outline>
</glyph>
<glyph name="hyphen" format="1">
  <advance width="258"/>
  <unicode hex="002D"/>
  <outline>
    <contour>
      <point x="25" y="199"/>
      <point x="26" y="198"/>
      <point x="29" y="198" type="curve" smooth="yes"/>
      <point x="42" y="198"/>
      <point x="207" y="205"/>
      <point x="220" y="206" type="curve"/>
      <point x="224" y="206"/>
      <point x="228" y="227"/>
      <point x="228" y="239" type="curve" smooth="yes"/>
      <point x="228" y="244"/>
      <point x="228" y="248"/>
      <point x="226" y="248" type="curve" smooth="yes"/>
      <point x="220" y="248"/>
      <point x="52" y="242"/>
      <point x="43" y="241" type="curve" smooth="yes"/>
      <point x="34" y="240"/>
      <point x="25" y="216"/>
      <point x="25" y="201" type="curve" smooth="yes"/>
    </contour>
  </outline>
</glyph>
<glyph name="period" format="1">
  <advance width="221"/>
  <unicode hex="002E"/>
  <outline>
    <contour>
      <point x="60" y="23"/>
      <point x="91" y="-8"/>
      <point x="119" y="-8" type="curve" smooth="yes"/>
      <point x="129" y="-8"/>
      <point x="161" y="19"/>
      <point x="161" y="50" type="curve" smooth="yes"/>
      <point x="161" y="75"/>
      <point x="122" y="97"/>
      <point x="104" y="97" type="curve" smooth="yes"/>
      <point x="88" y="97"/>
      <point x="60" y="59"/>
      <point x="60" y="38" type="curve" smooth="yes"/>
    </contour>
  </outline>
</glyph>
<glyph name="zero" format="1">
  <advance width="500"/>
  <unicode hex="0030"/>
  <outline>
    <contour>
      <point x="58" y="85"/>
      <point x="141" y="-5"/>
      <point x="245" y="-5" type="curve" smooth="yes"/>
      <point x="355" y="-5"/>
      <point x="442" y="75"/>
      <point x="442" y="188" type="curve" smooth="yes"/>
      <point x="442" y="292"/>
      <point x="373" y="380"/>
      <point x="251" y="380" type="curve" smooth="yes"/>
      <point x="144" y="380"/>
      <point x="58" y="300"/>
      <point x="58" y="189" type="curve" smooth="yes"/>
    </contour>
    <contour>
      <point x="91" y="272"/>
      <point x="164" y="340"/>
      <point x="247" y="340" type="curve" smooth="yes"/>
      <point x="329" y="340"/>
      <point x="405" y="283"/>
      <point x="405" y="202" type="curve" smooth="yes"/>
      <point x="405" y="116"/>
      <point x="356" y="43"/>
      <point x="244" y="43" type="curve" smooth="yes"/>
      <point x="161" y="43"/>
      <point x="91" y="100"/>
      <point x="91" y="189" type="curve" smooth="yes"/>
    </contour>
  </outline>
</glyph>
<glyph name="one" format="1">
  <advance width="500"/>
  <unicode hex="0031"/>
  <outline>
    <contour>
      <point x="150" y="1"/>
      <point x="150" y="-2"/>
      <point x="161" y="-2" type="curve" smooth="yes"/>
      <point x="180" y="-2"/>
      <point x="226" y="0"/>
      <point x="251" y="0" type="curve" smooth="yes"/>
      <point x="276" y="0"/>
      <point x="323" y="-2"/>
      <point x="342" y="-2" type="curve" smooth="yes"/>
      <point x="353" y="-2"/>
      <point x="353" y="3"/>
      <point x="353" y="12" type="curve" smooth="yes"/>
      <point x="353" y="21"/>
      <point x="352" y="25"/>
      <point x="342" y="25" type="curve" smooth="yes"/>
      <point x="302" y="25" type="line" smooth="yes"/>
      <point x="292" y="25"/>
      <point x="290" y="28"/>
      <point x="290" y="37" type="curve"/>
      <point x="289" y="64"/>
      <point x="289" y="90"/>
      <point x="289" y="117" type="curve" smooth="yes"/>
      <point x="289" y="196"/>
      <point x="289" y="293"/>
      <point x="292" y="351" type="curve"/>
      <point x="293" y="361"/>
      <point x="292" y="363"/>
      <point x="303" y="363" type="curve" smooth="yes"/>
      <point x="342" y="363" type="line" smooth="yes"/>
      <point x="355" y="363"/>
      <point x="356" y="367"/>
      <point x="356" y="376" type="curve" smooth="yes"/>
      <point x="356" y="387"/>
      <point x="356" y="390"/>
      <point x="345" y="390" type="curve" smooth="yes"/>
      <point x="326" y="390"/>
      <point x="280" y="388"/>
      <point x="255" y="388" type="curve" smooth="yes"/>
      <point x="230" y="388"/>
      <point x="183" y="390"/>
      <point x="164" y="390" type="curve" smooth="yes"/>
      <point x="153" y="390"/>
      <point x="153" y="385"/>
      <point x="153" y="376" type="curve" smooth="yes"/>
      <point x="153" y="367"/>
      <point x="154" y="363"/>
      <point x="164" y="363" type="curve" smooth="yes"/>
      <point x="206" y="363" type="line" smooth="yes"/>
      <point x="216" y="363"/>
      <point x="216" y="360"/>
      <point x="216" y="351" type="curve"/>
      <point x="218" y="307"/>
      <point x="218" y="260"/>
      <point x="218" y="214" type="curve" smooth="yes"/>
      <point x="218" y="125" type="line" smooth="yes"/>
      <point x="218" y="95"/>
      <point x="218" y="66"/>
      <point x="217" y="37" type="curve" smooth="yes"/>
      <point x="217" y="27"/>
      <point x="217" y="25"/>
      <point x="206" y="25" type="curve" smooth="yes"/>
      <point x="164" y="25" type="line" smooth="yes"/>
      <point x="151" y="25"/>
      <point x="150" y="21"/>
      <point x="150" y="12" type="curve" smooth="yes"/>
    </contour>
  </outline>
</glyph>
<glyph name="two" format="1">
  <advance width="500"/>
  <unicode hex="0032"/>
  <outline>
    <contour>
      <point x="60" y="316"/>
      <point x="71" y="303"/>
      <point x="77" y="303" type="curve" smooth="yes"/>
      <point x="82" y="303"/>
      <point x="138" y="364"/>
      <point x="206" y="364" type="curve" smooth="yes"/>
      <point x="255" y="364"/>
      <point x="290" y="330"/>
      <point x="290" y="270" type="curve" smooth="yes"/>
      <point x="290" y="148"/>
      <point x="128" y="77"/>
      <point x="76" y="28" type="curve"/>
      <point x="71" y="24"/>
      <point x="64" y="17"/>
      <point x="64" y="11" type="curve" smooth="yes"/>
      <point x="64" y="5"/>
      <point x="68" y="0"/>
      <point x="79" y="0" type="curve" smooth="yes"/>
      <point x="405" y="0" type="line" smooth="yes"/>
      <point x="412" y="0"/>
      <point x="414" y="1"/>
      <point x="416" y="6" type="curve"/>
      <point x="425" y="38"/>
      <point x="443" y="106"/>
      <point x="443" y="117" type="curve" smooth="yes"/>
      <point x="443" y="120"/>
      <point x="430" y="124"/>
      <point x="425" y="124" type="curve" smooth="yes"/>
      <point x="421" y="124"/>
      <point x="395" y="58"/>
      <point x="388" y="58" type="curve" smooth="yes"/>
      <point x="156" y="58" type="line" smooth="yes"/>
      <point x="151" y="58"/>
      <point x="149" y="58"/>
      <point x="149" y="59" type="curve" smooth="yes"/>
      <point x="149" y="61"/>
      <point x="158" y="66"/>
      <point x="177" y="77" type="curve" smooth="yes"/>
      <point x="237" y="112"/>
      <point x="358" y="195"/>
      <point x="358" y="280" type="curve" smooth="yes"/>
      <point x="358" y="351"/>
      <point x="304" y="406"/>
      <point x="230" y="406" type="curve" smooth="yes"/>
      <point x="155" y="406"/>
      <point x="60" y="338"/>
      <point x="60" y="323" type="curve" smooth="yes"/>
    </contour>
  </outline>
</glyph>
<glyph name="three" format="1">
  <advance width="500"/>
  <unicode hex="0033"/>
  <outline>
    <contour>
      <point x="80" y="-192"/>
      <point x="174" y="-213"/>
      <point x="223" y="-213" type="curve" smooth="yes"/>
      <point x="322" y="-213"/>
      <point x="422" y="-137"/>
      <point x="422" y="-27" type="curve" smooth="yes"/>
      <point x="422" y="85"/>
      <point x="360" y="127"/>
      <point x="275" y="134" type="curve" smooth="yes"/>
      <point x="247" y="136"/>
      <point x="233" y="136"/>
      <point x="233" y="139" type="curve" smooth="yes"/>
      <point x="233" y="141"/>
      <point x="255" y="151"/>
      <point x="281" y="162" type="curve" smooth="yes"/>
      <point x="327" y="182"/>
      <point x="372" y="216"/>
      <point x="372" y="284" type="curve" smooth="yes"/>
      <point x="372" y="358"/>
      <point x="320" y="407"/>
      <point x="238" y="407" type="curve" smooth="yes"/>
      <point x="166" y="407"/>
      <point x="96" y="348"/>
      <point x="96" y="336" type="curve" smooth="yes"/>
      <point x="96" y="328"/>
      <point x="106" y="319"/>
      <point x="114" y="319" type="curve" smooth="yes"/>
      <point x="120" y="319"/>
      <point x="151" y="369"/>
      <point x="226" y="369" type="curve" smooth="yes"/>
      <point x="277" y="369"/>
      <point x="311" y="323"/>
      <point x="311" y="272" type="curve" smooth="yes"/>
      <point x="311" y="198"/>
      <point x="259" y="161"/>
      <point x="160" y="133" type="curve" smooth="yes"/>
      <point x="150" y="130"/>
      <point x="139" y="127"/>
      <point x="139" y="116" type="curve" smooth="yes"/>
      <point x="139" y="113"/>
      <point x="140" y="110"/>
      <point x="141" y="107" type="curve" smooth="yes"/>
      <point x="144" y="98"/>
      <point x="144" y="89"/>
      <point x="155" y="89" type="curve" smooth="yes"/>
      <point x="160" y="89"/>
      <point x="187" y="92"/>
      <point x="208" y="92" type="curve" smooth="yes"/>
      <point x="311" y="92"/>
      <point x="359" y="55"/>
      <point x="359" y="-39" type="curve" smooth="yes"/>
      <point x="359" y="-117"/>
      <point x="296" y="-188"/>
      <point x="233" y="-188" type="curve" smooth="yes"/>
      <point x="192" y="-188"/>
      <point x="179" y="-171"/>
      <point x="159" y="-159" type="curve" smooth="yes"/>
      <point x="144" y="-150"/>
      <point x="135" y="-144"/>
      <point x="118" y="-144" type="curve" smooth="yes"/>
      <point x="98" y="-144"/>
      <point x="80" y="-154"/>
      <point x="80" y="-164" type="curve" smooth="yes"/>
    </contour>
  </outline>
</glyph>
<glyph name="five" format="1">
  <advance width="500"/>
  <unicode hex="0035"/>
  <outline>
    <contour>
      <point x="100" y="149"/>
      <point x="105" y="146"/>
      <point x="115" y="146" type="curve" smooth="yes"/>
      <point x="218" y="146"/>
      <point x="309" y="107"/>
      <point x="309" y="3" type="curve" smooth="yes"/>
      <point x="309" y="-120"/>
      <point x="179" y="-176"/>
      <point x="113" y="-189" type="curve" smooth="yes"/>
      <point x="107" y="-190"/>
      <point x="105" y="-195"/>
      <point x="105" y="-203" type="curve" smooth="yes"/>
      <point x="105" y="-214"/>
      <point x="107" y="-221"/>
      <point x="113" y="-221" type="curve" smooth="yes"/>
      <point x="149" y="-221"/>
      <point x="380" y="-154"/>
      <point x="380" y="19" type="curve" smooth="yes"/>
      <point x="380" y="151"/>
      <point x="280" y="193"/>
      <point x="153" y="205" type="curve" smooth="yes"/>
      <point x="145" y="206"/>
      <point x="142" y="204"/>
      <point x="142" y="212" type="curve" smooth="yes"/>
      <point x="142" y="219"/>
      <point x="155" y="284"/>
      <point x="162" y="319" type="curve" smooth="yes"/>
      <point x="164" y="328"/>
      <point x="173" y="329"/>
      <point x="183" y="329" type="curve"/>
      <point x="263" y="325"/>
      <point x="301" y="319"/>
      <point x="379" y="319" type="curve" smooth="yes"/>
      <point x="394" y="319"/>
      <point x="415" y="321"/>
      <point x="416" y="336" type="curve" smooth="yes"/>
      <point x="417" y="363"/>
      <point x="418" y="376"/>
      <point x="420" y="405" type="curve"/>
      <point x="420" y="410"/>
      <point x="413" y="411"/>
      <point x="407" y="411" type="curve" smooth="yes"/>
      <point x="403" y="411" type="line" smooth="yes"/>
      <point x="400" y="411"/>
      <point x="397" y="399"/>
      <point x="393" y="387" type="curve"/>
      <point x="391" y="382"/>
      <point x="379" y="382"/>
      <point x="369" y="382" type="curve" smooth="yes"/>
      <point x="306" y="382"/>
      <point x="170" y="391"/>
      <point x="162" y="391" type="curve" smooth="yes"/>
      <point x="156" y="391"/>
      <point x="148" y="391"/>
      <point x="147" y="385" type="curve" smooth="yes"/>
      <point x="132" y="305"/>
      <point x="100" y="172"/>
      <point x="100" y="158" type="curve" smooth="yes"/>
    </contour>
  </outline>
</glyph>
<glyph name="seven" format="1">
  <advance width="500"/>
  <unicode hex="0037"/>
  <outline>
    <contour>
      <point x="84" y="269"/>
      <point x="108" y="267"/>
      <point x="109" y="275" type="curve"/>
      <point x="118" y="326" type="line" smooth="yes"/>
      <point x="119" y="333"/>
      <point x="173" y="335"/>
      <point x="203" y="335" type="curve" smooth="yes"/>
      <point x="402" y="335" type="line" smooth="yes"/>
      <point x="416" y="335"/>
      <point x="420" y="334"/>
      <point x="420" y="331" type="curve" smooth="yes"/>
      <point x="420" y="328"/>
      <point x="416" y="323"/>
      <point x="411" y="314" type="curve" smooth="yes"/>
      <point x="346" y="201"/>
      <point x="123" y="-184"/>
      <point x="123" y="-188" type="curve" smooth="yes"/>
      <point x="123" y="-202"/>
      <point x="142" y="-216"/>
      <point x="159" y="-216" type="curve" smooth="yes"/>
      <point x="166" y="-216"/>
      <point x="345" y="146"/>
      <point x="468" y="374" type="curve" smooth="yes"/>
      <point x="470" y="378"/>
      <point x="472" y="381"/>
      <point x="472" y="384" type="curve" smooth="yes"/>
      <point x="472" y="391"/>
      <point x="464" y="393"/>
      <point x="455" y="393" type="curve" smooth="yes"/>
      <point x="289" y="393" type="line" smooth="yes"/>
      <point x="222" y="393"/>
      <point x="125" y="393"/>
      <point x="125" y="397" type="curve" smooth="yes"/>
      <point x="125" y="409"/>
      <point x="123" y="417"/>
      <point x="112" y="417" type="curve" smooth="yes"/>
      <point x="102" y="417"/>
      <point x="98" y="417"/>
      <point x="96" y="399" type="curve" smooth="yes"/>
      <point x="90" y="335"/>
      <point x="84" y="288"/>
      <point x="84" y="278" type="curve" smooth="yes"/>
    </contour>
  </outline>
</glyph>
<glyph name="eight" format="1">
  <advance width="500"/>
  <unicode hex="0038"/>
  <outline>
    <contour>
      <point x="71" y="59"/>
      <point x="153" y="-6"/>
      <point x="248" y="-6" type="curve" smooth="yes"/>
      <point x="358" y="-6"/>
      <point x="430" y="59"/>
      <point x="430" y="154" type="curve" smooth="yes"/>
      <point x="430" y="273"/>
      <point x="338" y="312"/>
      <point x="305" y="332" type="curve" smooth="yes"/>
      <point x="300" y="335"/>
      <point x="296" y="336"/>
      <point x="296" y="338" type="curve" smooth="yes"/>
      <point x="296" y="340"/>
      <point x="300" y="342"/>
      <point x="305" y="346" type="curve"/>
      <point x="339" y="371"/>
      <point x="408" y="412"/>
      <point x="408" y="508" type="curve" smooth="yes"/>
      <point x="408" y="598"/>
      <point x="337" y="658"/>
      <point x="250" y="658" type="curve" smooth="yes"/>
      <point x="156" y="658"/>
      <point x="80" y="586"/>
      <point x="80" y="495" type="curve" smooth="yes"/>
      <point x="80" y="415"/>
      <point x="146" y="361"/>
      <point x="181" y="337" type="curve" smooth="yes"/>
      <point x="194" y="328"/>
      <point x="202" y="325"/>
      <point x="202" y="324" type="curve" smooth="yes"/>
      <point x="202" y="323"/>
      <point x="196" y="323"/>
      <point x="184" y="317" type="curve" smooth="yes"/>
      <point x="148" y="299"/>
      <point x="71" y="260"/>
      <point x="71" y="154" type="curve" smooth="yes"/>
    </contour>
    <contour>
      <point x="124" y="239"/>
      <point x="163" y="278"/>
      <point x="186" y="295" type="curve" smooth="yes"/>
      <point x="199" y="304"/>
      <point x="215" y="316"/>
      <point x="219" y="316" type="curve" smooth="yes"/>
      <point x="222" y="316"/>
      <point x="237" y="309"/>
      <point x="246" y="304" type="curve" smooth="yes"/>
      <point x="305" y="272"/>
      <point x="365" y="238"/>
      <point x="365" y="153" type="curve" smooth="yes"/>
      <point x="365" y="86"/>
      <point x="322" y="22"/>
      <point x="252" y="22" type="curve" smooth="yes"/>
      <point x="175" y="22"/>
      <point x="124" y="80"/>
      <point x="124" y="164" type="curve" smooth="yes"/>
    </contour>
    <contour>
      <point x="138" y="576"/>
      <point x="179" y="636"/>
      <point x="248" y="636" type="curve" smooth="yes"/>
      <point x="314" y="636"/>
      <point x="363" y="588"/>
      <point x="363" y="500" type="curve" smooth="yes"/>
      <point x="363" y="448"/>
      <point x="322" y="384"/>
      <point x="291" y="357" type="curve" smooth="yes"/>
      <point x="283" y="350"/>
      <point x="280" y="347"/>
      <point x="277" y="347" type="curve" smooth="yes"/>
      <point x="274" y="347"/>
      <point x="270" y="350"/>
      <point x="261" y="354" type="curve" smooth="yes"/>
      <point x="248" y="360"/>
      <point x="228" y="373"/>
      <point x="207" y="389" type="curve" smooth="yes"/>
      <point x="166" y="421"/>
      <point x="138" y="458"/>
      <point x="138" y="507" type="curve" smooth="yes"/>
    </contour>
  </outline>
</glyph>
<glyph name="nine" format="1">
  <advance width="500"/>
  <unicode hex="0039"/>
  <outline>
    <contour>
      <point x="60" y="103"/>
      <point x="124" y="32"/>
      <point x="228" y="32" type="curve" smooth="yes"/>
      <point x="281" y="32"/>
      <point x="327" y="49"/>
      <point x="353" y="65" type="curve"/>
      <point x="362" y="71"/>
      <point x="371" y="77"/>
      <point x="373" y="77" type="curve" smooth="yes"/>
      <point x="375" y="77"/>
      <point x="369" y="62"/>
      <point x="367" y="56" type="curve" smooth="yes"/>
      <point x="294" y="-147"/>
      <point x="63" y="-184"/>
      <point x="63" y="-193" type="curve" smooth="yes"/>
      <point x="63" y="-201"/>
      <point x="67" y="-218"/>
      <point x="73" y="-218" type="curve" smooth="yes"/>
      <point x="91" y="-218"/>
      <point x="453" y="-132"/>
      <point x="453" y="162" type="curve" smooth="yes"/>
      <point x="453" y="317"/>
      <point x="364" y="398"/>
      <point x="253" y="398" type="curve" smooth="yes"/>
      <point x="145" y="398"/>
      <point x="60" y="326"/>
      <point x="60" y="204" type="curve" smooth="yes"/>
    </contour>
    <contour>
      <point x="125" y="299"/>
      <point x="167" y="368"/>
      <point x="256" y="368" type="curve" smooth="yes"/>
      <point x="349" y="368"/>
      <point x="387" y="265"/>
      <point x="387" y="172" type="curve" smooth="yes"/>
      <point x="387" y="154"/>
      <point x="386" y="124"/>
      <point x="381" y="115" type="curve" smooth="yes"/>
      <point x="365" y="87"/>
      <point x="323" y="63"/>
      <point x="255" y="63" type="curve" smooth="yes"/>
      <point x="171" y="63"/>
      <point x="125" y="139"/>
      <point x="125" y="214" type="curve" smooth="yes"/>
    </contour>
  </outline>
</glyph>
<glyph name="colon" format="1">
  <advance width="221"/>
  <unicode hex="003A"/>
  <outline>
    <contour>
      <point x="60" y="23"/>
      <point x="91" y="-8"/>
      <point x="119" y="-8" type="curve" smooth="yes"/>
      <point x="129" y="-8"/>
      <point x="161" y="19"/>
      <point x="161" y="50" type="curve" smooth="yes"/>
      <point x="161" y="75"/>
      <point x="122" y="97"/>
      <point x="104" y="97" type="curve" smooth="yes"/>
      <point x="88" y="97"/>
      <point x="60" y="59"/>
      <point x="60" y="38" type="curve" smooth="yes"/>
    </contour>
    <contour>
      <point x="60" y="298"/>
      <point x="91" y="267"/>
      <point x="119" y="267" type="curve" smooth="yes"/>
      <point x="129" y="267"/>
      <point x="161" y="294"/>
      <point x="161" y="325" type="curve" smooth="yes"/>
      <point x="161" y="350"/>
      <point x="122" y="372"/>
      <point x="104" y="372" type="curve" smooth="yes"/>
      <point x="88" y="372"/>
      <point x="60" y="334"/>
      <point x="60" y="313" type="curve" smooth="yes"/>
    </contour>
  </outline>
</glyph>
<glyph name="semicolon" format="1">
  <advance width="223"/>
  <unicode hex="003B"/>
  <outline>
    <contour>
      <point x="50" y="-146"/>
      <point x="55" y="-156"/>
      <point x="61" y="-156" type="curve" smooth="yes"/>
      <point x="70" y="-156"/>
      <point x="173" y="-60"/>
      <point x="173" y="25" type="curve" smooth="yes"/>
      <point x="173" y="50"/>
      <point x="118" y="88"/>
      <point x="102" y="88" type="curve" smooth="yes"/>
      <point x="96" y="88"/>
      <point x="55" y="68"/>
      <point x="55" y="47" type="curve" smooth="yes"/>
      <point x="55" y="32"/>
      <point x="120" y="13"/>
      <point x="120" y="-34" type="curve" smooth="yes"/>
      <point x="120" y="-85"/>
      <point x="50" y="-135"/>
      <point x="50" y="-139" type="curve" smooth="yes"/>
    </contour>
    <contour>
      <point x="61" y="298"/>
      <point x="92" y="267"/>
      <point x="120" y="267" type="curve" smooth="yes"/>
      <point x="130" y="267"/>
      <point x="162" y="294"/>
      <point x="162" y="325" type="curve" smooth="yes"/>
      <point x="162" y="350"/>
      <point x="123" y="372"/>
      <point x="105" y="372" type="curve" smooth="yes"/>
      <point x="89" y="372"/>
      <point x="61" y="334"/>
      <point x="61" y="313" type="curve" smooth="yes"/>
    </contour>
  </outline>
</glyph>
<glyph name="question" format="1">
  <advance width="364"/>
  <unicode hex="003F"/>
  <outline>
    <contour>
      <point x="60" y="605" type="line" smooth="yes"/>
      <point x="60" y="591"/>
      <point x="69" y="592"/>
      <point x="83" y="590" type="curve" smooth="yes"/>
      <point x="239" y="570"/>
      <point x="311" y="496"/>
      <point x="311" y="404" type="curve" smooth="yes"/>
      <point x="311" y="371"/>
      <point x="305" y="316"/>
      <point x="224" y="316" type="curve" smooth="yes"/>
      <point x="167" y="316" type="line" smooth="yes"/>
      <point x="149" y="316"/>
      <point x="140" y="315"/>
      <point x="139" y="298" type="curve" smooth="yes"/>
      <point x="138" y="284"/>
      <point x="137" y="164"/>
      <point x="137" y="151" type="curve" smooth="yes"/>
      <point x="137" y="134"/>
      <point x="139" y="129"/>
      <point x="153" y="129" type="curve" smooth="yes"/>
      <point x="160" y="129"/>
      <point x="165" y="132"/>
      <point x="165" y="138" type="curve"/>
      <point x="167" y="170"/>
      <point x="171" y="196"/>
      <point x="173" y="228" type="curve"/>
      <point x="174" y="238"/>
      <point x="177" y="245"/>
      <point x="199" y="245" type="curve" smooth="yes"/>
      <point x="311" y="246"/>
      <point x="334" y="328"/>
      <point x="334" y="419" type="curve" smooth="yes"/>
      <point x="334" y="603"/>
      <point x="161" y="630"/>
      <point x="88" y="642" type="curve" smooth="yes"/>
      <point x="78" y="644"/>
      <point x="81" y="667"/>
      <point x="69" y="667" type="curve" smooth="yes"/>
      <point x="62" y="667"/>
      <point x="60" y="657"/>
      <point x="60" y="650" type="curve" smooth="yes"/>
    </contour>
    <contour>
      <point x="96" y="23"/>
      <point x="127" y="-8"/>
      <point x="155" y="-8" type="curve" smooth="yes"/>
      <point x="165" y="-8"/>
      <point x="197" y="19"/>
      <point x="197" y="50" type="curve" smooth="yes"/>
      <point x="197" y="75"/>
      <point x="158" y="97"/>
      <point x="140" y="97" type="curve" smooth="yes"/>
      <point x="124" y="97"/>
      <point x="96" y="59"/>
      <point x="96" y="38" type="curve" smooth="yes"/>
    </contour>
  </outline>
</glyph>
<glyph name="A" format="1">
  <advance width="698"/>
  <unicode hex="0041"/>
  <outline>
    <contour>
      <point x="30" y="-2"/>
      <point x="31" y="-3"/>
      <point x="44" y="-3" type="curve" smooth="yes"/>
      <point x="67" y="-3"/>
      <point x="87" y="0"/>
      <point x="117" y="0" type="curve" smooth="yes"/>
      <point x="147" y="0"/>
      <point x="186" y="-3"/>
      <point x="209" y="-3" type="curve" smooth="yes"/>
      <point x="219" y="-3"/>
      <point x="220" y="-1"/>
      <point x="220" y="14" type="curve" smooth="yes"/>
      <point x="220" y="26"/>
      <point x="220" y="27"/>
      <point x="209" y="27" type="curve" smooth="yes"/>
      <point x="131" y="27" type="line" smooth="yes"/>
      <point x="130" y="27"/>
      <point x="130" y="28"/>
      <point x="130" y="30" type="curve" smooth="yes"/>
      <point x="130" y="52"/>
      <point x="185" y="191"/>
      <point x="211" y="257" type="curve" smooth="yes"/>
      <point x="216" y="270"/>
      <point x="215" y="275"/>
      <point x="234" y="275" type="curve" smooth="yes"/>
      <point x="435" y="275" type="line" smooth="yes"/>
      <point x="450" y="275"/>
      <point x="449" y="274"/>
      <point x="455" y="256" type="curve" smooth="yes"/>
      <point x="475" y="200"/>
      <point x="525" y="54"/>
      <point x="525" y="30" type="curve" smooth="yes"/>
      <point x="525" y="28"/>
      <point x="525" y="27"/>
      <point x="524" y="27" type="curve" smooth="yes"/>
      <point x="470" y="27" type="line" smooth="yes"/>
      <point x="454" y="27"/>
      <point x="452" y="27"/>
      <point x="452" y="15" type="curve" smooth="yes"/>
      <point x="452" y="-2"/>
      <point x="453" y="-3"/>
      <point x="466" y="-3" type="curve" smooth="yes"/>
      <point x="489" y="-3"/>
      <point x="547" y="0"/>
      <point x="577" y="0" type="curve" smooth="yes"/>
      <point x="607" y="0"/>
      <point x="652" y="-3"/>
      <point x="667" y="-3" type="curve" smooth="yes"/>
      <point x="677" y="-3"/>
      <point x="678" y="-1"/>
      <point x="678" y="14" type="curve" smooth="yes"/>
      <point x="678" y="26"/>
      <point x="678" y="27"/>
      <point x="667" y="27" type="curve" smooth="yes"/>
      <point x="635" y="27" type="line" smooth="yes"/>
      <point x="623" y="27"/>
      <point x="553" y="229"/>
      <point x="512" y="343" type="curve" smooth="yes"/>
      <point x="392" y="680" type="line"/>
      <point x="391" y="684"/>
      <point x="388" y="687"/>
      <point x="383" y="687" type="curve" smooth="yes"/>
      <point x="377" y="687"/>
      <point x="370" y="674"/>
      <point x="364" y="660" type="curve" smooth="yes"/>
      <point x="353" y="633"/>
      <point x="336" y="624"/>
      <point x="328" y="604" type="curve" smooth="yes"/>
      <point x="222" y="358" type="line" smooth="yes"/>
      <point x="208" y="326"/>
      <point x="87" y="27"/>
      <point x="76" y="27" type="curve" smooth="yes"/>
      <point x="48" y="27" type="line" smooth="yes"/>
      <point x="32" y="27"/>
      <point x="30" y="27"/>
      <point x="30" y="15" type="curve" smooth="yes"/>
    </contour>
    <contour>
      <point x="231" y="308"/>
      <point x="233" y="313"/>
      <point x="236" y="320" type="curve" smooth="yes"/>
      <point x="334" y="560" type="line" smooth="yes"/>
      <point x="339" y="572"/>
      <point x="342" y="579"/>
      <point x="344" y="579" type="curve" smooth="yes"/>
      <point x="346" y="579"/>
      <point x="348" y="573"/>
      <point x="352" y="560" type="curve" smooth="yes"/>
      <point x="435" y="317" type="line" smooth="yes"/>
      <point x="437" y="311"/>
      <point x="439" y="307"/>
      <point x="439" y="304" type="curve" smooth="yes"/>
      <point x="439" y="301"/>
      <point x="436" y="299"/>
      <point x="426" y="299" type="curve" smooth="yes"/>
      <point x="247" y="299" type="line" smooth="yes"/>
      <point x="235" y="299"/>
      <point x="231" y="301"/>
      <point x="231" y="305" type="curve" smooth="yes"/>
    </contour>
  </outline>
</glyph>
<glyph name="D" format="1">
  <advance width="758"/>
  <unicode hex="0044"/>
  <outline>
    <contour>
      <point x="35" y="-2"/>
      <point x="35" y="-4"/>
      <point x="46" y="-4" type="curve" smooth="yes"/>
      <point x="57" y="-4"/>
      <point x="145" y="0"/>
      <point x="173" y="0" type="curve" smooth="yes"/>
      <point x="238" y="0"/>
      <point x="303" y="-4"/>
      <point x="368" y="-4" type="curve" smooth="yes"/>
      <point x="547" y="-2"/>
      <point x="713" y="116"/>
      <point x="713" y="335" type="curve" smooth="yes"/>
      <point x="713" y="549"/>
      <point x="548" y="678"/>
      <point x="332" y="678" type="curve" smooth="yes"/>
      <point x="292" y="678"/>
      <point x="202" y="666"/>
      <point x="128" y="666" type="curve" smooth="yes"/>
      <point x="94" y="666"/>
      <point x="63" y="667"/>
      <point x="59" y="667" type="curve" smooth="yes"/>
      <point x="46" y="667"/>
      <point x="46" y="663"/>
      <point x="46" y="651" type="curve" smooth="yes"/>
      <point x="46" y="639"/>
      <point x="50" y="639"/>
      <point x="59" y="639" type="curve" smooth="yes"/>
      <point x="129" y="641" type="line" smooth="yes"/>
      <point x="130" y="641"/>
      <point x="131" y="610"/>
      <point x="131" y="563" type="curve" smooth="yes"/>
      <point x="131" y="397"/>
      <point x="124" y="25"/>
      <point x="118" y="25" type="curve" smooth="yes"/>
      <point x="52" y="25" type="line" smooth="yes"/>
      <point x="39" y="25"/>
      <point x="35" y="25"/>
      <point x="35" y="10" type="curve" smooth="yes"/>
    </contour>
    <contour>
      <point x="213" y="225"/>
      <point x="213" y="362"/>
      <point x="214" y="500" type="curve" smooth="yes"/>
      <point x="214" y="545"/>
      <point x="217" y="645"/>
      <point x="221" y="646" type="curve" smooth="yes"/>
      <point x="244" y="652"/>
      <point x="285" y="652"/>
      <point x="311" y="652" type="curve" smooth="yes"/>
      <point x="496" y="652"/>
      <point x="612" y="490"/>
      <point x="612" y="348" type="curve" smooth="yes"/>
      <point x="612" y="261"/>
      <point x="608" y="22"/>
      <point x="272" y="22" type="curve" smooth="yes"/>
      <point x="252" y="22"/>
      <point x="221" y="22"/>
      <point x="215" y="26" type="curve"/>
      <point x="213" y="27"/>
      <point x="213" y="54"/>
      <point x="213" y="86" type="curve" smooth="yes"/>
    </contour>
  </outline>
</glyph>
<glyph name="F" format="1">
  <advance width="550"/>
  <unicode hex="0046"/>
  <outline>
    <contour>
      <point x="40" y="636"/>
      <point x="47" y="636"/>
      <point x="59" y="636" type="curve" smooth="yes"/>
      <point x="102" y="636" type="line" smooth="yes"/>
      <point x="109" y="636"/>
      <point x="113" y="564"/>
      <point x="113" y="492" type="curve" smooth="yes"/>
      <point x="113" y="486"/>
      <point x="117" y="309"/>
      <point x="117" y="198" type="curve" smooth="yes"/>
      <point x="117" y="102" type="line" smooth="yes"/>
      <point x="117" y="47"/>
      <point x="116" y="27"/>
      <point x="110" y="27" type="curve" smooth="yes"/>
      <point x="67" y="27" type="line" smooth="yes"/>
      <point x="51" y="27"/>
      <point x="49" y="27"/>
      <point x="49" y="15" type="curve" smooth="yes"/>
      <point x="49" y="-2"/>
      <point x="50" y="-3"/>
      <point x="63" y="-3" type="curve" smooth="yes"/>
      <point x="86" y="-3"/>
      <point x="136" y="0"/>
      <point x="166" y="0" type="curve" smooth="yes"/>
      <point x="196" y="0"/>
      <point x="263" y="-3"/>
      <point x="286" y="-3" type="curve" smooth="yes"/>
      <point x="296" y="-3"/>
      <point x="297" y="-1"/>
      <point x="297" y="14" type="curve" smooth="yes"/>
      <point x="297" y="26"/>
      <point x="297" y="27"/>
      <point x="286" y="27" type="curve" smooth="yes"/>
      <point x="203" y="27" type="line" smooth="yes"/>
      <point x="197" y="27"/>
      <point x="199" y="164"/>
      <point x="196" y="305" type="curve"/>
      <point x="196" y="323"/>
      <point x="197" y="325"/>
      <point x="212" y="325" type="curve" smooth="yes"/>
      <point x="385" y="325" type="line" smooth="yes"/>
      <point x="439" y="325"/>
      <point x="440" y="315"/>
      <point x="440" y="305" type="curve" smooth="yes"/>
      <point x="440" y="249" type="line" smooth="yes"/>
      <point x="440" y="243"/>
      <point x="450" y="240"/>
      <point x="458" y="240" type="curve" smooth="yes"/>
      <point x="465" y="240"/>
      <point x="471" y="243"/>
      <point x="471" y="248" type="curve" smooth="yes"/>
      <point x="471" y="261"/>
      <point x="469" y="305"/>
      <point x="469" y="341" type="curve" smooth="yes"/>
      <point x="469" y="377"/>
      <point x="471" y="410"/>
      <point x="471" y="419" type="curve" smooth="yes"/>
      <point x="471" y="424"/>
      <point x="464" y="427"/>
      <point x="457" y="427" type="curve" smooth="yes"/>
      <point x="449" y="427"/>
      <point x="440" y="424"/>
      <point x="440" y="418" type="curve" smooth="yes"/>
      <point x="440" y="368" type="line" smooth="yes"/>
      <point x="440" y="352"/>
      <point x="403" y="352"/>
      <point x="385" y="352" type="curve" smooth="yes"/>
      <point x="212" y="352" type="line" smooth="yes"/>
      <point x="196" y="352"/>
      <point x="196" y="352"/>
      <point x="196" y="368" type="curve"/>
      <point x="195" y="391"/>
      <point x="194" y="461"/>
      <point x="194" y="524" type="curve" smooth="yes"/>
      <point x="194" y="584"/>
      <point x="195" y="638"/>
      <point x="201" y="638" type="curve" smooth="yes"/>
      <point x="312" y="638"/>
      <point x="483" y="635"/>
      <point x="483" y="631" type="curve" smooth="yes"/>
      <point x="483" y="625"/>
      <point x="480" y="558"/>
      <point x="480" y="553" type="curve" smooth="yes"/>
      <point x="480" y="543"/>
      <point x="483" y="539"/>
      <point x="495" y="539" type="curve" smooth="yes"/>
      <point x="509" y="539"/>
      <point x="511" y="541"/>
      <point x="511" y="549" type="curve" smooth="yes"/>
      <point x="511" y="627"/>
      <point x="515" y="660"/>
      <point x="515" y="679" type="curve" smooth="yes"/>
      <point x="515" y="689"/>
      <point x="512" y="690"/>
      <point x="498" y="690" type="curve" smooth="yes"/>
      <point x="490" y="690"/>
      <point x="486" y="688"/>
      <point x="485" y="678" type="curve"/>
      <point x="483" y="666"/>
      <point x="485" y="665"/>
      <point x="418" y="665" type="curve" smooth="yes"/>
      <point x="375" y="665"/>
      <point x="212" y="662"/>
      <point x="159" y="662" type="curve" smooth="yes"/>
      <point x="124" y="662"/>
      <point x="59" y="665"/>
      <point x="52" y="665" type="curve" smooth="yes"/>
      <point x="44" y="665"/>
      <point x="40" y="663"/>
      <point x="40" y="651" type="curve" smooth="yes"/>
    </contour>
  </outline>
</glyph>
<glyph name="J" format="1">
  <advance width="333"/>
  <unicode hex="004A"/>
  <outline>
    <contour>
      <point x="-30" y="-202"/>
      <point x="0" y="-212"/>
      <point x="23" y="-212" type="curve" smooth="yes"/>
      <point x="69" y="-212"/>
      <point x="103" y="-179"/>
      <point x="132" y="-148" type="curve" smooth="yes"/>
      <point x="210" y="-65"/>
      <point x="218" y="44"/>
      <point x="218" y="130" type="curve" smooth="yes"/>
      <point x="218" y="370" type="line" smooth="yes"/>
      <point x="218" y="502"/>
      <point x="218" y="639"/>
      <point x="225" y="639" type="curve" smooth="yes"/>
      <point x="275" y="639" type="line" smooth="yes"/>
      <point x="291" y="639"/>
      <point x="293" y="639"/>
      <point x="293" y="651" type="curve" smooth="yes"/>
      <point x="293" y="668"/>
      <point x="292" y="669"/>
      <point x="279" y="669" type="curve" smooth="yes"/>
      <point x="256" y="669"/>
      <point x="207" y="666"/>
      <point x="177" y="666" type="curve" smooth="yes"/>
      <point x="147" y="666"/>
      <point x="70" y="669"/>
      <point x="54" y="669" type="curve" smooth="yes"/>
      <point x="41" y="669"/>
      <point x="34" y="669"/>
      <point x="34" y="654" type="curve" smooth="yes"/>
      <point x="34" y="639"/>
      <point x="42" y="639"/>
      <point x="54" y="639" type="curve" smooth="yes"/>
      <point x="119" y="639" type="line" smooth="yes"/>
      <point x="126" y="639"/>
      <point x="129" y="564"/>
      <point x="129" y="492" type="curve" smooth="yes"/>
      <point x="129" y="-5" type="line" smooth="yes"/>
      <point x="129" y="-91"/>
      <point x="127" y="-145"/>
      <point x="89" y="-145" type="curve" smooth="yes"/>
      <point x="68" y="-145"/>
      <point x="53" y="-124"/>
      <point x="37" y="-124" type="curve" smooth="yes"/>
      <point x="30" y="-124"/>
      <point x="-30" y="-153"/>
      <point x="-30" y="-188" type="curve" smooth="yes"/>
    </contour>
  </outline>
</glyph>
<glyph name="K" format="1">
  <advance width="650"/>
  <unicode hex="004B"/>
  <outline>
    <contour>
      <point x="40" y="-2"/>
      <point x="41" y="-3"/>
      <point x="54" y="-3" type="curve" smooth="yes"/>
      <point x="77" y="-3"/>
      <point x="139" y="0"/>
      <point x="169" y="0" type="curve" smooth="yes"/>
      <point x="199" y="0"/>
      <point x="266" y="-3"/>
      <point x="289" y="-3" type="curve" smooth="yes"/>
      <point x="299" y="-3"/>
      <point x="300" y="-1"/>
      <point x="300" y="14" type="curve" smooth="yes"/>
      <point x="300" y="26"/>
      <point x="300" y="27"/>
      <point x="289" y="27" type="curve" smooth="yes"/>
      <point x="216" y="27" type="line" smooth="yes"/>
      <point x="205" y="27"/>
      <point x="205" y="172"/>
      <point x="205" y="298" type="curve" smooth="yes"/>
      <point x="205" y="310"/>
      <point x="207" y="310"/>
      <point x="219" y="310" type="curve" smooth="yes"/>
      <point x="239" y="310" type="line" smooth="yes"/>
      <point x="254" y="310"/>
      <point x="254" y="310"/>
      <point x="261" y="302" type="curve" smooth="yes"/>
      <point x="478" y="45" type="line" smooth="yes"/>
      <point x="484" y="38"/>
      <point x="490" y="34"/>
      <point x="490" y="31" type="curve" smooth="yes"/>
      <point x="490" y="29"/>
      <point x="486" y="27"/>
      <point x="473" y="27" type="curve" smooth="yes"/>
      <point x="443" y="27" type="line" smooth="yes"/>
      <point x="427" y="27"/>
      <point x="425" y="27"/>
      <point x="425" y="15" type="curve" smooth="yes"/>
      <point x="425" y="-2"/>
      <point x="426" y="-3"/>
      <point x="439" y="-3" type="curve" smooth="yes"/>
      <point x="462" y="-3"/>
      <point x="509" y="0"/>
      <point x="539" y="0" type="curve" smooth="yes"/>
      <point x="569" y="0"/>
      <point x="616" y="-3"/>
      <point x="639" y="-3" type="curve" smooth="yes"/>
      <point x="649" y="-3"/>
      <point x="650" y="-1"/>
      <point x="650" y="14" type="curve" smooth="yes"/>
      <point x="650" y="26"/>
      <point x="650" y="27"/>
      <point x="639" y="27" type="curve" smooth="yes"/>
      <point x="625" y="27" type="line" smooth="yes"/>
      <point x="611" y="27"/>
      <point x="603" y="34"/>
      <point x="594" y="44" type="curve" smooth="yes"/>
      <point x="325" y="354" type="line" smooth="yes"/>
      <point x="315" y="366"/>
      <point x="312" y="365"/>
      <point x="322" y="376" type="curve"/>
      <point x="380" y="445"/>
      <point x="537" y="634"/>
      <point x="538" y="634" type="curve" smooth="yes"/>
      <point x="587" y="634" type="line" smooth="yes"/>
      <point x="603" y="634"/>
      <point x="605" y="634"/>
      <point x="605" y="646" type="curve" smooth="yes"/>
      <point x="605" y="663"/>
      <point x="604" y="664"/>
      <point x="591" y="664" type="curve" smooth="yes"/>
      <point x="568" y="664"/>
      <point x="541" y="661"/>
      <point x="511" y="661" type="curve" smooth="yes"/>
      <point x="481" y="661"/>
      <point x="442" y="664"/>
      <point x="426" y="664" type="curve" smooth="yes"/>
      <point x="413" y="664"/>
      <point x="406" y="664"/>
      <point x="406" y="649" type="curve" smooth="yes"/>
      <point x="406" y="634"/>
      <point x="414" y="634"/>
      <point x="426" y="634" type="curve" smooth="yes"/>
      <point x="463" y="634" type="line" smooth="yes"/>
      <point x="474" y="634"/>
      <point x="478" y="632"/>
      <point x="478" y="629" type="curve" smooth="yes"/>
      <point x="478" y="625"/>
      <point x="474" y="620"/>
      <point x="469" y="613" type="curve"/>
      <point x="432" y="566"/>
      <point x="265" y="331"/>
      <point x="240" y="331" type="curve" smooth="yes"/>
      <point x="218" y="331" type="line" smooth="yes"/>
      <point x="206" y="331"/>
      <point x="205" y="337"/>
      <point x="205" y="351" type="curve" smooth="yes"/>
      <point x="205" y="476" type="line" smooth="yes"/>
      <point x="205" y="532"/>
      <point x="209" y="634"/>
      <point x="219" y="634" type="curve" smooth="yes"/>
      <point x="273" y="634" type="line" smooth="yes"/>
      <point x="289" y="634"/>
      <point x="291" y="634"/>
      <point x="291" y="646" type="curve" smooth="yes"/>
      <point x="291" y="663"/>
      <point x="290" y="664"/>
      <point x="277" y="664" type="curve" smooth="yes"/>
      <point x="254" y="664"/>
      <point x="201" y="661"/>
      <point x="171" y="661" type="curve" smooth="yes"/>
      <point x="141" y="661"/>
      <point x="85" y="664"/>
      <point x="69" y="664" type="curve" smooth="yes"/>
      <point x="56" y="664"/>
      <point x="49" y="664"/>
      <point x="49" y="649" type="curve" smooth="yes"/>
      <point x="49" y="634"/>
      <point x="57" y="634"/>
      <point x="69" y="634" type="curve" smooth="yes"/>
      <point x="113" y="634" type="line" smooth="yes"/>
      <point x="120" y="634"/>
      <point x="121" y="559"/>
      <point x="121" y="487" type="curve" smooth="yes"/>
      <point x="121" y="197" type="line" smooth="yes"/>
      <point x="121" y="105"/>
      <point x="120" y="27"/>
      <point x="113" y="27" type="curve" smooth="yes"/>
      <point x="58" y="27" type="line" smooth="yes"/>
      <point x="42" y="27"/>
      <point x="40" y="27"/>
      <point x="40" y="15" type="curve" smooth="yes"/>
    </contour>
  </outline>
</glyph>
<glyph name="M" format="1">
  <advance width="895"/>
  <unicode hex="004D"/>
  <outline>
    <contour>
      <point x="35" y="-2"/>
      <point x="36" y="-3"/>
      <point x="49" y="-3" type="curve" smooth="yes"/>
      <point x="72" y="-3"/>
      <point x="101" y="0"/>
      <point x="131" y="0" type="curve" smooth="yes"/>
      <point x="161" y="0"/>
      <point x="196" y="-3"/>
      <point x="219" y="-3" type="curve" smooth="yes"/>
      <point x="229" y="-3"/>
      <point x="230" y="-1"/>
      <point x="230" y="14" type="curve" smooth="yes"/>
      <point x="230" y="26"/>
      <point x="230" y="27"/>
      <point x="219" y="27" type="curve" smooth="yes"/>
      <point x="147" y="27" type="line" smooth="yes"/>
      <point x="144" y="27"/>
      <point x="142" y="68"/>
      <point x="142" y="129" type="curve" smooth="yes"/>
      <point x="142" y="260"/>
      <point x="145" y="462"/>
      <point x="150" y="594" type="curve" smooth="yes"/>
      <point x="151" y="615"/>
      <point x="151" y="626"/>
      <point x="154" y="626" type="curve" smooth="yes"/>
      <point x="157" y="626"/>
      <point x="161" y="617"/>
      <point x="170" y="596" type="curve" smooth="yes"/>
      <point x="403" y="21" type="line" smooth="yes"/>
      <point x="410" y="4"/>
      <point x="415" y="-7"/>
      <point x="420" y="-7" type="curve" smooth="yes"/>
      <point x="424" y="-7"/>
      <point x="429" y="-1"/>
      <point x="435" y="12" type="curve" smooth="yes"/>
      <point x="459" y="60"/>
      <point x="472" y="63"/>
      <point x="491" y="109" type="curve" smooth="yes"/>
      <point x="563" y="284"/>
      <point x="689" y="621"/>
      <point x="693" y="621" type="curve" smooth="yes"/>
      <point x="696" y="621"/>
      <point x="700" y="321"/>
      <point x="700" y="204" type="curve" smooth="yes"/>
      <point x="700" y="106"/>
      <point x="698" y="27"/>
      <point x="691" y="27" type="curve" smooth="yes"/>
      <point x="645" y="27" type="line" smooth="yes"/>
      <point x="629" y="27"/>
      <point x="627" y="27"/>
      <point x="627" y="15" type="curve" smooth="yes"/>
      <point x="627" y="-2"/>
      <point x="628" y="-3"/>
      <point x="641" y="-3" type="curve" smooth="yes"/>
      <point x="664" y="-3"/>
      <point x="717" y="0"/>
      <point x="747" y="0" type="curve" smooth="yes"/>
      <point x="777" y="0"/>
      <point x="831" y="-3"/>
      <point x="854" y="-3" type="curve" smooth="yes"/>
      <point x="864" y="-3"/>
      <point x="865" y="-1"/>
      <point x="865" y="14" type="curve" smooth="yes"/>
      <point x="865" y="26"/>
      <point x="863" y="27"/>
      <point x="852" y="27" type="curve" smooth="yes"/>
      <point x="798" y="27" type="line" smooth="yes"/>
      <point x="788" y="27"/>
      <point x="782" y="288"/>
      <point x="782" y="469" type="curve" smooth="yes"/>
      <point x="782" y="559" type="line" smooth="yes"/>
      <point x="782" y="608"/>
      <point x="783" y="639"/>
      <point x="789" y="639" type="curve" smooth="yes"/>
      <point x="835" y="639" type="line" smooth="yes"/>
      <point x="851" y="639"/>
      <point x="853" y="639"/>
      <point x="853" y="651" type="curve" smooth="yes"/>
      <point x="853" y="668"/>
      <point x="852" y="669"/>
      <point x="839" y="669" type="curve" smooth="yes"/>
      <point x="816" y="669"/>
      <point x="769" y="666"/>
      <point x="739" y="666" type="curve" smooth="yes"/>
      <point x="693" y="666" type="line" smooth="yes"/>
      <point x="678" y="666"/>
      <point x="676" y="664"/>
      <point x="668" y="643" type="curve" smooth="yes"/>
      <point x="472" y="132" type="line" smooth="yes"/>
      <point x="467" y="118"/>
      <point x="463" y="110"/>
      <point x="461" y="110" type="curve" smooth="yes"/>
      <point x="459" y="110"/>
      <point x="456" y="117"/>
      <point x="450" y="132" type="curve" smooth="yes"/>
      <point x="240" y="656" type="line" smooth="yes"/>
      <point x="235" y="668"/>
      <point x="230" y="669"/>
      <point x="220" y="669" type="curve" smooth="yes"/>
      <point x="214" y="669"/>
      <point x="183" y="666"/>
      <point x="161" y="666" type="curve" smooth="yes"/>
      <point x="140" y="666"/>
      <point x="68" y="669"/>
      <point x="54" y="669" type="curve" smooth="yes"/>
      <point x="44" y="669"/>
      <point x="43" y="667"/>
      <point x="43" y="652" type="curve" smooth="yes"/>
      <point x="43" y="640"/>
      <point x="43" y="639"/>
      <point x="54" y="639" type="curve" smooth="yes"/>
      <point x="100" y="639" type="line" smooth="yes"/>
      <point x="119" y="639"/>
      <point x="122" y="636"/>
      <point x="122" y="626" type="curve" smooth="yes"/>
      <point x="122" y="556"/>
      <point x="107" y="190"/>
      <point x="104" y="129" type="curve" smooth="yes"/>
      <point x="101" y="68"/>
      <point x="102" y="27"/>
      <point x="95" y="27" type="curve" smooth="yes"/>
      <point x="53" y="27" type="line" smooth="yes"/>
      <point x="37" y="27"/>
      <point x="35" y="27"/>
      <point x="35" y="15" type="curve" smooth="yes"/>
    </contour>
  </outline>
</glyph>
<glyph name="P" format="1">
  <advance width="564"/>
  <unicode hex="0050"/>
  <outline>
    <contour>
      <point x="40" y="634"/>
      <point x="48" y="632"/>
      <point x="60" y="632" type="curve" smooth="yes"/>
      <point x="123" y="634" type="line" smooth="yes"/>
      <point x="127" y="634"/>
      <point x="128" y="589"/>
      <point x="128" y="526" type="curve" smooth="yes"/>
      <point x="128" y="474" type="line" smooth="yes"/>
      <point x="128" y="343"/>
      <point x="127" y="27"/>
      <point x="119" y="27" type="curve" smooth="yes"/>
      <point x="68" y="27" type="line" smooth="yes"/>
      <point x="52" y="27"/>
      <point x="50" y="27"/>
      <point x="50" y="15" type="curve" smooth="yes"/>
      <point x="50" y="-2"/>
      <point x="51" y="-3"/>
      <point x="64" y="-3" type="curve" smooth="yes"/>
      <point x="73" y="-3"/>
      <point x="141" y="0"/>
      <point x="171" y="0" type="curve" smooth="yes"/>
      <point x="201" y="0"/>
      <point x="263" y="-3"/>
      <point x="286" y="-3" type="curve" smooth="yes"/>
      <point x="296" y="-3"/>
      <point x="297" y="-1"/>
      <point x="297" y="14" type="curve" smooth="yes"/>
      <point x="297" y="26"/>
      <point x="297" y="27"/>
      <point x="286" y="27" type="curve" smooth="yes"/>
      <point x="213" y="27" type="line" smooth="yes"/>
      <point x="209" y="27"/>
      <point x="208" y="136"/>
      <point x="208" y="216" type="curve" smooth="yes"/>
      <point x="208" y="282" type="line" smooth="yes"/>
      <point x="208" y="288"/>
      <point x="208" y="293"/>
      <point x="218" y="293" type="curve" smooth="yes"/>
      <point x="246" y="293"/>
      <point x="269" y="290"/>
      <point x="305" y="290" type="curve" smooth="yes"/>
      <point x="446" y="290"/>
      <point x="544" y="343"/>
      <point x="544" y="471" type="curve" smooth="yes"/>
      <point x="544" y="606"/>
      <point x="440" y="667"/>
      <point x="304" y="667" type="curve" smooth="yes"/>
      <point x="281" y="667"/>
      <point x="203" y="662"/>
      <point x="173" y="662" type="curve" smooth="yes"/>
      <point x="143" y="662"/>
      <point x="76" y="664"/>
      <point x="60" y="664" type="curve" smooth="yes"/>
      <point x="47" y="664"/>
      <point x="40" y="664"/>
      <point x="40" y="649" type="curve" smooth="yes"/>
    </contour>
    <contour>
      <point x="209" y="586" type="line" smooth="yes"/>
      <point x="209" y="616"/>
      <point x="210" y="640"/>
      <point x="214" y="640" type="curve"/>
      <point x="225" y="641"/>
      <point x="236" y="641"/>
      <point x="247" y="641" type="curve" smooth="yes"/>
      <point x="366" y="641"/>
      <point x="458" y="583"/>
      <point x="458" y="486" type="curve" smooth="yes"/>
      <point x="458" y="357"/>
      <point x="361" y="312"/>
      <point x="247" y="312" type="curve" smooth="yes"/>
      <point x="231" y="312"/>
      <point x="209" y="313"/>
      <point x="209" y="325" type="curve" smooth="yes"/>
    </contour>
  </outline>
</glyph>
<glyph name="Q" format="1">
  <advance width="783"/>
  <unicode hex="0051"/>
  <outline>
    <contour>
      <point x="45" y="118"/>
      <point x="204" y="25"/>
      <point x="382" y="3" type="curve" smooth="yes"/>
      <point x="389" y="2"/>
      <point x="396" y="2"/>
      <point x="396" y="1" type="curve" smooth="yes"/>
      <point x="396" y="-3"/>
      <point x="289" y="-51"/>
      <point x="255" y="-60" type="curve" smooth="yes"/>
      <point x="234" y="-65"/>
      <point x="215" y="-66"/>
      <point x="198" y="-66" type="curve" smooth="yes"/>
      <point x="191" y="-66"/>
      <point x="183" y="-65"/>
      <point x="176" y="-65" type="curve" smooth="yes"/>
      <point x="159" y="-65"/>
      <point x="151" y="-68"/>
      <point x="151" y="-80" type="curve" smooth="yes"/>
      <point x="151" y="-91"/>
      <point x="174" y="-122"/>
      <point x="187" y="-122" type="curve" smooth="yes"/>
      <point x="195" y="-122"/>
      <point x="229" y="-104"/>
      <point x="254" y="-104" type="curve" smooth="yes"/>
      <point x="308" y="-104"/>
      <point x="466" y="-187"/>
      <point x="603" y="-187" type="curve" smooth="yes"/>
      <point x="677" y="-187"/>
      <point x="759" y="-124"/>
      <point x="759" y="-111" type="curve" smooth="yes"/>
      <point x="759" y="-103"/>
      <point x="748" y="-94"/>
      <point x="745" y="-94" type="curve" smooth="yes"/>
      <point x="739" y="-94"/>
      <point x="707" y="-124"/>
      <point x="639" y="-124" type="curve" smooth="yes"/>
      <point x="595" y="-124"/>
      <point x="527" y="-98"/>
      <point x="459" y="-83" type="curve" smooth="yes"/>
      <point x="401" y="-70"/>
      <point x="305" y="-71"/>
      <point x="305" y="-67" type="curve" smooth="yes"/>
      <point x="305" y="-65"/>
      <point x="462" y="5"/>
      <point x="494" y="14" type="curve" smooth="yes"/>
      <point x="637" y="55"/>
      <point x="738" y="179"/>
      <point x="738" y="340" type="curve" smooth="yes"/>
      <point x="738" y="534"/>
      <point x="590" y="675"/>
      <point x="392" y="675" type="curve" smooth="yes"/>
      <point x="208" y="675"/>
      <point x="45" y="556"/>
      <point x="45" y="340" type="curve" smooth="yes"/>
    </contour>
    <contour>
      <point x="132" y="509"/>
      <point x="239" y="647"/>
      <point x="382" y="647" type="curve" smooth="yes"/>
      <point x="545" y="647"/>
      <point x="640" y="485"/>
      <point x="640" y="332" type="curve" smooth="yes"/>
      <point x="640" y="108"/>
      <point x="465" y="18"/>
      <point x="434" y="18" type="curve" smooth="yes"/>
      <point x="411" y="18"/>
      <point x="274" y="54"/>
      <point x="217" y="119" type="curve" smooth="yes"/>
      <point x="166" y="177"/>
      <point x="132" y="264"/>
      <point x="132" y="356" type="curve" smooth="yes"/>
    </contour>
  </outline>
</glyph>
<glyph name="R" format="1">
  <advance width="641"/>
  <unicode hex="0052"/>
  <outline>
    <contour>
      <point x="40" y="634"/>
      <point x="48" y="632"/>
      <point x="60" y="632" type="curve"/>
      <point x="115" y="634" type="line"/>
      <point x="126" y="634"/>
      <point x="127" y="436"/>
      <point x="127" y="289" type="curve" smooth="yes"/>
      <point x="127" y="156" type="line" smooth="yes"/>
      <point x="127" y="85"/>
      <point x="126" y="27"/>
      <point x="122" y="27" type="curve" smooth="yes"/>
      <point x="77" y="27" type="line" smooth="yes"/>
      <point x="61" y="27"/>
      <point x="59" y="27"/>
      <point x="59" y="15" type="curve" smooth="yes"/>
      <point x="59" y="-2"/>
      <point x="60" y="-3"/>
      <point x="73" y="-3" type="curve" smooth="yes"/>
      <point x="82" y="-3"/>
      <point x="141" y="0"/>
      <point x="171" y="0" type="curve" smooth="yes"/>
      <point x="201" y="0"/>
      <point x="256" y="-3"/>
      <point x="279" y="-3" type="curve" smooth="yes"/>
      <point x="289" y="-3"/>
      <point x="290" y="-1"/>
      <point x="290" y="14" type="curve" smooth="yes"/>
      <point x="290" y="26"/>
      <point x="290" y="27"/>
      <point x="279" y="27" type="curve" smooth="yes"/>
      <point x="218" y="27" type="line" smooth="yes"/>
      <point x="212" y="27"/>
      <point x="207" y="240"/>
      <point x="207" y="302" type="curve" smooth="yes"/>
      <point x="207" y="308"/>
      <point x="208" y="313"/>
      <point x="218" y="313" type="curve" smooth="yes"/>
      <point x="246" y="313"/>
      <point x="289" y="312"/>
      <point x="310" y="312" type="curve" smooth="yes"/>
      <point x="473" y="309"/>
      <point x="483" y="186"/>
      <point x="483" y="66" type="curve" smooth="yes"/>
      <point x="483" y="8" type="line" smooth="yes"/>
      <point x="483" y="0"/>
      <point x="484" y="0"/>
      <point x="491" y="0" type="curve"/>
      <point x="491" y="0"/>
      <point x="590" y="-3"/>
      <point x="624" y="-3" type="curve" smooth="yes"/>
      <point x="636" y="-3"/>
      <point x="641" y="0"/>
      <point x="641" y="5" type="curve" smooth="yes"/>
      <point x="641" y="26"/>
      <point x="638" y="27"/>
      <point x="629" y="27" type="curve" smooth="yes"/>
      <point x="583" y="27" type="line" smooth="yes"/>
      <point x="572" y="27"/>
      <point x="571" y="35"/>
      <point x="569" y="92" type="curve" smooth="yes"/>
      <point x="563" y="256"/>
      <point x="465" y="303"/>
      <point x="402" y="322" type="curve" smooth="yes"/>
      <point x="388" y="326"/>
      <point x="382" y="326"/>
      <point x="382" y="327" type="curve" smooth="yes"/>
      <point x="382" y="328"/>
      <point x="389" y="329"/>
      <point x="402" y="335" type="curve" smooth="yes"/>
      <point x="444" y="354"/>
      <point x="536" y="406"/>
      <point x="536" y="498" type="curve" smooth="yes"/>
      <point x="536" y="638"/>
      <point x="418" y="668"/>
      <point x="318" y="668" type="curve" smooth="yes"/>
      <point x="295" y="668"/>
      <point x="203" y="662"/>
      <point x="173" y="662" type="curve" smooth="yes"/>
      <point x="143" y="662"/>
      <point x="76" y="664"/>
      <point x="60" y="664" type="curve" smooth="yes"/>
      <point x="47" y="664"/>
      <point x="40" y="664"/>
      <point x="40" y="649" type="curve" smooth="yes"/>
    </contour>
    <contour>
      <point x="207" y="586" type="line" smooth="yes"/>
      <point x="207" y="616"/>
      <point x="210" y="640"/>
      <point x="214" y="640" type="curve"/>
      <point x="231" y="641"/>
      <point x="249" y="642"/>
      <point x="266" y="642" type="curve" smooth="yes"/>
      <point x="360" y="642"/>
      <point x="451" y="583"/>
      <point x="451" y="484" type="curve" smooth="yes"/>
      <point x="451" y="400"/>
      <point x="411" y="356"/>
      <point x="363" y="334" type="curve" smooth="yes"/>
      <point x="359" y="332"/>
      <point x="355" y="333"/>
      <point x="351" y="333" type="curve" smooth="yes"/>
      <point x="317" y="334"/>
      <point x="266" y="334"/>
      <point x="223" y="335" type="curve" smooth="yes"/>
      <point x="209" y="335"/>
      <point x="207" y="337"/>
      <point x="207" y="345" type="curve" smooth="yes"/>
    </contour>
  </outline>
</glyph>
<glyph name="U" format="1">
  <advance width="755"/>
  <unicode hex="0055"/>
  <outline>
    <contour>
      <point x="40" y="634"/>
      <point x="46" y="634"/>
      <point x="58" y="634" type="curve" smooth="yes"/>
      <point x="95" y="634" type="line" smooth="yes"/>
      <point x="100" y="634"/>
      <point x="100" y="611"/>
      <point x="100" y="575" type="curve" smooth="yes"/>
      <point x="100" y="496"/>
      <point x="99" y="260"/>
      <point x="99" y="227" type="curve" smooth="yes"/>
      <point x="99" y="105"/>
      <point x="116" y="-11"/>
      <point x="318" y="-11" type="curve" smooth="yes"/>
      <point x="394" y="-11"/>
      <point x="477" y="19"/>
      <point x="524" y="46" type="curve" smooth="yes"/>
      <point x="542" y="56"/>
      <point x="562" y="66"/>
      <point x="570" y="66" type="curve" smooth="yes"/>
      <point x="593" y="66"/>
      <point x="612" y="-7"/>
      <point x="632" y="-7" type="curve" smooth="yes"/>
      <point x="652" y="-7"/>
      <point x="653" y="17"/>
      <point x="653" y="25" type="curve" smooth="yes"/>
      <point x="653" y="46"/>
      <point x="657" y="180"/>
      <point x="660" y="317" type="curve" smooth="yes"/>
      <point x="664" y="472"/>
      <point x="662" y="634"/>
      <point x="673" y="634" type="curve" smooth="yes"/>
      <point x="697" y="634" type="line" smooth="yes"/>
      <point x="713" y="634"/>
      <point x="715" y="634"/>
      <point x="715" y="646" type="curve" smooth="yes"/>
      <point x="715" y="663"/>
      <point x="714" y="664"/>
      <point x="701" y="664" type="curve" smooth="yes"/>
      <point x="691" y="664"/>
      <point x="653" y="661"/>
      <point x="623" y="661" type="curve" smooth="yes"/>
      <point x="593" y="661"/>
      <point x="539" y="664"/>
      <point x="523" y="664" type="curve" smooth="yes"/>
      <point x="510" y="664"/>
      <point x="503" y="664"/>
      <point x="503" y="649" type="curve" smooth="yes"/>
      <point x="503" y="634"/>
      <point x="511" y="634"/>
      <point x="523" y="634" type="curve" smooth="yes"/>
      <point x="572" y="634" type="line" smooth="yes"/>
      <point x="578" y="634"/>
      <point x="579" y="598"/>
      <point x="579" y="552" type="curve" smooth="yes"/>
      <point x="579" y="247" type="line" smooth="yes"/>
      <point x="579" y="102"/>
      <point x="579" y="105"/>
      <point x="554" y="88" type="curve" smooth="yes"/>
      <point x="526" y="69"/>
      <point x="467" y="34"/>
      <point x="382" y="34" type="curve" smooth="yes"/>
      <point x="240" y="34"/>
      <point x="181" y="101"/>
      <point x="181" y="228" type="curve" smooth="yes"/>
      <point x="181" y="272"/>
      <point x="186" y="634"/>
      <point x="195" y="634" type="curve" smooth="yes"/>
      <point x="260" y="634" type="line" smooth="yes"/>
      <point x="276" y="634"/>
      <point x="278" y="634"/>
      <point x="278" y="646" type="curve" smooth="yes"/>
      <point x="278" y="663"/>
      <point x="277" y="664"/>
      <point x="264" y="664" type="curve" smooth="yes"/>
      <point x="241" y="664"/>
      <point x="180" y="661"/>
      <point x="150" y="661" type="curve" smooth="yes"/>
      <point x="120" y="661"/>
      <point x="74" y="664"/>
      <point x="58" y="664" type="curve" smooth="yes"/>
      <point x="45" y="664"/>
      <point x="40" y="664"/>
      <point x="40" y="649" type="curve" smooth="yes"/>
    </contour>
  </outline>
</glyph>
<glyph name="V" format="1">
  <advance width="685"/>
  <unicode hex="0056"/>
  <outline>
    <contour>
      <point x="10" y="634"/>
      <point x="16" y="634"/>
      <point x="28" y="634" type="curve" smooth="yes"/>
      <point x="59" y="634" type="line" smooth="yes"/>
      <point x="66" y="634"/>
      <point x="265" y="116"/>
      <point x="268" y="110" type="curve"/>
      <point x="304" y="29"/>
      <point x="311" y="-25"/>
      <point x="322" y="-25" type="curve" smooth="yes"/>
      <point x="338" y="-25"/>
      <point x="342" y="-4"/>
      <point x="363" y="26" type="curve" smooth="yes"/>
      <point x="374" y="42"/>
      <point x="379" y="43"/>
      <point x="390" y="68" type="curve" smooth="yes"/>
      <point x="621" y="611" type="line" smooth="yes"/>
      <point x="629" y="629"/>
      <point x="630" y="634"/>
      <point x="657" y="634" type="curve" smooth="yes"/>
      <point x="673" y="634"/>
      <point x="675" y="634"/>
      <point x="675" y="646" type="curve" smooth="yes"/>
      <point x="675" y="663"/>
      <point x="674" y="664"/>
      <point x="661" y="664" type="curve" smooth="yes"/>
      <point x="651" y="664"/>
      <point x="613" y="661"/>
      <point x="583" y="661" type="curve" smooth="yes"/>
      <point x="553" y="661"/>
      <point x="494" y="664"/>
      <point x="478" y="664" type="curve" smooth="yes"/>
      <point x="465" y="664"/>
      <point x="463" y="664"/>
      <point x="463" y="649" type="curve" smooth="yes"/>
      <point x="463" y="634"/>
      <point x="469" y="634"/>
      <point x="481" y="634" type="curve" smooth="yes"/>
      <point x="552" y="634" type="line" smooth="yes"/>
      <point x="560" y="634"/>
      <point x="561" y="628"/>
      <point x="561" y="618" type="curve" smooth="yes"/>
      <point x="561" y="567"/>
      <point x="441" y="276"/>
      <point x="389" y="140" type="curve" smooth="yes"/>
      <point x="378" y="111"/>
      <point x="369" y="94"/>
      <point x="366" y="94" type="curve" smooth="yes"/>
      <point x="364" y="94"/>
      <point x="356" y="112"/>
      <point x="344" y="142" type="curve" smooth="yes"/>
      <point x="303" y="249"/>
      <point x="222" y="470"/>
      <point x="185" y="578" type="curve" smooth="yes"/>
      <point x="179" y="594"/>
      <point x="173" y="618"/>
      <point x="173" y="629" type="curve" smooth="yes"/>
      <point x="173" y="632"/>
      <point x="174" y="634"/>
      <point x="175" y="634" type="curve" smooth="yes"/>
      <point x="246" y="634" type="line" smooth="yes"/>
      <point x="262" y="634"/>
      <point x="264" y="634"/>
      <point x="264" y="646" type="curve" smooth="yes"/>
      <point x="264" y="663"/>
      <point x="263" y="664"/>
      <point x="250" y="664" type="curve" smooth="yes"/>
      <point x="227" y="664"/>
      <point x="150" y="661"/>
      <point x="120" y="661" type="curve" smooth="yes"/>
      <point x="90" y="661"/>
      <point x="44" y="664"/>
      <point x="28" y="664" type="curve" smooth="yes"/>
      <point x="15" y="664"/>
      <point x="10" y="664"/>
      <point x="10" y="649" type="curve" smooth="yes"/>
    </contour>
  </outline>
</glyph>
<glyph name="X" format="1">
  <advance width="638"/>
  <unicode hex="0058"/>
  <outline>
    <contour>
      <point x="10" y="-3"/>
      <point x="13" y="-3"/>
      <point x="26" y="-3" type="curve" smooth="yes"/>
      <point x="42" y="-3"/>
      <point x="79" y="0"/>
      <point x="109" y="0" type="curve" smooth="yes"/>
      <point x="139" y="0"/>
      <point x="169" y="-3"/>
      <point x="192" y="-3" type="curve" smooth="yes"/>
      <point x="205" y="-3"/>
      <point x="206" y="-2"/>
      <point x="206" y="15" type="curve" smooth="yes"/>
      <point x="206" y="27"/>
      <point x="204" y="27"/>
      <point x="188" y="27" type="curve" smooth="yes"/>
      <point x="134" y="27" type="line" smooth="yes"/>
      <point x="124" y="27"/>
      <point x="121" y="28"/>
      <point x="121" y="31" type="curve" smooth="yes"/>
      <point x="121" y="34"/>
      <point x="126" y="40"/>
      <point x="133" y="52" type="curve" smooth="yes"/>
      <point x="171" y="114"/>
      <point x="267" y="253"/>
      <point x="296" y="294" type="curve" smooth="yes"/>
      <point x="304" y="306"/>
      <point x="303" y="302"/>
      <point x="309" y="292" type="curve" smooth="yes"/>
      <point x="347" y="228"/>
      <point x="428" y="94"/>
      <point x="454" y="42" type="curve" smooth="yes"/>
      <point x="461" y="28"/>
      <point x="461" y="27"/>
      <point x="446" y="27" type="curve" smooth="yes"/>
      <point x="396" y="27" type="line" smooth="yes"/>
      <point x="380" y="27"/>
      <point x="378" y="27"/>
      <point x="378" y="15" type="curve" smooth="yes"/>
      <point x="378" y="-2"/>
      <point x="379" y="-3"/>
      <point x="392" y="-3" type="curve" smooth="yes"/>
      <point x="415" y="-3"/>
      <point x="478" y="0"/>
      <point x="508" y="0" type="curve" smooth="yes"/>
      <point x="538" y="0"/>
      <point x="594" y="-3"/>
      <point x="610" y="-3" type="curve" smooth="yes"/>
      <point x="623" y="-3"/>
      <point x="628" y="-3"/>
      <point x="628" y="12" type="curve" smooth="yes"/>
      <point x="628" y="27"/>
      <point x="622" y="27"/>
      <point x="610" y="27" type="curve" smooth="yes"/>
      <point x="575" y="27" type="line" smooth="yes"/>
      <point x="568" y="27"/>
      <point x="393" y="302"/>
      <point x="361" y="353" type="curve" smooth="yes"/>
      <point x="356" y="361"/>
      <point x="356" y="359"/>
      <point x="361" y="367" type="curve" smooth="yes"/>
      <point x="381" y="397"/>
      <point x="454" y="489"/>
      <point x="513" y="574" type="curve" smooth="yes"/>
      <point x="538" y="610"/>
      <point x="558" y="634"/>
      <point x="559" y="634" type="curve" smooth="yes"/>
      <point x="585" y="634" type="line" smooth="yes"/>
      <point x="597" y="634"/>
      <point x="601" y="634"/>
      <point x="601" y="649" type="curve" smooth="yes"/>
      <point x="601" y="664"/>
      <point x="598" y="664"/>
      <point x="585" y="664" type="curve" smooth="yes"/>
      <point x="569" y="664"/>
      <point x="539" y="661"/>
      <point x="509" y="661" type="curve" smooth="yes"/>
      <point x="479" y="661"/>
      <point x="454" y="664"/>
      <point x="431" y="664" type="curve" smooth="yes"/>
      <point x="418" y="664"/>
      <point x="417" y="663"/>
      <point x="417" y="646" type="curve" smooth="yes"/>
      <point x="417" y="634"/>
      <point x="419" y="634"/>
      <point x="435" y="634" type="curve" smooth="yes"/>
      <point x="491" y="634" type="line" smooth="yes"/>
      <point x="493" y="634"/>
      <point x="494" y="633"/>
      <point x="494" y="630" type="curve" smooth="yes"/>
      <point x="494" y="613"/>
      <point x="464" y="564"/>
      <point x="431" y="515" type="curve" smooth="yes"/>
      <point x="420" y="498"/>
      <point x="345" y="382"/>
      <point x="342" y="382" type="curve" smooth="yes"/>
      <point x="341" y="382"/>
      <point x="339" y="387"/>
      <point x="335" y="392" type="curve"/>
      <point x="303" y="447"/>
      <point x="235" y="568"/>
      <point x="214" y="619" type="curve" smooth="yes"/>
      <point x="208" y="633"/>
      <point x="207" y="634"/>
      <point x="222" y="634" type="curve" smooth="yes"/>
      <point x="263" y="634" type="line" smooth="yes"/>
      <point x="279" y="634"/>
      <point x="281" y="634"/>
      <point x="281" y="646" type="curve" smooth="yes"/>
      <point x="281" y="663"/>
      <point x="280" y="664"/>
      <point x="267" y="664" type="curve" smooth="yes"/>
      <point x="244" y="664"/>
      <point x="200" y="661"/>
      <point x="170" y="661" type="curve" smooth="yes"/>
      <point x="140" y="661"/>
      <point x="69" y="664"/>
      <point x="53" y="664" type="curve" smooth="yes"/>
      <point x="40" y="664"/>
      <point x="35" y="664"/>
      <point x="35" y="649" type="curve" smooth="yes"/>
      <point x="35" y="634"/>
      <point x="41" y="634"/>
      <point x="53" y="634" type="curve" smooth="yes"/>
      <point x="92" y="634" type="line" smooth="yes"/>
      <point x="100" y="634"/>
      <point x="281" y="337"/>
      <point x="281" y="336" type="curve"/>
      <point x="287" y="327"/>
      <point x="287" y="324"/>
      <point x="281" y="316" type="curve" smooth="yes"/>
      <point x="233" y="254"/>
      <point x="181" y="192"/>
      <point x="137" y="127" type="curve" smooth="yes"/>
      <point x="100" y="73"/>
      <point x="71" y="27"/>
      <point x="63" y="27" type="curve" smooth="yes"/>
      <point x="26" y="27" type="line" smooth="yes"/>
      <point x="14" y="27"/>
      <point x="10" y="27"/>
      <point x="10" y="12" type="curve" smooth="yes"/>
    </contour>
  </outline>
</glyph>
<glyph name="bracketright" format="1">
  <advance width="296"/>
  <unicode hex="005D"/>
  <outline>
    <contour>
      <point x="40" y="-132" type="line" smooth="yes"/>
      <point x="40" y="-140"/>
      <point x="41" y="-141"/>
      <point x="53" y="-141" type="curve" smooth="yes"/>
      <point x="204" y="-141" type="line" smooth="yes"/>
      <point x="215" y="-141"/>
      <point x="216" y="-137"/>
      <point x="216" y="-126" type="curve" smooth="yes"/>
      <point x="216" y="675" type="line" smooth="yes"/>
      <point x="216" y="689"/>
      <point x="215" y="690"/>
      <point x="203" y="690" type="curve" smooth="yes"/>
      <point x="53" y="690" type="line" smooth="yes"/>
      <point x="41" y="690"/>
      <point x="40" y="687"/>
      <point x="40" y="679" type="curve" smooth="yes"/>
      <point x="40" y="667" type="line" smooth="yes"/>
      <point x="40" y="654"/>
      <point x="42" y="654"/>
      <point x="53" y="654" type="curve" smooth="yes"/>
      <point x="158" y="654" type="line" smooth="yes"/>
      <point x="171" y="654"/>
      <point x="171" y="652"/>
      <point x="171" y="642" type="curve" smooth="yes"/>
      <point x="171" y="-93" type="line" smooth="yes"/>
      <point x="171" y="-103"/>
      <point x="171" y="-105"/>
      <point x="158" y="-105" type="curve" smooth="yes"/>
      <point x="53" y="-105" type="line" smooth="yes"/>
      <point x="42" y="-105"/>
      <point x="40" y="-105"/>
      <point x="40" y="-118" type="curve" smooth="yes"/>
    </contour>
  </outline>
</glyph>
<glyph name="b" format="1">
  <advance width="485"/>
  <unicode hex="0062"/>
  <outline>
    <contour>
      <point x="5" y="634"/>
      <point x="6" y="633"/>
      <point x="11" y="633" type="curve" smooth="yes"/>
      <point x="15" y="633"/>
      <point x="68" y="639"/>
      <point x="72" y="639" type="curve" smooth="yes"/>
      <point x="85" y="639"/>
      <point x="89" y="231"/>
      <point x="89" y="197" type="curve" smooth="yes"/>
      <point x="89" y="130"/>
      <point x="84" y="7"/>
      <point x="84" y="1" type="curve" smooth="yes"/>
      <point x="84" y="-8"/>
      <point x="88" y="-12"/>
      <point x="96" y="-12" type="curve" smooth="yes"/>
      <point x="107" y="-12"/>
      <point x="125" y="6"/>
      <point x="145" y="6" type="curve" smooth="yes"/>
      <point x="173" y="6"/>
      <point x="198" y="-13"/>
      <point x="234" y="-13" type="curve" smooth="yes"/>
      <point x="348" y="-13"/>
      <point x="455" y="59"/>
      <point x="455" y="188" type="curve" smooth="yes"/>
      <point x="455" y="297"/>
      <point x="376" y="386"/>
      <point x="263" y="386" type="curve" smooth="yes"/>
      <point x="213" y="386"/>
      <point x="159" y="356"/>
      <point x="156" y="356" type="curve" smooth="yes"/>
      <point x="155" y="356"/>
      <point x="155" y="371"/>
      <point x="155" y="394" type="curve" smooth="yes"/>
      <point x="155" y="476"/>
      <point x="158" y="661"/>
      <point x="158" y="661" type="curve"/>
      <point x="158" y="667"/>
      <point x="158" y="676"/>
      <point x="152" y="676" type="curve" smooth="yes"/>
      <point x="147" y="676"/>
      <point x="58" y="665"/>
      <point x="10" y="660" type="curve"/>
      <point x="6" y="660"/>
      <point x="5" y="645"/>
      <point x="5" y="639" type="curve" smooth="yes"/>
    </contour>
    <contour>
      <point x="153" y="97"/>
      <point x="155" y="231"/>
      <point x="155" y="332" type="curve" smooth="yes"/>
      <point x="155" y="337"/>
      <point x="189" y="357"/>
      <point x="223" y="357" type="curve" smooth="yes"/>
      <point x="310" y="357"/>
      <point x="383" y="276"/>
      <point x="383" y="187" type="curve" smooth="yes"/>
      <point x="383" y="98"/>
      <point x="331" y="14"/>
      <point x="237" y="14" type="curve" smooth="yes"/>
      <point x="209" y="14"/>
      <point x="153" y="15"/>
      <point x="153" y="64" type="curve" smooth="yes"/>
    </contour>
  </outline>
</glyph>
<glyph name="c" format="1">
  <advance width="412"/>
  <unicode hex="0063"/>
  <outline>
    <contour>
      <point x="35" y="64"/>
      <point x="107" y="-10"/>
      <point x="224" y="-10" type="curve" smooth="yes"/>
      <point x="323" y="-10"/>
      <point x="382" y="50"/>
      <point x="382" y="56" type="curve" smooth="yes"/>
      <point x="382" y="62"/>
      <point x="379" y="64"/>
      <point x="375" y="64" type="curve" smooth="yes"/>
      <point x="367" y="64"/>
      <point x="323" y="34"/>
      <point x="254" y="34" type="curve" smooth="yes"/>
      <point x="151" y="34"/>
      <point x="100" y="118"/>
      <point x="100" y="202" type="curve" smooth="yes"/>
      <point x="100" y="281"/>
      <point x="150" y="372"/>
      <point x="235" y="372" type="curve" smooth="yes"/>
      <point x="298" y="372"/>
      <point x="301" y="326"/>
      <point x="317" y="281" type="curve" smooth="yes"/>
      <point x="320" y="272"/>
      <point x="326" y="270"/>
      <point x="334" y="270" type="curve" smooth="yes"/>
      <point x="343" y="270"/>
      <point x="355" y="276"/>
      <point x="364" y="283" type="curve" smooth="yes"/>
      <point x="372" y="289"/>
      <point x="374" y="295"/>
      <point x="374" y="303" type="curve" smooth="yes"/>
      <point x="374" y="354"/>
      <point x="306" y="399"/>
      <point x="241" y="399" type="curve" smooth="yes"/>
      <point x="144" y="399"/>
      <point x="35" y="325"/>
      <point x="35" y="177" type="curve" smooth="yes"/>
    </contour>
  </outline>
</glyph>
<glyph name="d" format="1">
  <advance width="499"/>
  <unicode hex="0064"/>
  <outline>
    <contour>
      <point x="30" y="37"/>
      <point x="117" y="-13"/>
      <point x="206" y="-13" type="curve" smooth="yes"/>
      <point x="249" y="-13"/>
      <point x="292" y="5"/>
      <point x="326" y="26" type="curve" smooth="yes"/>
      <point x="340" y="35"/>
      <point x="341" y="32"/>
      <point x="341" y="22" type="curve" smooth="yes"/>
      <point x="341" y="18"/>
      <point x="340" y="-12"/>
      <point x="340" y="-14" type="curve" smooth="yes"/>
      <point x="340" y="-19"/>
      <point x="342" y="-23"/>
      <point x="346" y="-23" type="curve"/>
      <point x="461" y="-8" type="line" smooth="yes"/>
      <point x="474" y="-6"/>
      <point x="474" y="-3"/>
      <point x="474" y="11" type="curve" smooth="yes"/>
      <point x="474" y="21"/>
      <point x="471" y="20"/>
      <point x="463" y="19" type="curve" smooth="yes"/>
      <point x="448" y="17"/>
      <point x="437" y="15"/>
      <point x="429" y="15" type="curve" smooth="yes"/>
      <point x="413" y="15"/>
      <point x="407" y="24"/>
      <point x="406" y="64" type="curve" smooth="yes"/>
      <point x="405" y="100"/>
      <point x="404" y="152"/>
      <point x="404" y="184" type="curve" smooth="yes"/>
      <point x="404" y="494"/>
      <point x="410" y="623"/>
      <point x="410" y="657" type="curve" smooth="yes"/>
      <point x="410" y="678"/>
      <point x="409" y="680"/>
      <point x="400" y="680" type="curve" smooth="yes"/>
      <point x="395" y="680"/>
      <point x="326" y="669"/>
      <point x="269" y="662" type="curve"/>
      <point x="263" y="661"/>
      <point x="262" y="656"/>
      <point x="261" y="649" type="curve" smooth="yes"/>
      <point x="259" y="635"/>
      <point x="259" y="634"/>
      <point x="265" y="634" type="curve" smooth="yes"/>
      <point x="272" y="634"/>
      <point x="329" y="643"/>
      <point x="332" y="643" type="curve" smooth="yes"/>
      <point x="335" y="643"/>
      <point x="342" y="472"/>
      <point x="342" y="371" type="curve" smooth="yes"/>
      <point x="342" y="363"/>
      <point x="342" y="353"/>
      <point x="336" y="353" type="curve" smooth="yes"/>
      <point x="334" y="353"/>
      <point x="293" y="379"/>
      <point x="233" y="379" type="curve" smooth="yes"/>
      <point x="118" y="379"/>
      <point x="30" y="294"/>
      <point x="30" y="181" type="curve" smooth="yes"/>
    </contour>
    <contour>
      <point x="103" y="277"/>
      <point x="157" y="359"/>
      <point x="245" y="359" type="curve" smooth="yes"/>
      <point x="297" y="359"/>
      <point x="342" y="320"/>
      <point x="342" y="307" type="curve" smooth="yes"/>
      <point x="342" y="57" type="line" smooth="yes"/>
      <point x="342" y="39"/>
      <point x="281" y="24"/>
      <point x="255" y="24" type="curve" smooth="yes"/>
      <point x="147" y="24"/>
      <point x="103" y="95"/>
      <point x="103" y="188" type="curve" smooth="yes"/>
    </contour>
  </outline>
</glyph>
<glyph name="j" format="1">
  <advance width="292"/>
  <unicode hex="006A"/>
  <outline>
    <contour>
      <point x="5" y="-266"/>
      <point x="11" y="-275"/>
      <point x="24" y="-275" type="curve" smooth="yes"/>
      <point x="53" y="-275"/>
      <point x="130" y="-239"/>
      <point x="148" y="-216" type="curve" smooth="yes"/>
      <point x="195" y="-155"/>
      <point x="202" y="-80"/>
      <point x="202" y="27" type="curve" smooth="yes"/>
      <point x="202" y="155"/>
      <point x="198" y="266"/>
      <point x="197" y="355" type="curve"/>
      <point x="197" y="370"/>
      <point x="197" y="378"/>
      <point x="190" y="378" type="curve" smooth="yes"/>
      <point x="185" y="378"/>
      <point x="116" y="374"/>
      <point x="65" y="373" type="curve" smooth="yes"/>
      <point x="51" y="373"/>
      <point x="53" y="372"/>
      <point x="50" y="364" type="curve" smooth="yes"/>
      <point x="48" y="359"/>
      <point x="46" y="352"/>
      <point x="46" y="349" type="curve" smooth="yes"/>
      <point x="46" y="346"/>
      <point x="46" y="345"/>
      <point x="49" y="345" type="curve" smooth="yes"/>
      <point x="58" y="345"/>
      <point x="112" y="348"/>
      <point x="119" y="348" type="curve" smooth="yes"/>
      <point x="125" y="348"/>
      <point x="127" y="346"/>
      <point x="128" y="334" type="curve" smooth="yes"/>
      <point x="130" y="307"/>
      <point x="130" y="282"/>
      <point x="130" y="258" type="curve" smooth="yes"/>
      <point x="130" y="-41"/>
      <point x="139" y="-134"/>
      <point x="139" y="-173" type="curve" smooth="yes"/>
      <point x="139" y="-189"/>
      <point x="129" y="-206"/>
      <point x="101" y="-206" type="curve" smooth="yes"/>
      <point x="91" y="-206"/>
      <point x="67" y="-202"/>
      <point x="46" y="-202" type="curve" smooth="yes"/>
      <point x="31" y="-202"/>
      <point x="5" y="-233"/>
      <point x="5" y="-255" type="curve" smooth="yes"/>
    </contour>
    <contour>
      <point x="80" y="552"/>
      <point x="100" y="539"/>
      <point x="121" y="539" type="curve" smooth="yes"/>
      <point x="149" y="539"/>
      <point x="182" y="561"/>
      <point x="182" y="595" type="curve" smooth="yes"/>
      <point x="182" y="624"/>
      <point x="161" y="635"/>
      <point x="140" y="635" type="curve" smooth="yes"/>
      <point x="116" y="635"/>
      <point x="80" y="616"/>
      <point x="80" y="580" type="curve" smooth="yes"/>
    </contour>
  </outline>
</glyph>
<glyph name="m" format="1">
  <advance width="739"/>
  <unicode hex="006D"/>
  <outline>
    <contour>
      <point x="25" y="348"/>
      <point x="26" y="347"/>
      <point x="30" y="347" type="curve" smooth="yes"/>
      <point x="35" y="347"/>
      <point x="86" y="350"/>
      <point x="89" y="350" type="curve" smooth="yes"/>
      <point x="91" y="350"/>
      <point x="93" y="313"/>
      <point x="93" y="272" type="curve" smooth="yes"/>
      <point x="93" y="163" type="line" smooth="yes"/>
      <point x="93" y="118"/>
      <point x="93" y="77"/>
      <point x="91" y="57" type="curve" smooth="yes"/>
      <point x="89" y="38"/>
      <point x="87" y="25"/>
      <point x="78" y="25" type="curve" smooth="yes"/>
      <point x="39" y="25" type="line" smooth="yes"/>
      <point x="29" y="25"/>
      <point x="28" y="20"/>
      <point x="28" y="11" type="curve" smooth="yes"/>
      <point x="28" y="0"/>
      <point x="32" y="-2"/>
      <point x="40" y="-2" type="curve" smooth="yes"/>
      <point x="56" y="-2"/>
      <point x="99" y="0"/>
      <point x="124" y="0" type="curve" smooth="yes"/>
      <point x="149" y="0"/>
      <point x="181" y="-2"/>
      <point x="200" y="-2" type="curve" smooth="yes"/>
      <point x="213" y="-2"/>
      <point x="214" y="3"/>
      <point x="214" y="12" type="curve" smooth="yes"/>
      <point x="214" y="21"/>
      <point x="212" y="25"/>
      <point x="200" y="25" type="curve" smooth="yes"/>
      <point x="179" y="25" type="line" smooth="yes"/>
      <point x="160" y="25"/>
      <point x="160" y="29"/>
      <point x="160" y="68" type="curve" smooth="yes"/>
      <point x="160" y="296" type="line" smooth="yes"/>
      <point x="160" y="302"/>
      <point x="161" y="306"/>
      <point x="171" y="314" type="curve" smooth="yes"/>
      <point x="187" y="326"/>
      <point x="221" y="344"/>
      <point x="271" y="344" type="curve" smooth="yes"/>
      <point x="340" y="344"/>
      <point x="343" y="284"/>
      <point x="343" y="216" type="curve" smooth="yes"/>
      <point x="343" y="209"/>
      <point x="344" y="166"/>
      <point x="344" y="122" type="curve" smooth="yes"/>
      <point x="344" y="74"/>
      <point x="343" y="25"/>
      <point x="337" y="25" type="curve" smooth="yes"/>
      <point x="298" y="25" type="line" smooth="yes"/>
      <point x="288" y="25"/>
      <point x="286" y="21"/>
      <point x="286" y="12" type="curve" smooth="yes"/>
      <point x="286" y="1"/>
      <point x="288" y="-2"/>
      <point x="301" y="-2" type="curve" smooth="yes"/>
      <point x="331" y="-2"/>
      <point x="349" y="0"/>
      <point x="374" y="0" type="curve" smooth="yes"/>
      <point x="403" y="0"/>
      <point x="428" y="-2"/>
      <point x="447" y="-2" type="curve" smooth="yes"/>
      <point x="460" y="-2"/>
      <point x="461" y="3"/>
      <point x="461" y="12" type="curve" smooth="yes"/>
      <point x="461" y="21"/>
      <point x="459" y="25"/>
      <point x="447" y="25" type="curve" smooth="yes"/>
      <point x="413" y="25" type="line" smooth="yes"/>
      <point x="410" y="25"/>
      <point x="410" y="42"/>
      <point x="410" y="66" type="curve" smooth="yes"/>
      <point x="410" y="236" type="line" smooth="yes"/>
      <point x="410" y="296"/>
      <point x="404" y="306"/>
      <point x="404" y="314" type="curve" smooth="yes"/>
      <point x="404" y="317"/>
      <point x="450" y="344"/>
      <point x="501" y="344" type="curve" smooth="yes"/>
      <point x="574" y="344"/>
      <point x="590" y="283"/>
      <point x="590" y="216" type="curve" smooth="yes"/>
      <point x="590" y="169"/>
      <point x="590" y="25"/>
      <point x="581" y="25" type="curve" smooth="yes"/>
      <point x="541" y="25" type="line" smooth="yes"/>
      <point x="531" y="25"/>
      <point x="526" y="21"/>
      <point x="526" y="12" type="curve" smooth="yes"/>
      <point x="526" y="1"/>
      <point x="526" y="-2"/>
      <point x="539" y="-2" type="curve" smooth="yes"/>
      <point x="569" y="-2"/>
      <point x="599" y="0"/>
      <point x="624" y="0" type="curve" smooth="yes"/>
      <point x="653" y="0"/>
      <point x="681" y="-2"/>
      <point x="700" y="-2" type="curve" smooth="yes"/>
      <point x="713" y="-2"/>
      <point x="714" y="3"/>
      <point x="714" y="12" type="curve" smooth="yes"/>
      <point x="714" y="21"/>
      <point x="712" y="25"/>
      <point x="700" y="25" type="curve" smooth="yes"/>
      <point x="668" y="25" type="line" smooth="yes"/>
      <point x="660" y="25"/>
      <point x="658" y="28"/>
      <point x="658" y="35" type="curve" smooth="yes"/>
      <point x="658" y="83"/>
      <point x="660" y="156"/>
      <point x="660" y="240" type="curve" smooth="yes"/>
      <point x="660" y="326"/>
      <point x="633" y="386"/>
      <point x="536" y="386" type="curve" smooth="yes"/>
      <point x="498" y="386"/>
      <point x="442" y="364"/>
      <point x="411" y="344" type="curve"/>
      <point x="404" y="339"/>
      <point x="400" y="337"/>
      <point x="398" y="337" type="curve" smooth="yes"/>
      <point x="395" y="337"/>
      <point x="386" y="388"/>
      <point x="310" y="388" type="curve" smooth="yes"/>
      <point x="253" y="388"/>
      <point x="199" y="354"/>
      <point x="169" y="333" type="curve"/>
      <point x="160" y="326"/>
      <point x="159" y="322"/>
      <point x="159" y="342" type="curve" smooth="yes"/>
      <point x="159" y="370" type="line" smooth="yes"/>
      <point x="159" y="380"/>
      <point x="159" y="381"/>
      <point x="144" y="381" type="curve" smooth="yes"/>
      <point x="139" y="381"/>
      <point x="85" y="378"/>
      <point x="44" y="376" type="curve" smooth="yes"/>
      <point x="30" y="375"/>
      <point x="32" y="376"/>
      <point x="29" y="368" type="curve"/>
      <point x="27" y="362"/>
      <point x="25" y="352"/>
      <point x="25" y="350" type="curve" smooth="yes"/>
    </contour>
  </outline>
</glyph>
<glyph name="o" format="1">
  <advance width="446"/>
  <unicode hex="006F"/>
  <outline>
    <contour>
      <point x="30" y="74"/>
      <point x="112" y="-15"/>
      <point x="219" y="-15" type="curve" smooth="yes"/>
      <point x="343" y="-15"/>
      <point x="416" y="74"/>
      <point x="416" y="197" type="curve" smooth="yes"/>
      <point x="416" y="307"/>
      <point x="344" y="396"/>
      <point x="235" y="396" type="curve" smooth="yes"/>
      <point x="112" y="396"/>
      <point x="30" y="301"/>
      <point x="30" y="183" type="curve" smooth="yes"/>
    </contour>
    <contour>
      <point x="101" y="279"/>
      <point x="129" y="370"/>
      <point x="223" y="370" type="curve" smooth="yes"/>
      <point x="307" y="370"/>
      <point x="343" y="282"/>
      <point x="343" y="204" type="curve" smooth="yes"/>
      <point x="343" y="114"/>
      <point x="319" y="11"/>
      <point x="219" y="11" type="curve" smooth="yes"/>
      <point x="141" y="11"/>
      <point x="101" y="94"/>
      <point x="101" y="169" type="curve" smooth="yes"/>
    </contour>
  </outline>
</glyph>
<glyph name="p" format="1">
  <advance width="512"/>
  <unicode hex="0070"/>
  <outline>
    <contour>
      <point x="25" y="346"/>
      <point x="28" y="347"/>
      <point x="38" y="347" type="curve" smooth="yes"/>
      <point x="43" y="347"/>
      <point x="82" y="349"/>
      <point x="88" y="349" type="curve" smooth="yes"/>
      <point x="102" y="349"/>
      <point x="103" y="349"/>
      <point x="104" y="335" type="curve" smooth="yes"/>
      <point x="107" y="294"/>
      <point x="111" y="263"/>
      <point x="111" y="48" type="curve" smooth="yes"/>
      <point x="111" y="-94" type="line" smooth="yes"/>
      <point x="111" y="-173"/>
      <point x="111" y="-254"/>
      <point x="108" y="-254" type="curve" smooth="yes"/>
      <point x="53" y="-254" type="line" smooth="yes"/>
      <point x="43" y="-254"/>
      <point x="41" y="-258"/>
      <point x="41" y="-267" type="curve" smooth="yes"/>
      <point x="41" y="-278"/>
      <point x="41" y="-281"/>
      <point x="54" y="-281" type="curve" smooth="yes"/>
      <point x="84" y="-281"/>
      <point x="126" y="-279"/>
      <point x="151" y="-279" type="curve" smooth="yes"/>
      <point x="180" y="-279"/>
      <point x="238" y="-281"/>
      <point x="257" y="-281" type="curve" smooth="yes"/>
      <point x="270" y="-281"/>
      <point x="270" y="-276"/>
      <point x="270" y="-267" type="curve" smooth="yes"/>
      <point x="270" y="-258"/>
      <point x="269" y="-254"/>
      <point x="257" y="-254" type="curve" smooth="yes"/>
      <point x="187" y="-254" type="line" smooth="yes"/>
      <point x="181" y="-254"/>
      <point x="182" y="-225"/>
      <point x="181" y="-187" type="curve" smooth="yes"/>
      <point x="178" y="2" type="line"/>
      <point x="178" y="13"/>
      <point x="189" y="6"/>
      <point x="202" y="2" type="curve" smooth="yes"/>
      <point x="221" y="-4"/>
      <point x="247" y="-9"/>
      <point x="268" y="-9" type="curve" smooth="yes"/>
      <point x="399" y="-9"/>
      <point x="477" y="93"/>
      <point x="477" y="194" type="curve" smooth="yes"/>
      <point x="477" y="300"/>
      <point x="421" y="383"/>
      <point x="306" y="383" type="curve" smooth="yes"/>
      <point x="264" y="383"/>
      <point x="221" y="363"/>
      <point x="198" y="346" type="curve" smooth="yes"/>
      <point x="189" y="339"/>
      <point x="182" y="332"/>
      <point x="179" y="332" type="curve" smooth="yes"/>
      <point x="177" y="332"/>
      <point x="177" y="335"/>
      <point x="177" y="342" type="curve" smooth="yes"/>
      <point x="177" y="366" type="line" smooth="yes"/>
      <point x="177" y="380"/>
      <point x="174" y="380"/>
      <point x="166" y="380" type="curve" smooth="yes"/>
      <point x="162" y="380"/>
      <point x="101" y="376"/>
      <point x="34" y="374" type="curve" smooth="yes"/>
      <point x="31" y="374"/>
      <point x="25" y="356"/>
      <point x="25" y="352" type="curve" smooth="yes"/>
    </contour>
    <contour>
      <point x="178" y="302" type="line" smooth="yes"/>
      <point x="178" y="306"/>
      <point x="179" y="319"/>
      <point x="211" y="335" type="curve" smooth="yes"/>
      <point x="226" y="342"/>
      <point x="247" y="348"/>
      <point x="275" y="348" type="curve" smooth="yes"/>
      <point x="349" y="348"/>
      <point x="405" y="285"/>
      <point x="405" y="187" type="curve" smooth="yes"/>
      <point x="405" y="107"/>
      <point x="359" y="10"/>
      <point x="265" y="10" type="curve" smooth="yes"/>
      <point x="234" y="10"/>
      <point x="178" y="28"/>
      <point x="178" y="52" type="curve" smooth="yes"/>
    </contour>
  </outline>
</glyph>
<glyph name="q" format="1">
  <advance width="490"/>
  <unicode hex="0071"/>
  <outline>
    <contour>
      <point x="35" y="39"/>
      <point x="131" y="-13"/>
      <point x="209" y="-13" type="curve" smooth="yes"/>
      <point x="251" y="-13"/>
      <point x="295" y="-1"/>
      <point x="319" y="6" type="curve" smooth="yes"/>
      <point x="326" y="8"/>
      <point x="331" y="10"/>
      <point x="334" y="10" type="curve" smooth="yes"/>
      <point x="338" y="10"/>
      <point x="338" y="7"/>
      <point x="338" y="1" type="curve" smooth="yes"/>
      <point x="336" y="-222" type="line" smooth="yes"/>
      <point x="336" y="-262"/>
      <point x="335" y="-255"/>
      <point x="267" y="-262" type="curve" smooth="yes"/>
      <point x="255" y="-263"/>
      <point x="254" y="-270"/>
      <point x="254" y="-279" type="curve" smooth="yes"/>
      <point x="254" y="-288"/>
      <point x="256" y="-291"/>
      <point x="269" y="-291" type="curve" smooth="yes"/>
      <point x="274" y="-291"/>
      <point x="338" y="-280"/>
      <point x="425" y="-280" type="curve" smooth="yes"/>
      <point x="452" y="-280" type="line" smooth="yes"/>
      <point x="465" y="-280"/>
      <point x="465" y="-277"/>
      <point x="465" y="-266" type="curve" smooth="yes"/>
      <point x="465" y="-257"/>
      <point x="463" y="-251"/>
      <point x="453" y="-251" type="curve" smooth="yes"/>
      <point x="412" y="-251" type="line" smooth="yes"/>
      <point x="409" y="-251"/>
      <point x="409" y="-167"/>
      <point x="409" y="-88" type="curve" smooth="yes"/>
      <point x="409" y="77" type="line" smooth="yes"/>
      <point x="409" y="168"/>
      <point x="410" y="256"/>
      <point x="414" y="375" type="curve" smooth="yes"/>
      <point x="414" y="384"/>
      <point x="408" y="388"/>
      <point x="398" y="388" type="curve" smooth="yes"/>
      <point x="383" y="388"/>
      <point x="378" y="355"/>
      <point x="360" y="355" type="curve" smooth="yes"/>
      <point x="340" y="355"/>
      <point x="299" y="381"/>
      <point x="243" y="381" type="curve" smooth="yes"/>
      <point x="124" y="381"/>
      <point x="35" y="296"/>
      <point x="35" y="180" type="curve" smooth="yes"/>
    </contour>
    <contour>
      <point x="106" y="269"/>
      <point x="146" y="354"/>
      <point x="235" y="354" type="curve" smooth="yes"/>
      <point x="299" y="354"/>
      <point x="339" y="331"/>
      <point x="339" y="291" type="curve" smooth="yes"/>
      <point x="339" y="41" type="line" smooth="yes"/>
      <point x="339" y="25"/>
      <point x="279" y="19"/>
      <point x="250" y="19" type="curve" smooth="yes"/>
      <point x="158" y="19"/>
      <point x="106" y="110"/>
      <point x="106" y="191" type="curve" smooth="yes"/>
    </contour>
  </outline>
</glyph>
<glyph name="t" format="1">
  <advance width="289"/>
  <unicode hex="0074"/>
  <outline>
    <contour>
      <point x="35" y="340"/>
      <point x="37" y="337"/>
      <point x="41" y="337" type="curve" smooth="yes"/>
      <point x="66" y="337" type="line" smooth="yes"/>
      <point x="77" y="337"/>
      <point x="78" y="313"/>
      <point x="78" y="276" type="curve" smooth="yes"/>
      <point x="78" y="247"/>
      <point x="77" y="132"/>
      <point x="76" y="60" type="curve" smooth="yes"/>
      <point x="76" y="30"/>
      <point x="91" y="-9"/>
      <point x="148" y="-9" type="curve" smooth="yes"/>
      <point x="189" y="-9"/>
      <point x="274" y="33"/>
      <point x="274" y="38" type="curve" smooth="yes"/>
      <point x="274" y="45"/>
      <point x="273" y="54"/>
      <point x="270" y="54" type="curve" smooth="yes"/>
      <point x="262" y="54"/>
      <point x="229" y="38"/>
      <point x="190" y="38" type="curve" smooth="yes"/>
      <point x="144" y="38"/>
      <point x="142" y="69"/>
      <point x="142" y="100" type="curve" smooth="yes"/>
      <point x="142" y="292" type="line" smooth="yes"/>
      <point x="142" y="320"/>
      <point x="142" y="338"/>
      <point x="145" y="338" type="curve" smooth="yes"/>
      <point x="244" y="338" type="line" smooth="yes"/>
      <point x="251" y="338"/>
      <point x="254" y="341"/>
      <point x="257" y="354" type="curve" smooth="yes"/>
      <point x="261" y="372"/>
      <point x="260" y="372"/>
      <point x="248" y="372" type="curve" smooth="yes"/>
      <point x="153" y="372" type="line" smooth="yes"/>
      <point x="144" y="372"/>
      <point x="142" y="373"/>
      <point x="142" y="382" type="curve" smooth="yes"/>
      <point x="142" y="398"/>
      <point x="148" y="471"/>
      <point x="148" y="474" type="curve" smooth="yes"/>
      <point x="148" y="481"/>
      <point x="143" y="484"/>
      <point x="138" y="484" type="curve" smooth="yes"/>
      <point x="134" y="484"/>
      <point x="131" y="482"/>
      <point x="129" y="479" type="curve" smooth="yes"/>
      <point x="38" y="352" type="line"/>
      <point x="36" y="350"/>
      <point x="35" y="347"/>
      <point x="35" y="344" type="curve" smooth="yes"/>
    </contour>
  </outline>
</glyph>
<glyph name="u" format="1">
  <advance width="510"/>
  <unicode hex="0075"/>
  <outline>
    <contour>
      <point x="15" y="357"/>
      <point x="16" y="355"/>
      <point x="19" y="355" type="curve" smooth="yes"/>
      <point x="23" y="355"/>
      <point x="65" y="356"/>
      <point x="68" y="356" type="curve" smooth="yes"/>
      <point x="80" y="356"/>
      <point x="80" y="323"/>
      <point x="80" y="279" type="curve" smooth="yes"/>
      <point x="80" y="122" type="line" smooth="yes"/>
      <point x="80" y="55"/>
      <point x="94" y="-11"/>
      <point x="189" y="-11" type="curve" smooth="yes"/>
      <point x="264" y="-11"/>
      <point x="347" y="36"/>
      <point x="352" y="36" type="curve" smooth="yes"/>
      <point x="355" y="36"/>
      <point x="355" y="13"/>
      <point x="356" y="-2" type="curve" smooth="yes"/>
      <point x="357" y="-13"/>
      <point x="361" y="-15"/>
      <point x="367" y="-15" type="curve" smooth="yes"/>
      <point x="374" y="-15"/>
      <point x="437" y="-5"/>
      <point x="471" y="0" type="curve" smooth="yes"/>
      <point x="484" y="2"/>
      <point x="485" y="2"/>
      <point x="485" y="16" type="curve" smooth="yes"/>
      <point x="485" y="22"/>
      <point x="484" y="26"/>
      <point x="480" y="26" type="curve" smooth="yes"/>
      <point x="478" y="26"/>
      <point x="442" y="20"/>
      <point x="439" y="20" type="curve" smooth="yes"/>
      <point x="423" y="20"/>
      <point x="420" y="30"/>
      <point x="420" y="79" type="curve" smooth="yes"/>
      <point x="420" y="141"/>
      <point x="421" y="380"/>
      <point x="421" y="380" type="curve"/>
      <point x="421" y="385"/>
      <point x="420" y="386"/>
      <point x="414" y="386" type="curve" smooth="yes"/>
      <point x="409" y="386"/>
      <point x="320" y="382"/>
      <point x="301" y="381" type="curve" smooth="yes"/>
      <point x="288" y="380"/>
      <point x="290" y="376"/>
      <point x="288" y="361" type="curve"/>
      <point x="288" y="358"/>
      <point x="289" y="357"/>
      <point x="292" y="357" type="curve" smooth="yes"/>
      <point x="296" y="357"/>
      <point x="341" y="359"/>
      <point x="344" y="359" type="curve" smooth="yes"/>
      <point x="350" y="359"/>
      <point x="352" y="203"/>
      <point x="352" y="173" type="curve" smooth="yes"/>
      <point x="352" y="55" type="line" smooth="yes"/>
      <point x="352" y="43"/>
      <point x="293" y="39"/>
      <point x="261" y="39" type="curve" smooth="yes"/>
      <point x="202" y="39"/>
      <point x="150" y="50"/>
      <point x="150" y="106" type="curve" smooth="yes"/>
      <point x="150" y="378" type="line" smooth="yes"/>
      <point x="150" y="383"/>
      <point x="149" y="384"/>
      <point x="143" y="384" type="curve" smooth="yes"/>
      <point x="138" y="384"/>
      <point x="55" y="381"/>
      <point x="33" y="380" type="curve"/>
      <point x="21" y="379"/>
      <point x="21" y="379"/>
      <point x="18" y="371" type="curve" smooth="yes"/>
      <point x="16" y="366"/>
      <point x="15" y="363"/>
      <point x="15" y="360" type="curve" smooth="yes"/>
    </contour>
  </outline>
</glyph>
<glyph name="v" format="1">
  <advance width="461"/>
  <unicode hex="0076"/>
  <outline>
    <contour>
      <point x="25" y="359"/>
      <point x="26" y="355"/>
      <point x="38" y="355" type="curve" smooth="yes"/>
      <point x="47" y="355" type="line" smooth="yes"/>
      <point x="62" y="355"/>
      <point x="63" y="355"/>
      <point x="69" y="340" type="curve" smooth="yes"/>
      <point x="109" y="236"/>
      <point x="167" y="75"/>
      <point x="178" y="41" type="curve" smooth="yes"/>
      <point x="185" y="20"/>
      <point x="195" y="-25"/>
      <point x="208" y="-25" type="curve" smooth="yes"/>
      <point x="211" y="-25"/>
      <point x="215" y="-23"/>
      <point x="219" y="-18" type="curve"/>
      <point x="245" y="21"/>
      <point x="252" y="19"/>
      <point x="268" y="52" type="curve" smooth="yes"/>
      <point x="313" y="146"/>
      <point x="373" y="305"/>
      <point x="395" y="345" type="curve"/>
      <point x="400" y="353"/>
      <point x="400" y="355"/>
      <point x="408" y="355" type="curve" smooth="yes"/>
      <point x="424" y="355" type="line" smooth="yes"/>
      <point x="434" y="355"/>
      <point x="436" y="359"/>
      <point x="436" y="368" type="curve" smooth="yes"/>
      <point x="436" y="379"/>
      <point x="435" y="382"/>
      <point x="425" y="382" type="curve" smooth="yes"/>
      <point x="410" y="382"/>
      <point x="396" y="380"/>
      <point x="374" y="380" type="curve" smooth="yes"/>
      <point x="354" y="380"/>
      <point x="325" y="382"/>
      <point x="317" y="382" type="curve" smooth="yes"/>
      <point x="304" y="382"/>
      <point x="303" y="377"/>
      <point x="303" y="368" type="curve" smooth="yes"/>
      <point x="303" y="359"/>
      <point x="304" y="355"/>
      <point x="316" y="355" type="curve" smooth="yes"/>
      <point x="342" y="355" type="line" smooth="yes"/>
      <point x="349" y="355"/>
      <point x="352" y="349"/>
      <point x="352" y="339" type="curve" smooth="yes"/>
      <point x="352" y="306"/>
      <point x="282" y="139"/>
      <point x="258" y="82" type="curve" smooth="yes"/>
      <point x="254" y="72"/>
      <point x="252" y="66"/>
      <point x="249" y="66" type="curve" smooth="yes"/>
      <point x="247" y="66"/>
      <point x="243" y="70"/>
      <point x="237" y="84" type="curve" smooth="yes"/>
      <point x="208" y="152"/>
      <point x="143" y="343"/>
      <point x="143" y="347" type="curve" smooth="yes"/>
      <point x="143" y="354"/>
      <point x="151" y="355"/>
      <point x="161" y="355" type="curve" smooth="yes"/>
      <point x="191" y="355" type="line" smooth="yes"/>
      <point x="201" y="355"/>
      <point x="203" y="359"/>
      <point x="203" y="368" type="curve" smooth="yes"/>
      <point x="203" y="379"/>
      <point x="203" y="382"/>
      <point x="190" y="382" type="curve" smooth="yes"/>
      <point x="172" y="382"/>
      <point x="130" y="380"/>
      <point x="105" y="380" type="curve" smooth="yes"/>
      <point x="76" y="380"/>
      <point x="57" y="382"/>
      <point x="38" y="382" type="curve" smooth="yes"/>
      <point x="25" y="382"/>
      <point x="25" y="377"/>
      <point x="25" y="368" type="curve" smooth="yes"/>
    </contour>
  </outline>
</glyph>
<glyph name="x" format="1">
  <advance width="468"/>
  <unicode hex="0078"/>
  <outline>
    <contour>
      <point x="25" y="1"/>
      <point x="27" y="-2"/>
      <point x="38" y="-2" type="curve" smooth="yes"/>
      <point x="53" y="-2"/>
      <point x="69" y="0"/>
      <point x="94" y="0" type="curve" smooth="yes"/>
      <point x="123" y="0"/>
      <point x="138" y="-2"/>
      <point x="157" y="-2" type="curve" smooth="yes"/>
      <point x="170" y="-2"/>
      <point x="170" y="3"/>
      <point x="170" y="12" type="curve" smooth="yes"/>
      <point x="170" y="21"/>
      <point x="169" y="25"/>
      <point x="157" y="25" type="curve" smooth="yes"/>
      <point x="129" y="25" type="line" smooth="yes"/>
      <point x="116" y="25"/>
      <point x="111" y="27"/>
      <point x="111" y="31" type="curve" smooth="yes"/>
      <point x="111" y="35"/>
      <point x="116" y="40"/>
      <point x="121" y="47" type="curve" smooth="yes"/>
      <point x="144" y="79"/>
      <point x="194" y="135"/>
      <point x="215" y="160" type="curve" smooth="yes"/>
      <point x="225" y="172"/>
      <point x="226" y="171"/>
      <point x="235" y="159" type="curve" smooth="yes"/>
      <point x="250" y="139"/>
      <point x="280" y="98"/>
      <point x="300" y="66" type="curve" smooth="yes"/>
      <point x="310" y="51"/>
      <point x="321" y="36"/>
      <point x="321" y="33" type="curve" smooth="yes"/>
      <point x="321" y="26"/>
      <point x="316" y="25"/>
      <point x="301" y="25" type="curve" smooth="yes"/>
      <point x="290" y="25" type="line" smooth="yes"/>
      <point x="280" y="25"/>
      <point x="278" y="21"/>
      <point x="278" y="12" type="curve" smooth="yes"/>
      <point x="278" y="1"/>
      <point x="278" y="-2"/>
      <point x="291" y="-2" type="curve" smooth="yes"/>
      <point x="309" y="-2"/>
      <point x="334" y="0"/>
      <point x="359" y="0" type="curve" smooth="yes"/>
      <point x="388" y="0"/>
      <point x="409" y="-2"/>
      <point x="428" y="-2" type="curve" smooth="yes"/>
      <point x="441" y="-2"/>
      <point x="441" y="3"/>
      <point x="441" y="12" type="curve" smooth="yes"/>
      <point x="441" y="21"/>
      <point x="440" y="25"/>
      <point x="428" y="25" type="curve" smooth="yes"/>
      <point x="416" y="25" type="line" smooth="yes"/>
      <point x="407" y="25"/>
      <point x="407" y="26"/>
      <point x="398" y="38" type="curve" smooth="yes"/>
      <point x="371" y="72"/>
      <point x="307" y="160"/>
      <point x="282" y="195" type="curve" smooth="yes"/>
      <point x="276" y="203"/>
      <point x="272" y="207"/>
      <point x="272" y="210" type="curve" smooth="yes"/>
      <point x="272" y="213"/>
      <point x="275" y="215"/>
      <point x="282" y="222" type="curve" smooth="yes"/>
      <point x="303" y="243"/>
      <point x="347" y="289"/>
      <point x="387" y="326" type="curve" smooth="yes"/>
      <point x="402" y="340"/>
      <point x="412" y="355"/>
      <point x="431" y="355" type="curve" smooth="yes"/>
      <point x="441" y="355"/>
      <point x="443" y="359"/>
      <point x="443" y="368" type="curve" smooth="yes"/>
      <point x="443" y="379"/>
      <point x="440" y="382"/>
      <point x="430" y="382" type="curve" smooth="yes"/>
      <point x="415" y="382"/>
      <point x="399" y="380"/>
      <point x="377" y="380" type="curve" smooth="yes"/>
      <point x="357" y="380"/>
      <point x="342" y="382"/>
      <point x="323" y="382" type="curve" smooth="yes"/>
      <point x="310" y="382"/>
      <point x="309" y="377"/>
      <point x="309" y="368" type="curve" smooth="yes"/>
      <point x="309" y="359"/>
      <point x="310" y="355"/>
      <point x="322" y="355" type="curve" smooth="yes"/>
      <point x="335" y="355" type="line" smooth="yes"/>
      <point x="355" y="355"/>
      <point x="361" y="352"/>
      <point x="361" y="348" type="curve" smooth="yes"/>
      <point x="361" y="345"/>
      <point x="358" y="342"/>
      <point x="355" y="337" type="curve"/>
      <point x="334" y="309"/>
      <point x="291" y="262"/>
      <point x="270" y="239" type="curve"/>
      <point x="257" y="226"/>
      <point x="260" y="223"/>
      <point x="249" y="239" type="curve" smooth="yes"/>
      <point x="186" y="331" type="line" smooth="yes"/>
      <point x="181" y="338"/>
      <point x="176" y="345"/>
      <point x="176" y="349" type="curve" smooth="yes"/>
      <point x="176" y="353"/>
      <point x="181" y="355"/>
      <point x="196" y="355" type="curve" smooth="yes"/>
      <point x="206" y="355"/>
      <point x="208" y="359"/>
      <point x="208" y="368" type="curve" smooth="yes"/>
      <point x="208" y="379"/>
      <point x="208" y="382"/>
      <point x="195" y="382" type="curve" smooth="yes"/>
      <point x="177" y="382"/>
      <point x="162" y="380"/>
      <point x="137" y="380" type="curve" smooth="yes"/>
      <point x="108" y="380"/>
      <point x="77" y="382"/>
      <point x="58" y="382" type="curve" smooth="yes"/>
      <point x="45" y="382"/>
      <point x="45" y="377"/>
      <point x="45" y="368" type="curve" smooth="yes"/>
      <point x="45" y="359"/>
      <point x="46" y="355"/>
      <point x="58" y="355" type="curve" smooth="yes"/>
      <point x="74" y="355" type="line" smooth="yes"/>
      <point x="89" y="355"/>
      <point x="89" y="355"/>
      <point x="100" y="340" type="curve" smooth="yes"/>
      <point x="207" y="196" type="line" smooth="yes"/>
      <point x="214" y="187"/>
      <point x="214" y="187"/>
      <point x="204" y="177" type="curve" smooth="yes"/>
      <point x="84" y="54" type="line" smooth="yes"/>
      <point x="59" y="28"/>
      <point x="56" y="25"/>
      <point x="37" y="25" type="curve" smooth="yes"/>
      <point x="27" y="25"/>
      <point x="25" y="21"/>
      <point x="25" y="12" type="curve" smooth="yes"/>
    </contour>
  </outline>
</glyph>
<glyph name="z" format="1">
  <advance width="413"/>
  <unicode hex="007A"/>
  <outline>
    <contour>
      <point x="35" y="0"/>
      <point x="43" y="0"/>
      <point x="57" y="0" type="curve" smooth="yes"/>
      <point x="352" y="0" type="line" smooth="yes"/>
      <point x="367" y="0"/>
      <point x="367" y="1"/>
      <point x="368" y="15" type="curve" smooth="yes"/>
      <point x="370" y="44"/>
      <point x="373" y="101"/>
      <point x="373" y="108" type="curve" smooth="yes"/>
      <point x="373" y="112"/>
      <point x="372" y="114"/>
      <point x="364" y="114" type="curve" smooth="yes"/>
      <point x="349" y="114"/>
      <point x="349" y="115"/>
      <point x="347" y="102" type="curve" smooth="yes"/>
      <point x="340" y="44" type="line" smooth="yes"/>
      <point x="338" y="31"/>
      <point x="338" y="31"/>
      <point x="324" y="31" type="curve" smooth="yes"/>
      <point x="150" y="27" type="line" smooth="yes"/>
      <point x="139" y="27"/>
      <point x="135" y="33"/>
      <point x="135" y="37" type="curve" smooth="yes"/>
      <point x="135" y="42"/>
      <point x="140" y="49"/>
      <point x="144" y="55" type="curve" smooth="yes"/>
      <point x="354" y="365" type="line"/>
      <point x="359" y="373"/>
      <point x="363" y="376"/>
      <point x="363" y="380" type="curve" smooth="yes"/>
      <point x="363" y="386"/>
      <point x="356" y="389"/>
      <point x="340" y="389" type="curve" smooth="yes"/>
      <point x="59" y="389" type="line" smooth="yes"/>
      <point x="47" y="389"/>
      <point x="46" y="388"/>
      <point x="45" y="376" type="curve" smooth="yes"/>
      <point x="42" y="350"/>
      <point x="36" y="299"/>
      <point x="36" y="296" type="curve" smooth="yes"/>
      <point x="36" y="292"/>
      <point x="43" y="290"/>
      <point x="52" y="290" type="curve" smooth="yes"/>
      <point x="63" y="290"/>
      <point x="63" y="295"/>
      <point x="65" y="302" type="curve" smooth="yes"/>
      <point x="75" y="342" type="line" smooth="yes"/>
      <point x="79" y="360"/>
      <point x="80" y="360"/>
      <point x="102" y="361" type="curve" smooth="yes"/>
      <point x="257" y="366" type="line" smooth="yes"/>
      <point x="266" y="366"/>
      <point x="271" y="365"/>
      <point x="271" y="363" type="curve" smooth="yes"/>
      <point x="271" y="360"/>
      <point x="264" y="353"/>
      <point x="259" y="345" type="curve"/>
      <point x="45" y="30" type="line"/>
      <point x="39" y="22"/>
      <point x="35" y="15"/>
      <point x="35" y="10" type="curve" smooth="yes"/>
    </contour>
  </outline>
</glyph>
<glyph name="bar" format="1">
  <advance width="247"/>
  <unicode hex="007C"/>
  <outline>
    <contour>
      <point x="100" y="-187" type="line" smooth="yes"/>
      <point x="100" y="-208"/>
      <point x="100" y="-209"/>
      <point x="114" y="-209" type="curve" smooth="yes"/>
      <point x="135" y="-209" type="line" smooth="yes"/>
      <point x="147" y="-209"/>
      <point x="147" y="-202"/>
      <point x="147" y="-187" type="curve" smooth="yes"/>
      <point x="147" y="745" type="line" smooth="yes"/>
      <point x="147" y="762"/>
      <point x="144" y="762"/>
      <point x="125" y="762" type="curve" smooth="yes"/>
      <point x="118" y="762" type="line" smooth="yes"/>
      <point x="106" y="762"/>
      <point x="100" y="761"/>
      <point x="100" y="746" type="curve" smooth="yes"/>
    </contour>
  </outline>
</glyph>
<glyph name="exclamdown" format="1">
  <advance width="261"/>
  <unicode hex="00A1"/>
  <outline>
    <contour>
      <point x="80" y="590"/>
      <point x="119" y="568"/>
      <point x="137" y="568" type="curve" smooth="yes"/>
      <point x="153" y="568"/>
      <point x="181" y="606"/>
      <point x="181" y="627" type="curve" smooth="yes"/>
      <point x="181" y="642"/>
      <point x="150" y="673"/>
      <point x="122" y="673" type="curve" smooth="yes"/>
      <point x="112" y="673"/>
      <point x="80" y="646"/>
      <point x="80" y="615" type="curve" smooth="yes"/>
    </contour>
    <contour>
      <point x="92" y="-5"/>
      <point x="100" y="-8"/>
      <point x="123" y="-8" type="curve" smooth="yes"/>
      <point x="149" y="-8"/>
      <point x="164" y="-3"/>
      <point x="164" y="17" type="curve" smooth="yes"/>
      <point x="164" y="71"/>
      <point x="151" y="260"/>
      <point x="145" y="483" type="curve"/>
      <point x="145" y="490"/>
      <point x="138" y="493"/>
      <point x="132" y="493" type="curve" smooth="yes"/>
      <point x="125" y="493"/>
      <point x="118" y="490"/>
      <point x="118" y="483" type="curve"/>
      <point x="106" y="219"/>
      <point x="92" y="25"/>
      <point x="92" y="13" type="curve" smooth="yes"/>
    </contour>
  </outline>
</glyph>
<glyph name="cent" format="1">
  <advance width="407"/>
  <unicode hex="00A2"/>
  <outline>
    <contour>
      <point x="30" y="79"/>
      <point x="84" y="10"/>
      <point x="175" y="-6" type="curve" smooth="yes"/>
      <point x="186" y="-8"/>
      <point x="187" y="-6"/>
      <point x="187" y="-18" type="curve"/>
      <point x="182" y="-81"/>
      <point x="178" y="-125"/>
      <point x="178" y="-128" type="curve" smooth="yes"/>
      <point x="178" y="-130"/>
      <point x="193" y="-130"/>
      <point x="196" y="-130" type="curve" smooth="yes"/>
      <point x="197" y="-130"/>
      <point x="201" y="-85"/>
      <point x="207" y="-18" type="curve"/>
      <point x="208" y="-11"/>
      <point x="210" y="-10"/>
      <point x="215" y="-10" type="curve" smooth="yes"/>
      <point x="219" y="-10" type="line" smooth="yes"/>
      <point x="318" y="-10"/>
      <point x="377" y="50"/>
      <point x="377" y="56" type="curve" smooth="yes"/>
      <point x="377" y="62"/>
      <point x="374" y="64"/>
      <point x="370" y="64" type="curve" smooth="yes"/>
      <point x="362" y="64"/>
      <point x="318" y="34"/>
      <point x="249" y="34" type="curve" smooth="yes"/>
      <point x="239" y="34"/>
      <point x="229" y="35"/>
      <point x="220" y="37" type="curve"/>
      <point x="213" y="38"/>
      <point x="214" y="41"/>
      <point x="214" y="48" type="curve"/>
      <point x="240" y="360" type="line"/>
      <point x="241" y="367"/>
      <point x="242" y="371"/>
      <point x="247" y="371" type="curve" smooth="yes"/>
      <point x="248" y="371"/>
      <point x="250" y="371"/>
      <point x="252" y="370" type="curve"/>
      <point x="294" y="360"/>
      <point x="298" y="320"/>
      <point x="312" y="281" type="curve" smooth="yes"/>
      <point x="315" y="272"/>
      <point x="321" y="270"/>
      <point x="329" y="270" type="curve" smooth="yes"/>
      <point x="338" y="270"/>
      <point x="350" y="276"/>
      <point x="359" y="283" type="curve" smooth="yes"/>
      <point x="367" y="289"/>
      <point x="369" y="295"/>
      <point x="369" y="303" type="curve" smooth="yes"/>
      <point x="369" y="349"/>
      <point x="314" y="389"/>
      <point x="256" y="398" type="curve"/>
      <point x="246" y="400"/>
      <point x="244" y="399"/>
      <point x="244" y="405" type="curve" smooth="yes"/>
      <point x="244" y="411" type="line"/>
      <point x="251" y="490" type="line"/>
      <point x="251" y="493"/>
      <point x="233" y="493"/>
      <point x="231" y="493" type="curve" smooth="yes"/>
      <point x="230" y="493"/>
      <point x="229" y="491"/>
      <point x="229" y="487" type="curve"/>
      <point x="228" y="476"/>
      <point x="226" y="448"/>
      <point x="223" y="411" type="curve" smooth="yes"/>
      <point x="222" y="400"/>
      <point x="223" y="398"/>
      <point x="212" y="397" type="curve" smooth="yes"/>
      <point x="122" y="386"/>
      <point x="30" y="313"/>
      <point x="30" y="177" type="curve" smooth="yes"/>
    </contour>
    <contour>
      <point x="95" y="274"/>
      <point x="136" y="355"/>
      <point x="207" y="370" type="curve"/>
      <point x="211" y="371"/>
      <point x="213" y="371"/>
      <point x="215" y="371" type="curve" smooth="yes"/>
      <point x="218" y="371"/>
      <point x="218" y="369"/>
      <point x="218" y="366" type="curve" smooth="yes"/>
      <point x="218" y="360" type="line"/>
      <point x="193" y="52" type="line"/>
      <point x="193" y="46"/>
      <point x="192" y="45"/>
      <point x="190" y="45" type="curve" smooth="yes"/>
      <point x="188" y="45"/>
      <point x="186" y="46"/>
      <point x="182" y="48" type="curve" smooth="yes"/>
      <point x="124" y="76"/>
      <point x="95" y="139"/>
      <point x="95" y="202" type="curve" smooth="yes"/>
    </contour>
  </outline>
</glyph>
<glyph name="sterling" format="1">
  <advance width="510"/>
  <unicode hex="00A3"/>
  <outline>
    <contour>
      <point x="40" y="-73"/>
      <point x="55" y="-80"/>
      <point x="68" y="-80" type="curve" smooth="yes"/>
      <point x="103" y="-80"/>
      <point x="112" y="-44"/>
      <point x="121" y="-18" type="curve" smooth="yes"/>
      <point x="127" y="-2"/>
      <point x="129" y="6"/>
      <point x="140" y="6" type="curve" smooth="yes"/>
      <point x="159" y="6"/>
      <point x="318" y="-8"/>
      <point x="373" y="-8" type="curve" smooth="yes"/>
      <point x="427" y="-8"/>
      <point x="485" y="42"/>
      <point x="485" y="101" type="curve" smooth="yes"/>
      <point x="485" y="132"/>
      <point x="457" y="156"/>
      <point x="440" y="156" type="curve" smooth="yes"/>
      <point x="424" y="156"/>
      <point x="408" y="132"/>
      <point x="408" y="124" type="curve" smooth="yes"/>
      <point x="408" y="114"/>
      <point x="451" y="93"/>
      <point x="451" y="73" type="curve" smooth="yes"/>
      <point x="451" y="43"/>
      <point x="428" y="36"/>
      <point x="399" y="36" type="curve" smooth="yes"/>
      <point x="355" y="36"/>
      <point x="282" y="53"/>
      <point x="230" y="53" type="curve" smooth="yes"/>
      <point x="197" y="53"/>
      <point x="169" y="43"/>
      <point x="154" y="36" type="curve" smooth="yes"/>
      <point x="147" y="33"/>
      <point x="144" y="30"/>
      <point x="143" y="30" type="curve"/>
      <point x="143" y="31"/>
      <point x="144" y="35"/>
      <point x="147" y="42" type="curve"/>
      <point x="157" y="70"/>
      <point x="178" y="144"/>
      <point x="182" y="232" type="curve" smooth="yes"/>
      <point x="183" y="248"/>
      <point x="184" y="248"/>
      <point x="200" y="248" type="curve" smooth="yes"/>
      <point x="321" y="248" type="line" smooth="yes"/>
      <point x="329" y="248"/>
      <point x="330" y="249"/>
      <point x="330" y="260" type="curve" smooth="yes"/>
      <point x="330" y="271"/>
      <point x="328" y="272"/>
      <point x="321" y="272" type="curve" smooth="yes"/>
      <point x="200" y="272" type="line" smooth="yes"/>
      <point x="184" y="272"/>
      <point x="182" y="273"/>
      <point x="182" y="290" type="curve" smooth="yes"/>
      <point x="182" y="460" type="line" smooth="yes"/>
      <point x="182" y="554"/>
      <point x="187" y="642"/>
      <point x="274" y="642" type="curve" smooth="yes"/>
      <point x="328" y="642"/>
      <point x="340" y="588"/>
      <point x="340" y="554" type="curve" smooth="yes"/>
      <point x="340" y="548"/>
      <point x="349" y="546"/>
      <point x="356" y="546" type="curve" smooth="yes"/>
      <point x="379" y="546"/>
      <point x="396" y="565"/>
      <point x="396" y="587" type="curve" smooth="yes"/>
      <point x="396" y="637"/>
      <point x="341" y="665"/>
      <point x="281" y="665" type="curve" smooth="yes"/>
      <point x="194" y="665"/>
      <point x="114" y="601"/>
      <point x="114" y="500" type="curve" smooth="yes"/>
      <point x="114" y="389"/>
      <point x="121" y="290"/>
      <point x="121" y="281" type="curve" smooth="yes"/>
      <point x="121" y="273"/>
      <point x="119" y="272"/>
      <point x="105" y="272" type="curve" smooth="yes"/>
      <point x="55" y="272" type="line" smooth="yes"/>
      <point x="49" y="272"/>
      <point x="47" y="271"/>
      <point x="47" y="261" type="curve" smooth="yes"/>
      <point x="47" y="249"/>
      <point x="49" y="248"/>
      <point x="56" y="248" type="curve" smooth="yes"/>
      <point x="107" y="248" type="line" smooth="yes"/>
      <point x="122" y="248"/>
      <point x="122" y="248"/>
      <point x="123" y="232" type="curve" smooth="yes"/>
      <point x="125" y="196"/>
      <point x="126" y="162"/>
      <point x="126" y="128" type="curve" smooth="yes"/>
      <point x="126" y="90"/>
      <point x="124" y="58"/>
      <point x="122" y="23" type="curve" smooth="yes"/>
      <point x="121" y="12"/>
      <point x="121" y="13"/>
      <point x="108" y="4" type="curve" smooth="yes"/>
      <point x="78" y="-18"/>
      <point x="40" y="-33"/>
      <point x="40" y="-56" type="curve" smooth="yes"/>
    </contour>
  </outline>
</glyph>
<glyph name="currency" format="1">
  <advance width="494"/>
  <unicode hex="00A4"/>
  <outline>
    <contour>
      <point x="25" y="-4"/>
      <point x="35" y="-16"/>
      <point x="49" y="-16" type="curve" smooth="yes"/>
      <point x="63" y="-16"/>
      <point x="75" y="-2"/>
      <point x="77" y="0" type="curve" smooth="yes"/>
      <point x="139" y="61" type="line"/>
      <point x="168" y="39"/>
      <point x="205" y="26"/>
      <point x="244" y="26" type="curve" smooth="yes"/>
      <point x="284" y="26"/>
      <point x="321" y="40"/>
      <point x="350" y="62" type="curve"/>
      <point x="412" y="0" type="line" smooth="yes"/>
      <point x="420" y="-8"/>
      <point x="428" y="-17"/>
      <point x="439" y="-17" type="curve" smooth="yes"/>
      <point x="451" y="-17"/>
      <point x="464" y="-6"/>
      <point x="464" y="8" type="curve" smooth="yes"/>
      <point x="464" y="22"/>
      <point x="449" y="33"/>
      <point x="447" y="35" type="curve" smooth="yes"/>
      <point x="385" y="98" type="line"/>
      <point x="407" y="127"/>
      <point x="422" y="163"/>
      <point x="422" y="202" type="curve" smooth="yes"/>
      <point x="422" y="242"/>
      <point x="407" y="278"/>
      <point x="385" y="308" type="curve"/>
      <point x="447" y="371" type="line" smooth="yes"/>
      <point x="455" y="379"/>
      <point x="464" y="387"/>
      <point x="464" y="398" type="curve" smooth="yes"/>
      <point x="464" y="410"/>
      <point x="453" y="422"/>
      <point x="439" y="422" type="curve" smooth="yes"/>
      <point x="425" y="422"/>
      <point x="414" y="408"/>
      <point x="412" y="406" type="curve" smooth="yes"/>
      <point x="350" y="344" type="line"/>
      <point x="322" y="365"/>
      <point x="286" y="379"/>
      <point x="244" y="379" type="curve" smooth="yes"/>
      <point x="205" y="379"/>
      <point x="168" y="366"/>
      <point x="139" y="344" type="curve"/>
      <point x="77" y="406" type="line" smooth="yes"/>
      <point x="69" y="414"/>
      <point x="60" y="422"/>
      <point x="49" y="422" type="curve" smooth="yes"/>
      <point x="37" y="422"/>
      <point x="25" y="412"/>
      <point x="25" y="398" type="curve" smooth="yes"/>
      <point x="25" y="384"/>
      <point x="40" y="373"/>
      <point x="42" y="371" type="curve" smooth="yes"/>
      <point x="102" y="309" type="line"/>
      <point x="80" y="280"/>
      <point x="68" y="243"/>
      <point x="68" y="204" type="curve" smooth="yes"/>
      <point x="68" y="164"/>
      <point x="81" y="127"/>
      <point x="103" y="97" type="curve"/>
      <point x="42" y="35" type="line" smooth="yes"/>
      <point x="34" y="27"/>
      <point x="25" y="19"/>
      <point x="25" y="8" type="curve" smooth="yes"/>
    </contour>
    <contour>
      <point x="119" y="272"/>
      <point x="174" y="332"/>
      <point x="244" y="332" type="curve" smooth="yes"/>
      <point x="313" y="332"/>
      <point x="370" y="272"/>
      <point x="370" y="203" type="curve" smooth="yes"/>
      <point x="370" y="133"/>
      <point x="312" y="76"/>
      <point x="244" y="76" type="curve" smooth="yes"/>
      <point x="176" y="76"/>
      <point x="119" y="131"/>
      <point x="119" y="202" type="curve" smooth="yes"/>
    </contour>
  </outline>
</glyph>
<glyph name="brokenbar" format="1">
  <advance width="247"/>
  <unicode hex="00A6"/>
  <outline>
    <contour>
      <point x="100" y="-187" type="line" smooth="yes"/>
      <point x="100" y="-208"/>
      <point x="100" y="-209"/>
      <point x="114" y="-209" type="curve" smooth="yes"/>
      <point x="135" y="-209" type="line" smooth="yes"/>
      <point x="147" y="-209"/>
      <point x="147" y="-202"/>
      <point x="147" y="-187" type="curve" smooth="yes"/>
      <point x="147" y="189" type="line" smooth="yes"/>
      <point x="147" y="201"/>
      <point x="143" y="203"/>
      <point x="136" y="203" type="curve" smooth="yes"/>
      <point x="111" y="203" type="line" smooth="yes"/>
      <point x="104" y="203"/>
      <point x="100" y="201"/>
      <point x="100" y="189" type="curve" smooth="yes"/>
    </contour>
    <contour>
      <point x="100" y="379" type="line" smooth="yes"/>
      <point x="100" y="361"/>
      <point x="102" y="360"/>
      <point x="115" y="360" type="curve" smooth="yes"/>
      <point x="133" y="360" type="line" smooth="yes"/>
      <point x="144" y="360"/>
      <point x="147" y="362"/>
      <point x="147" y="379" type="curve" smooth="yes"/>
      <point x="147" y="745" type="line" smooth="yes"/>
      <point x="147" y="762"/>
      <point x="144" y="762"/>
      <point x="125" y="762" type="curve" smooth="yes"/>
      <point x="118" y="762" type="line" smooth="yes"/>
      <point x="106" y="762"/>
      <point x="100" y="761"/>
      <point x="100" y="746" type="curve" smooth="yes"/>
    </contour>
  </outline>
</glyph>
<glyph name="section" format="1">
  <advance width="381"/>
  <unicode hex="00A7"/>
  <outline>
    <contour>
      <point x="40" y="153"/>
      <point x="280" y="-54"/>
      <point x="280" y="-132" type="curve" smooth="yes"/>
      <point x="280" y="-169"/>
      <point x="247" y="-184"/>
      <point x="208" y="-184" type="curve" smooth="yes"/>
      <point x="180" y="-184"/>
      <point x="150" y="-177"/>
      <point x="136" y="-172" type="curve" smooth="yes"/>
      <point x="122" y="-167"/>
      <point x="109" y="-159"/>
      <point x="93" y="-159" type="curve" smooth="yes"/>
      <point x="78" y="-159"/>
      <point x="65" y="-169"/>
      <point x="65" y="-182" type="curve" smooth="yes"/>
      <point x="65" y="-221"/>
      <point x="124" y="-226"/>
      <point x="168" y="-226" type="curve" smooth="yes"/>
      <point x="260" y="-226"/>
      <point x="314" y="-175"/>
      <point x="314" y="-102" type="curve" smooth="yes"/>
      <point x="314" y="-69"/>
      <point x="287" y="-15"/>
      <point x="272" y="12" type="curve" smooth="yes"/>
      <point x="268" y="19"/>
      <point x="265" y="23"/>
      <point x="265" y="26" type="curve" smooth="yes"/>
      <point x="265" y="29"/>
      <point x="268" y="32"/>
      <point x="275" y="38" type="curve"/>
      <point x="297" y="55"/>
      <point x="341" y="93"/>
      <point x="341" y="132" type="curve" smooth="yes"/>
      <point x="341" y="314"/>
      <point x="98" y="506"/>
      <point x="98" y="594" type="curve" smooth="yes"/>
      <point x="98" y="633"/>
      <point x="131" y="636"/>
      <point x="156" y="636" type="curve" smooth="yes"/>
      <point x="200" y="636"/>
      <point x="221" y="605"/>
      <point x="265" y="605" type="curve" smooth="yes"/>
      <point x="285" y="605"/>
      <point x="302" y="611"/>
      <point x="302" y="632" type="curve" smooth="yes"/>
      <point x="302" y="666"/>
      <point x="232" y="677"/>
      <point x="188" y="677" type="curve" smooth="yes"/>
      <point x="111" y="677"/>
      <point x="63" y="624"/>
      <point x="63" y="556" type="curve" smooth="yes"/>
      <point x="63" y="514"/>
      <point x="89" y="474"/>
      <point x="107" y="446" type="curve"/>
      <point x="112" y="439"/>
      <point x="116" y="433"/>
      <point x="109" y="428" type="curve" smooth="yes"/>
      <point x="90" y="414"/>
      <point x="40" y="371"/>
      <point x="40" y="310" type="curve" smooth="yes"/>
    </contour>
    <contour>
      <point x="78" y="383"/>
      <point x="100" y="403"/>
      <point x="113" y="413" type="curve" smooth="yes"/>
      <point x="126" y="423"/>
      <point x="124" y="420"/>
      <point x="131" y="411" type="curve"/>
      <point x="164" y="365"/>
      <point x="302" y="189"/>
      <point x="302" y="102" type="curve" smooth="yes"/>
      <point x="302" y="85"/>
      <point x="283" y="65"/>
      <point x="269" y="52" type="curve" smooth="yes"/>
      <point x="261" y="45"/>
      <point x="258" y="42"/>
      <point x="255" y="42" type="curve" smooth="yes"/>
      <point x="252" y="42"/>
      <point x="250" y="45"/>
      <point x="245" y="52" type="curve" smooth="yes"/>
      <point x="209" y="100"/>
      <point x="78" y="283"/>
      <point x="78" y="357" type="curve" smooth="yes"/>
    </contour>
  </outline>
</glyph>
<glyph name="dieresis" format="1">
  <advance width="400"/>
  <unicode hex="00A8"/>
  <outline>
    <contour>
      <point x="69" y="505"/>
      <point x="89" y="492"/>
      <point x="110" y="492" type="curve" smooth="yes"/>
      <point x="138" y="492"/>
      <point x="171" y="514"/>
      <point x="171" y="548" type="curve" smooth="yes"/>
      <point x="171" y="577"/>
      <point x="150" y="588"/>
      <point x="129" y="588" type="curve" smooth="yes"/>
      <point x="105" y="588"/>
      <point x="69" y="569"/>
      <point x="69" y="533" type="curve" smooth="yes"/>
    </contour>
    <contour>
      <point x="229" y="505"/>
      <point x="249" y="492"/>
      <point x="270" y="492" type="curve" smooth="yes"/>
      <point x="298" y="492"/>
      <point x="331" y="514"/>
      <point x="331" y="548" type="curve" smooth="yes"/>
      <point x="331" y="577"/>
      <point x="310" y="588"/>
      <point x="289" y="588" type="curve" smooth="yes"/>
      <point x="265" y="588"/>
      <point x="229" y="569"/>
      <point x="229" y="533" type="curve" smooth="yes"/>
    </contour>
  </outline>
</glyph>
<glyph name="copyright" format="1">
  <advance width="843"/>
  <unicode hex="00A9"/>
  <outline>
    <contour>
      <point x="54" y="-18"/>
      <point x="213" y="-183"/>
      <point x="420" y="-183" type="curve" smooth="yes"/>
      <point x="627" y="-183"/>
      <point x="786" y="-18"/>
      <point x="786" y="189" type="curve" smooth="yes"/>
      <point x="786" y="398"/>
      <point x="627" y="561"/>
      <point x="420" y="561" type="curve" smooth="yes"/>
      <point x="213" y="561"/>
      <point x="54" y="396"/>
      <point x="54" y="189" type="curve" smooth="yes"/>
    </contour>
    <contour>
      <point x="88" y="377"/>
      <point x="232" y="529"/>
      <point x="420" y="529" type="curve" smooth="yes"/>
      <point x="608" y="529"/>
      <point x="752" y="377"/>
      <point x="752" y="189" type="curve" smooth="yes"/>
      <point x="752" y="1"/>
      <point x="608" y="-151"/>
      <point x="420" y="-151" type="curve" smooth="yes"/>
      <point x="232" y="-151"/>
      <point x="88" y="1"/>
      <point x="88" y="189" type="curve" smooth="yes"/>
    </contour>
    <contour>
      <point x="196" y="47"/>
      <point x="303" y="-27"/>
      <point x="421" y="-27" type="curve" smooth="yes"/>
      <point x="534" y="-27"/>
      <point x="592" y="28"/>
      <point x="592" y="34" type="curve" smooth="yes"/>
      <point x="592" y="36"/>
      <point x="581" y="53"/>
      <point x="580" y="53" type="curve" smooth="yes"/>
      <point x="576" y="53"/>
      <point x="536" y="3"/>
      <point x="439" y="3" type="curve" smooth="yes"/>
      <point x="340" y="3"/>
      <point x="261" y="91"/>
      <point x="261" y="199" type="curve" smooth="yes"/>
      <point x="261" y="315"/>
      <point x="327" y="401"/>
      <point x="420" y="401" type="curve" smooth="yes"/>
      <point x="505" y="401"/>
      <point x="568" y="333"/>
      <point x="568" y="324" type="curve" smooth="yes"/>
      <point x="568" y="318"/>
      <point x="565" y="271"/>
      <point x="565" y="268" type="curve" smooth="yes"/>
      <point x="565" y="262"/>
      <point x="571" y="261"/>
      <point x="583" y="261" type="curve" smooth="yes"/>
      <point x="591" y="261"/>
      <point x="593" y="263"/>
      <point x="593" y="271" type="curve" smooth="yes"/>
      <point x="593" y="304"/>
      <point x="595" y="382"/>
      <point x="595" y="394" type="curve" smooth="yes"/>
      <point x="595" y="402"/>
      <point x="593" y="403"/>
      <point x="583" y="403" type="curve" smooth="yes"/>
      <point x="573" y="403"/>
      <point x="568" y="401"/>
      <point x="568" y="394" type="curve" smooth="yes"/>
      <point x="568" y="377" type="line" smooth="yes"/>
      <point x="568" y="366"/>
      <point x="563" y="371"/>
      <point x="557" y="375" type="curve" smooth="yes"/>
      <point x="544" y="384"/>
      <point x="501" y="421"/>
      <point x="425" y="421" type="curve" smooth="yes"/>
      <point x="296" y="421"/>
      <point x="196" y="335"/>
      <point x="196" y="201" type="curve" smooth="yes"/>
    </contour>
  </outline>
</glyph>
<glyph name="logicalnot" format="1">
  <advance width="527"/>
  <unicode hex="00AC"/>
  <outline>
    <contour>
      <point x="31" y="196"/>
      <point x="31" y="188"/>
      <point x="50" y="188" type="curve" smooth="yes"/>
      <point x="426" y="188" type="line" smooth="yes"/>
      <point x="442" y="188"/>
      <point x="452" y="185"/>
      <point x="452" y="171" type="curve" smooth="yes"/>
      <point x="452" y="60" type="line" smooth="yes"/>
      <point x="452" y="40"/>
      <point x="462" y="40"/>
      <point x="481" y="40" type="curve" smooth="yes"/>
      <point x="494" y="40"/>
      <point x="497" y="45"/>
      <point x="497" y="55" type="curve" smooth="yes"/>
      <point x="497" y="213" type="line" smooth="yes"/>
      <point x="497" y="230"/>
      <point x="494" y="232"/>
      <point x="477" y="232" type="curve" smooth="yes"/>
      <point x="50" y="232" type="line" smooth="yes"/>
      <point x="41" y="232"/>
      <point x="31" y="232"/>
      <point x="31" y="215" type="curve" smooth="yes"/>
    </contour>
  </outline>
</glyph>
<glyph name="macron" format="1">
  <advance width="400"/>
  <unicode hex="00AF"/>
  <outline>
    <contour>
      <point x="98" y="518" type="line" smooth="yes"/>
      <point x="98" y="509"/>
      <point x="98" y="509"/>
      <point x="107" y="509" type="curve" smooth="yes"/>
      <point x="294" y="509" type="line" smooth="yes"/>
      <point x="302" y="509"/>
      <point x="302" y="509"/>
      <point x="302" y="517" type="curve" smooth="yes"/>
      <point x="302" y="542" type="line" smooth="yes"/>
      <point x="302" y="549"/>
      <point x="301" y="549"/>
      <point x="294" y="549" type="curve" smooth="yes"/>
      <point x="107" y="549" type="line" smooth="yes"/>
      <point x="99" y="549"/>
      <point x="98" y="549"/>
      <point x="98" y="541" type="curve" smooth="yes"/>
    </contour>
  </outline>
</glyph>
<glyph name="degree" format="1">
  <advance width="256"/>
  <unicode hex="00B0"/>
  <outline>
    <contour>
      <point x="40" y="487"/>
      <point x="80" y="447"/>
      <point x="128" y="447" type="curve" smooth="yes"/>
      <point x="176" y="447"/>
      <point x="216" y="487"/>
      <point x="216" y="535" type="curve" smooth="yes"/>
      <point x="216" y="583"/>
      <point x="176" y="623"/>
      <point x="128" y="623" type="curve" smooth="yes"/>
      <point x="80" y="623"/>
      <point x="40" y="583"/>
      <point x="40" y="535" type="curve" smooth="yes"/>
    </contour>
    <contour>
      <point x="71" y="567"/>
      <point x="96" y="592"/>
      <point x="128" y="592" type="curve" smooth="yes"/>
      <point x="160" y="592"/>
      <point x="185" y="567"/>
      <point x="185" y="535" type="curve" smooth="yes"/>
      <point x="185" y="503"/>
      <point x="160" y="478"/>
      <point x="128" y="478" type="curve" smooth="yes"/>
      <point x="96" y="478"/>
      <point x="71" y="503"/>
      <point x="71" y="535" type="curve" smooth="yes"/>
    </contour>
  </outline>
</glyph>
<glyph name="acute" format="1">
  <advance width="400"/>
  <unicode hex="00B4"/>
  <outline>
    <contour>
      <point x="185" y="450"/>
      <point x="186" y="449"/>
      <point x="189" y="449" type="curve" smooth="yes"/>
      <point x="205" y="449" type="line" smooth="yes"/>
      <point x="208" y="449"/>
      <point x="210" y="451"/>
      <point x="213" y="455" type="curve" smooth="yes"/>
      <point x="295" y="562" type="line" smooth="yes"/>
      <point x="300" y="569"/>
      <point x="302" y="575"/>
      <point x="302" y="582" type="curve" smooth="yes"/>
      <point x="302" y="598"/>
      <point x="289" y="612"/>
      <point x="266" y="612" type="curve" smooth="yes"/>
      <point x="252" y="612"/>
      <point x="242" y="603"/>
      <point x="236" y="587" type="curve" smooth="yes"/>
      <point x="187" y="457" type="line"/>
      <point x="186" y="455"/>
      <point x="185" y="452"/>
      <point x="185" y="451" type="curve" smooth="yes"/>
    </contour>
  </outline>
</glyph>
<glyph name="paragraph" format="1">
  <advance width="492"/>
  <unicode hex="00B6"/>
  <outline>
    <contour>
      <point x="40" y="221"/>
      <point x="210" y="154"/>
      <point x="280" y="154" type="curve" smooth="yes"/>
      <point x="284" y="154"/>
      <point x="285" y="156"/>
      <point x="285" y="162" type="curve" smooth="yes"/>
      <point x="285" y="630" type="line" smooth="yes"/>
      <point x="285" y="640"/>
      <point x="284" y="644"/>
      <point x="273" y="644" type="curve" smooth="yes"/>
      <point x="186" y="644"/>
      <point x="40" y="583"/>
      <point x="40" y="417" type="curve" smooth="yes"/>
    </contour>
    <contour>
      <point x="280" y="-223" type="line" smooth="yes"/>
      <point x="280" y="-228"/>
      <point x="281" y="-231"/>
      <point x="290" y="-231" type="curve" smooth="yes"/>
      <point x="372" y="-231" type="line" smooth="yes"/>
      <point x="385" y="-231"/>
      <point x="386" y="-230"/>
      <point x="386" y="-222" type="curve" smooth="yes"/>
      <point x="386" y="610" type="line" smooth="yes"/>
      <point x="386" y="619"/>
      <point x="387" y="620"/>
      <point x="394" y="620" type="curve" smooth="yes"/>
      <point x="440" y="620" type="line" smooth="yes"/>
      <point x="451" y="620"/>
      <point x="452" y="622"/>
      <point x="452" y="629" type="curve" smooth="yes"/>
      <point x="452" y="643" type="line" smooth="yes"/>
      <point x="452" y="652"/>
      <point x="451" y="654"/>
      <point x="440" y="654" type="curve" smooth="yes"/>
      <point x="370" y="654" type="line" smooth="yes"/>
      <point x="362" y="654"/>
      <point x="359" y="653"/>
      <point x="359" y="642" type="curve" smooth="yes"/>
      <point x="359" y="-189" type="line" smooth="yes"/>
      <point x="359" y="-196"/>
      <point x="358" y="-197"/>
      <point x="348" y="-197" type="curve" smooth="yes"/>
      <point x="290" y="-197" type="line" smooth="yes"/>
      <point x="281" y="-197"/>
      <point x="280" y="-200"/>
      <point x="280" y="-205" type="curve" smooth="yes"/>
    </contour>
  </outline>
</glyph>
<glyph name="periodcentered" format="1">
  <advance width="147"/>
  <unicode hex="00B7"/>
  <outline>
    <contour>
      <point x="25" y="305"/>
      <point x="45" y="292"/>
      <point x="66" y="292" type="curve" smooth="yes"/>
      <point x="94" y="292"/>
      <point x="127" y="314"/>
      <point x="127" y="348" type="curve" smooth="yes"/>
      <point x="127" y="377"/>
      <point x="106" y="388"/>
      <point x="85" y="388" type="curve" smooth="yes"/>
      <point x="61" y="388"/>
      <point x="25" y="369"/>
      <point x="25" y="333" type="curve" smooth="yes"/>
    </contour>
  </outline>
</glyph>
<glyph name="cedilla" format="1">
  <advance width="400"/>
  <unicode hex="00B8"/>
  <outline>
    <contour>
      <point x="117" y="-204"/>
      <point x="150" y="-228"/>
      <point x="200" y="-228" type="curve" smooth="yes"/>
      <point x="266" y="-228"/>
      <point x="306" y="-179"/>
      <point x="306" y="-136" type="curve" smooth="yes"/>
      <point x="306" y="-105"/>
      <point x="278" y="-68"/>
      <point x="221" y="-68" type="curve" smooth="yes"/>
      <point x="202" y="-68"/>
      <point x="187" y="-74"/>
      <point x="185" y="-74" type="curve" smooth="yes"/>
      <point x="182" y="-74"/>
      <point x="184" y="-69"/>
      <point x="185" y="-65" type="curve"/>
      <point x="209" y="0" type="line"/>
      <point x="192" y="0" type="line"/>
      <point x="182" y="-25"/>
      <point x="151" y="-105"/>
      <point x="151" y="-107" type="curve" smooth="yes"/>
      <point x="151" y="-109"/>
      <point x="157" y="-112"/>
      <point x="159" y="-112" type="curve" smooth="yes"/>
      <point x="162" y="-112"/>
      <point x="177" y="-103"/>
      <point x="196" y="-103" type="curve" smooth="yes"/>
      <point x="238" y="-103"/>
      <point x="251" y="-123"/>
      <point x="251" y="-148" type="curve" smooth="yes"/>
      <point x="251" y="-187"/>
      <point x="231" y="-204"/>
      <point x="185" y="-204" type="curve" smooth="yes"/>
      <point x="152" y="-204"/>
      <point x="128" y="-189"/>
      <point x="125" y="-189" type="curve" smooth="yes"/>
      <point x="117" y="-189"/>
      <point x="117" y="-197"/>
      <point x="117" y="-200" type="curve" smooth="yes"/>
    </contour>
  </outline>
</glyph>
<glyph name="onequarter" format="1">
  <advance width="774"/>
  <unicode hex="00BC"/>
  <outline>
    <contour>
      <point x="449" y="131"/>
      <point x="462" y="131"/>
      <point x="466" y="131" type="curve" smooth="yes"/>
      <point x="619" y="131" type="line" smooth="yes"/>
      <point x="626" y="131"/>
      <point x="629" y="130"/>
      <point x="629" y="123" type="curve" smooth="yes"/>
      <point x="626" y="-2" type="line" smooth="yes"/>
      <point x="626" y="-5"/>
      <point x="626" y="-10"/>
      <point x="632" y="-10" type="curve"/>
      <point x="675" y="-6" type="line"/>
      <point x="678" y="-6"/>
      <point x="681" y="-1"/>
      <point x="681" y="2" type="curve" smooth="yes"/>
      <point x="681" y="125" type="line" smooth="yes"/>
      <point x="681" y="129"/>
      <point x="681" y="131"/>
      <point x="687" y="131" type="curve" smooth="yes"/>
      <point x="733" y="131" type="line" smooth="yes"/>
      <point x="741" y="131"/>
      <point x="745" y="134"/>
      <point x="745" y="141" type="curve" smooth="yes"/>
      <point x="745" y="163" type="line" smooth="yes"/>
      <point x="745" y="169"/>
      <point x="744" y="173"/>
      <point x="738" y="173" type="curve" smooth="yes"/>
      <point x="687" y="173" type="line" smooth="yes"/>
      <point x="680" y="173"/>
      <point x="680" y="173"/>
      <point x="680" y="180" type="curve" smooth="yes"/>
      <point x="680" y="392" type="line" smooth="yes"/>
      <point x="680" y="403"/>
      <point x="675" y="414"/>
      <point x="667" y="414" type="curve" smooth="yes"/>
      <point x="659" y="414"/>
      <point x="653" y="404"/>
      <point x="636" y="389" type="curve"/>
      <point x="629" y="384"/>
      <point x="618" y="377"/>
      <point x="609" y="367" type="curve" smooth="yes"/>
      <point x="557" y="311"/>
      <point x="488" y="226"/>
      <point x="460" y="177" type="curve" smooth="yes"/>
      <point x="449" y="158"/>
      <point x="449" y="145"/>
      <point x="449" y="138" type="curve" smooth="yes"/>
    </contour>
    <contour>
      <point x="487" y="173" type="line"/>
      <point x="509" y="214"/>
      <point x="607" y="333"/>
      <point x="629" y="354" type="curve"/>
      <point x="629" y="181" type="line" smooth="yes"/>
      <point x="629" y="174"/>
      <point x="628" y="173"/>
      <point x="618" y="173" type="curve" smooth="yes"/>
    </contour>
    <contour>
      <point x="200" y="-11"/>
      <point x="204" y="-13"/>
      <point x="218" y="-13" type="curve" smooth="yes"/>
      <point x="234" y="-13"/>
      <point x="235" y="-10"/>
      <point x="241" y="-1" type="curve" smooth="yes"/>
      <point x="651" y="658" type="line"/>
      <point x="652" y="660"/>
      <point x="652" y="661"/>
      <point x="652" y="662" type="curve" smooth="yes"/>
      <point x="652" y="666"/>
      <point x="647" y="668"/>
      <point x="635" y="668" type="curve" smooth="yes"/>
      <point x="617" y="668"/>
      <point x="617" y="665"/>
      <point x="612" y="658" type="curve"/>
      <point x="204" y="1" type="line"/>
      <point x="202" y="-3"/>
      <point x="200" y="-6"/>
      <point x="200" y="-8" type="curve" smooth="yes"/>
    </contour>
    <contour>
      <point x="95" y="250"/>
      <point x="97" y="248"/>
      <point x="106" y="248" type="curve" smooth="yes"/>
      <point x="123" y="248"/>
      <point x="153" y="250"/>
      <point x="200" y="250" type="curve" smooth="yes"/>
      <point x="242" y="250"/>
      <point x="261" y="248"/>
      <point x="271" y="248" type="curve" smooth="yes"/>
      <point x="279" y="248"/>
      <point x="279" y="254"/>
      <point x="279" y="264" type="curve" smooth="yes"/>
      <point x="279" y="272"/>
      <point x="279" y="274"/>
      <point x="272" y="274" type="curve" smooth="yes"/>
      <point x="228" y="274" type="line"/>
      <point x="227" y="275"/>
      <point x="227" y="286"/>
      <point x="227" y="296" type="curve" smooth="yes"/>
      <point x="227" y="415"/>
      <point x="228" y="514"/>
      <point x="228" y="642" type="curve" smooth="yes"/>
      <point x="228" y="648"/>
      <point x="228" y="656"/>
      <point x="221" y="656" type="curve" smooth="yes"/>
      <point x="217" y="656"/>
      <point x="206" y="650"/>
      <point x="106" y="645" type="curve"/>
      <point x="100" y="645"/>
      <point x="95" y="646"/>
      <point x="95" y="639" type="curve" smooth="yes"/>
      <point x="95" y="627" type="line" smooth="yes"/>
      <point x="95" y="626"/>
      <point x="96" y="621"/>
      <point x="103" y="621" type="curve" smooth="yes"/>
      <point x="107" y="621"/>
      <point x="161" y="624"/>
      <point x="163" y="624" type="curve" smooth="yes"/>
      <point x="166" y="624"/>
      <point x="167" y="624"/>
      <point x="168" y="616" type="curve"/>
      <point x="170" y="580"/>
      <point x="170" y="474"/>
      <point x="170" y="399" type="curve" smooth="yes"/>
      <point x="170" y="324" type="line" smooth="yes"/>
      <point x="170" y="313"/>
      <point x="170" y="283"/>
      <point x="169" y="274" type="curve"/>
      <point x="109" y="274" type="line" smooth="yes"/>
      <point x="98" y="274"/>
      <point x="95" y="273"/>
      <point x="95" y="264" type="curve" smooth="yes"/>
    </contour>
  </outline>
</glyph>
<glyph name="onehalf" format="1">
  <advance width="844"/>
  <unicode hex="00BD"/>
  <outline>
    <contour>
      <point x="524" y="315"/>
      <point x="532" y="308"/>
      <point x="537" y="308" type="curve" smooth="yes"/>
      <point x="544" y="308"/>
      <point x="579" y="369"/>
      <point x="644" y="369" type="curve" smooth="yes"/>
      <point x="693" y="369"/>
      <point x="718" y="327"/>
      <point x="718" y="286" type="curve" smooth="yes"/>
      <point x="718" y="190"/>
      <point x="615" y="112"/>
      <point x="578" y="80" type="curve"/>
      <point x="574" y="77"/>
      <point x="534" y="16"/>
      <point x="534" y="9" type="curve" smooth="yes"/>
      <point x="534" y="3"/>
      <point x="539" y="0"/>
      <point x="547" y="0" type="curve" smooth="yes"/>
      <point x="777" y="0" type="line" smooth="yes"/>
      <point x="784" y="0"/>
      <point x="788" y="2"/>
      <point x="789" y="6" type="curve"/>
      <point x="792" y="32"/>
      <point x="802" y="98"/>
      <point x="802" y="102" type="curve" smooth="yes"/>
      <point x="802" y="105"/>
      <point x="796" y="107"/>
      <point x="791" y="107" type="curve"/>
      <point x="783" y="108"/>
      <point x="781" y="107"/>
      <point x="781" y="102" type="curve"/>
      <point x="780" y="92"/>
      <point x="776" y="57"/>
      <point x="774" y="50" type="curve"/>
      <point x="589" y="50" type="line"/>
      <point x="592" y="56"/>
      <point x="605" y="69"/>
      <point x="613" y="75" type="curve" smooth="yes"/>
      <point x="654" y="105"/>
      <point x="773" y="196"/>
      <point x="773" y="294" type="curve" smooth="yes"/>
      <point x="773" y="341"/>
      <point x="740" y="411"/>
      <point x="657" y="411" type="curve" smooth="yes"/>
      <point x="580" y="411"/>
      <point x="524" y="332"/>
      <point x="524" y="321" type="curve" smooth="yes"/>
    </contour>
    <contour>
      <point x="200" y="-11"/>
      <point x="204" y="-13"/>
      <point x="218" y="-13" type="curve" smooth="yes"/>
      <point x="234" y="-13"/>
      <point x="235" y="-10"/>
      <point x="241" y="-1" type="curve" smooth="yes"/>
      <point x="651" y="658" type="line"/>
      <point x="652" y="660"/>
      <point x="652" y="661"/>
      <point x="652" y="662" type="curve" smooth="yes"/>
      <point x="652" y="666"/>
      <point x="647" y="668"/>
      <point x="635" y="668" type="curve" smooth="yes"/>
      <point x="617" y="668"/>
      <point x="617" y="665"/>
      <point x="612" y="658" type="curve"/>
      <point x="204" y="1" type="line"/>
      <point x="202" y="-3"/>
      <point x="200" y="-6"/>
      <point x="200" y="-8" type="curve" smooth="yes"/>
    </contour>
    <contour>
      <point x="95" y="250"/>
      <point x="97" y="248"/>
      <point x="106" y="248" type="curve" smooth="yes"/>
      <point x="123" y="248"/>
      <point x="153" y="250"/>
      <point x="200" y="250" type="curve" smooth="yes"/>
      <point x="242" y="250"/>
      <point x="261" y="248"/>
      <point x="271" y="248" type="curve" smooth="yes"/>
      <point x="279" y="248"/>
      <point x="279" y="254"/>
      <point x="279" y="264" type="curve" smooth="yes"/>
      <point x="279" y="272"/>
      <point x="279" y="274"/>
      <point x="272" y="274" type="curve" smooth="yes"/>
      <point x="228" y="274" type="line"/>
      <point x="227" y="275"/>
      <point x="227" y="286"/>
      <point x="227" y="296" type="curve" smooth="yes"/>
      <point x="227" y="415"/>
      <point x="228" y="514"/>
      <point x="228" y="642" type="curve" smooth="yes"/>
      <point x="228" y="648"/>
      <point x="228" y="656"/>
      <point x="221" y="656" type="curve" smooth="yes"/>
      <point x="217" y="656"/>
      <point x="206" y="650"/>
      <point x="106" y="645" type="curve"/>
      <point x="100" y="645"/>
      <point x="95" y="646"/>
      <point x="95" y="639" type="curve" smooth="yes"/>
      <point x="95" y="627" type="line" smooth="yes"/>
      <point x="95" y="626"/>
      <point x="96" y="621"/>
      <point x="103" y="621" type="curve" smooth="yes"/>
      <point x="107" y="621"/>
      <point x="161" y="624"/>
      <point x="163" y="624" type="curve" smooth="yes"/>
      <point x="166" y="624"/>
      <point x="167" y="624"/>
      <point x="168" y="616" type="curve"/>
      <point x="170" y="580"/>
      <point x="170" y="474"/>
      <point x="170" y="399" type="curve" smooth="yes"/>
      <point x="170" y="324" type="line" smooth="yes"/>
      <point x="170" y="313"/>
      <point x="170" y="283"/>
      <point x="169" y="274" type="curve"/>
      <point x="109" y="274" type="line" smooth="yes"/>
      <point x="98" y="274"/>
      <point x="95" y="273"/>
      <point x="95" y="264" type="curve" smooth="yes"/>
    </contour>
  </outline>
</glyph>
<glyph name="threequarters" format="1">
  <advance width="774"/>
  <unicode hex="00BE"/>
  <outline>
    <contour>
      <point x="449" y="131"/>
      <point x="462" y="131"/>
      <point x="466" y="131" type="curve" smooth="yes"/>
      <point x="619" y="131" type="line" smooth="yes"/>
      <point x="626" y="131"/>
      <point x="629" y="130"/>
      <point x="629" y="123" type="curve" smooth="yes"/>
      <point x="626" y="-2" type="line" smooth="yes"/>
      <point x="626" y="-5"/>
      <point x="626" y="-10"/>
      <point x="632" y="-10" type="curve"/>
      <point x="675" y="-6" type="line"/>
      <point x="678" y="-6"/>
      <point x="681" y="-1"/>
      <point x="681" y="2" type="curve" smooth="yes"/>
      <point x="681" y="125" type="line" smooth="yes"/>
      <point x="681" y="129"/>
      <point x="681" y="131"/>
      <point x="687" y="131" type="curve" smooth="yes"/>
      <point x="733" y="131" type="line" smooth="yes"/>
      <point x="741" y="131"/>
      <point x="745" y="134"/>
      <point x="745" y="141" type="curve" smooth="yes"/>
      <point x="745" y="163" type="line" smooth="yes"/>
      <point x="745" y="169"/>
      <point x="744" y="173"/>
      <point x="738" y="173" type="curve" smooth="yes"/>
      <point x="687" y="173" type="line" smooth="yes"/>
      <point x="680" y="173"/>
      <point x="680" y="173"/>
      <point x="680" y="180" type="curve" smooth="yes"/>
      <point x="680" y="392" type="line" smooth="yes"/>
      <point x="680" y="403"/>
      <point x="675" y="414"/>
      <point x="667" y="414" type="curve" smooth="yes"/>
      <point x="659" y="414"/>
      <point x="653" y="404"/>
      <point x="636" y="389" type="curve"/>
      <point x="629" y="384"/>
      <point x="618" y="377"/>
      <point x="609" y="367" type="curve" smooth="yes"/>
      <point x="557" y="311"/>
      <point x="488" y="226"/>
      <point x="460" y="177" type="curve" smooth="yes"/>
      <point x="449" y="158"/>
      <point x="449" y="145"/>
      <point x="449" y="138" type="curve" smooth="yes"/>
    </contour>
    <contour>
      <point x="487" y="173" type="line"/>
      <point x="509" y="214"/>
      <point x="607" y="333"/>
      <point x="629" y="354" type="curve"/>
      <point x="629" y="181" type="line" smooth="yes"/>
      <point x="629" y="174"/>
      <point x="628" y="173"/>
      <point x="618" y="173" type="curve" smooth="yes"/>
    </contour>
    <contour>
      <point x="200" y="-11"/>
      <point x="204" y="-13"/>
      <point x="218" y="-13" type="curve" smooth="yes"/>
      <point x="234" y="-13"/>
      <point x="235" y="-10"/>
      <point x="241" y="-1" type="curve" smooth="yes"/>
      <point x="651" y="658" type="line"/>
      <point x="652" y="660"/>
      <point x="652" y="661"/>
      <point x="652" y="662" type="curve" smooth="yes"/>
      <point x="652" y="666"/>
      <point x="647" y="668"/>
      <point x="635" y="668" type="curve" smooth="yes"/>
      <point x="617" y="668"/>
      <point x="617" y="665"/>
      <point x="612" y="658" type="curve"/>
      <point x="204" y="1" type="line"/>
      <point x="202" y="-3"/>
      <point x="200" y="-6"/>
      <point x="200" y="-8" type="curve" smooth="yes"/>
    </contour>
    <contour>
      <point x="65" y="249"/>
      <point x="130" y="242"/>
      <point x="165" y="242" type="curve" smooth="yes"/>
      <point x="234" y="242"/>
      <point x="315" y="292"/>
      <point x="315" y="370" type="curve" smooth="yes"/>
      <point x="315" y="433"/>
      <point x="254" y="467"/>
      <point x="180" y="467" type="curve"/>
      <point x="229" y="486"/>
      <point x="286" y="511"/>
      <point x="286" y="572" type="curve" smooth="yes"/>
      <point x="286" y="623"/>
      <point x="239" y="661"/>
      <point x="175" y="661" type="curve" smooth="yes"/>
      <point x="116" y="661"/>
      <point x="69" y="618"/>
      <point x="69" y="608" type="curve" smooth="yes"/>
      <point x="69" y="602"/>
      <point x="76" y="595"/>
      <point x="82" y="595" type="curve" smooth="yes"/>
      <point x="91" y="595"/>
      <point x="113" y="628"/>
      <point x="166" y="628" type="curve" smooth="yes"/>
      <point x="202" y="628"/>
      <point x="229" y="607"/>
      <point x="229" y="562" type="curve" smooth="yes"/>
      <point x="229" y="501"/>
      <point x="197" y="482"/>
      <point x="117" y="465" type="curve" smooth="yes"/>
      <point x="112" y="464"/>
      <point x="100" y="462"/>
      <point x="100" y="452" type="curve" smooth="yes"/>
      <point x="100" y="446"/>
      <point x="101" y="431"/>
      <point x="113" y="431" type="curve" smooth="yes"/>
      <point x="121" y="431"/>
      <point x="165" y="435"/>
      <point x="186" y="435" type="curve" smooth="yes"/>
      <point x="242" y="435"/>
      <point x="260" y="403"/>
      <point x="260" y="356" type="curve" smooth="yes"/>
      <point x="260" y="305"/>
      <point x="222" y="266"/>
      <point x="180" y="266" type="curve" smooth="yes"/>
      <point x="163" y="266"/>
      <point x="146" y="282"/>
      <point x="126" y="290" type="curve" smooth="yes"/>
      <point x="116" y="294"/>
      <point x="108" y="297"/>
      <point x="97" y="297" type="curve" smooth="yes"/>
      <point x="79" y="297"/>
      <point x="65" y="287"/>
      <point x="65" y="268" type="curve" smooth="yes"/>
    </contour>
  </outline>
</glyph>
<glyph name="questiondown" format="1">
  <advance width="364"/>
  <unicode hex="00BF"/>
  <outline>
    <contour>
      <point x="30" y="56"/>
      <point x="203" y="29"/>
      <point x="276" y="17" type="curve" smooth="yes"/>
      <point x="286" y="15"/>
      <point x="283" y="-8"/>
      <point x="295" y="-8" type="curve" smooth="yes"/>
      <point x="302" y="-8"/>
      <point x="304" y="2"/>
      <point x="304" y="9" type="curve" smooth="yes"/>
      <point x="304" y="54" type="line" smooth="yes"/>
      <point x="304" y="68"/>
      <point x="295" y="67"/>
      <point x="281" y="69" type="curve" smooth="yes"/>
      <point x="125" y="89"/>
      <point x="53" y="163"/>
      <point x="53" y="255" type="curve" smooth="yes"/>
      <point x="53" y="288"/>
      <point x="59" y="343"/>
      <point x="140" y="343" type="curve" smooth="yes"/>
      <point x="197" y="343" type="line" smooth="yes"/>
      <point x="215" y="343"/>
      <point x="224" y="344"/>
      <point x="225" y="361" type="curve" smooth="yes"/>
      <point x="226" y="375"/>
      <point x="227" y="495"/>
      <point x="227" y="508" type="curve" smooth="yes"/>
      <point x="227" y="525"/>
      <point x="225" y="530"/>
      <point x="211" y="530" type="curve" smooth="yes"/>
      <point x="204" y="530"/>
      <point x="199" y="527"/>
      <point x="199" y="521" type="curve"/>
      <point x="197" y="489"/>
      <point x="193" y="463"/>
      <point x="191" y="431" type="curve"/>
      <point x="190" y="421"/>
      <point x="187" y="414"/>
      <point x="165" y="414" type="curve" smooth="yes"/>
      <point x="53" y="413"/>
      <point x="30" y="331"/>
      <point x="30" y="240" type="curve" smooth="yes"/>
    </contour>
    <contour>
      <point x="167" y="584"/>
      <point x="206" y="562"/>
      <point x="224" y="562" type="curve" smooth="yes"/>
      <point x="240" y="562"/>
      <point x="268" y="600"/>
      <point x="268" y="621" type="curve" smooth="yes"/>
      <point x="268" y="636"/>
      <point x="237" y="667"/>
      <point x="209" y="667" type="curve" smooth="yes"/>
      <point x="199" y="667"/>
      <point x="167" y="640"/>
      <point x="167" y="609" type="curve" smooth="yes"/>
    </contour>
  </outline>
</glyph>
<glyph name="AE" format="1">
  <advance width="973"/>
  <unicode hex="00C6"/>
  <outline>
    <contour>
      <point x="20" y="-2"/>
      <point x="21" y="-3"/>
      <point x="34" y="-3" type="curve" smooth="yes"/>
      <point x="57" y="-3"/>
      <point x="75" y="0"/>
      <point x="105" y="0" type="curve" smooth="yes"/>
      <point x="135" y="0"/>
      <point x="169" y="-3"/>
      <point x="192" y="-3" type="curve" smooth="yes"/>
      <point x="202" y="-3"/>
      <point x="203" y="-1"/>
      <point x="203" y="14" type="curve" smooth="yes"/>
      <point x="203" y="26"/>
      <point x="203" y="27"/>
      <point x="192" y="27" type="curve" smooth="yes"/>
      <point x="128" y="27" type="line" smooth="yes"/>
      <point x="121" y="27"/>
      <point x="119" y="25"/>
      <point x="123" y="33" type="curve" smooth="yes"/>
      <point x="141" y="71"/>
      <point x="256" y="275"/>
      <point x="262" y="275" type="curve" smooth="yes"/>
      <point x="463" y="275" type="line" smooth="yes"/>
      <point x="480" y="275"/>
      <point x="493" y="275"/>
      <point x="493" y="260" type="curve" smooth="yes"/>
      <point x="493" y="102" type="line" smooth="yes"/>
      <point x="493" y="47"/>
      <point x="492" y="27"/>
      <point x="486" y="27" type="curve" smooth="yes"/>
      <point x="425" y="27" type="line" smooth="yes"/>
      <point x="409" y="27"/>
      <point x="408" y="27"/>
      <point x="408" y="15" type="curve" smooth="yes"/>
      <point x="408" y="-2"/>
      <point x="408" y="-3"/>
      <point x="421" y="-3" type="curve" smooth="yes"/>
      <point x="444" y="-3"/>
      <point x="513" y="0"/>
      <point x="543" y="0" type="curve" smooth="yes"/>
      <point x="573" y="0"/>
      <point x="890" y="-3"/>
      <point x="913" y="-3" type="curve" smooth="yes"/>
      <point x="923" y="-3"/>
      <point x="935" y="-1"/>
      <point x="935" y="8" type="curve" smooth="yes"/>
      <point x="935" y="38"/>
      <point x="938" y="96"/>
      <point x="938" y="146" type="curve" smooth="yes"/>
      <point x="938" y="153"/>
      <point x="930" y="155"/>
      <point x="921" y="155" type="curve" smooth="yes"/>
      <point x="913" y="155"/>
      <point x="907" y="153"/>
      <point x="907" y="147" type="curve" smooth="yes"/>
      <point x="906" y="108"/>
      <point x="906" y="85"/>
      <point x="904" y="60" type="curve" smooth="yes"/>
      <point x="902" y="37"/>
      <point x="901" y="37"/>
      <point x="885" y="37" type="curve" smooth="yes"/>
      <point x="881" y="37"/>
      <point x="682" y="34"/>
      <point x="584" y="34" type="curve" smooth="yes"/>
      <point x="578" y="34"/>
      <point x="575" y="167"/>
      <point x="572" y="310" type="curve"/>
      <point x="572" y="325"/>
      <point x="572" y="325"/>
      <point x="588" y="325" type="curve" smooth="yes"/>
      <point x="751" y="325" type="line" smooth="yes"/>
      <point x="805" y="325"/>
      <point x="806" y="315"/>
      <point x="806" y="305" type="curve" smooth="yes"/>
      <point x="806" y="259" type="line" smooth="yes"/>
      <point x="806" y="253"/>
      <point x="816" y="250"/>
      <point x="824" y="250" type="curve" smooth="yes"/>
      <point x="831" y="250"/>
      <point x="837" y="253"/>
      <point x="837" y="258" type="curve" smooth="yes"/>
      <point x="837" y="271"/>
      <point x="835" y="305"/>
      <point x="835" y="341" type="curve" smooth="yes"/>
      <point x="835" y="377"/>
      <point x="837" y="410"/>
      <point x="837" y="419" type="curve" smooth="yes"/>
      <point x="837" y="424"/>
      <point x="830" y="427"/>
      <point x="823" y="427" type="curve" smooth="yes"/>
      <point x="815" y="427"/>
      <point x="806" y="424"/>
      <point x="806" y="418" type="curve" smooth="yes"/>
      <point x="806" y="368" type="line" smooth="yes"/>
      <point x="806" y="352"/>
      <point x="769" y="352"/>
      <point x="751" y="352" type="curve" smooth="yes"/>
      <point x="584" y="352" type="line" smooth="yes"/>
      <point x="572" y="352"/>
      <point x="572" y="355"/>
      <point x="572" y="368" type="curve"/>
      <point x="571" y="418"/>
      <point x="570" y="467"/>
      <point x="570" y="510" type="curve" smooth="yes"/>
      <point x="570" y="588"/>
      <point x="571" y="638"/>
      <point x="577" y="638" type="curve" smooth="yes"/>
      <point x="688" y="638"/>
      <point x="849" y="635"/>
      <point x="849" y="631" type="curve" smooth="yes"/>
      <point x="849" y="625"/>
      <point x="846" y="558"/>
      <point x="846" y="553" type="curve" smooth="yes"/>
      <point x="846" y="543"/>
      <point x="849" y="539"/>
      <point x="861" y="539" type="curve" smooth="yes"/>
      <point x="875" y="539"/>
      <point x="877" y="541"/>
      <point x="877" y="549" type="curve" smooth="yes"/>
      <point x="877" y="627"/>
      <point x="881" y="660"/>
      <point x="881" y="679" type="curve" smooth="yes"/>
      <point x="881" y="689"/>
      <point x="878" y="690"/>
      <point x="864" y="690" type="curve" smooth="yes"/>
      <point x="856" y="690"/>
      <point x="852" y="688"/>
      <point x="851" y="678" type="curve"/>
      <point x="849" y="666"/>
      <point x="851" y="665"/>
      <point x="784" y="665" type="curve" smooth="yes"/>
      <point x="741" y="665"/>
      <point x="588" y="662"/>
      <point x="535" y="662" type="curve" smooth="yes"/>
      <point x="438" y="662"/>
      <point x="393" y="665"/>
      <point x="386" y="665" type="curve" smooth="yes"/>
      <point x="378" y="665"/>
      <point x="374" y="663"/>
      <point x="374" y="651" type="curve" smooth="yes"/>
      <point x="374" y="638"/>
      <point x="377" y="636"/>
      <point x="386" y="636" type="curve" smooth="yes"/>
      <point x="431" y="636" type="line" smooth="yes"/>
      <point x="447" y="636"/>
      <point x="446" y="636"/>
      <point x="440" y="626" type="curve" smooth="yes"/>
      <point x="219" y="266" type="line" smooth="yes"/>
      <point x="139" y="136"/>
      <point x="80" y="27"/>
      <point x="66" y="27" type="curve" smooth="yes"/>
      <point x="38" y="27" type="line" smooth="yes"/>
      <point x="22" y="27"/>
      <point x="20" y="27"/>
      <point x="20" y="15" type="curve" smooth="yes"/>
    </contour>
    <contour>
      <point x="279" y="309"/>
      <point x="282" y="314"/>
      <point x="285" y="320" type="curve"/>
      <point x="467" y="626" type="line" smooth="yes"/>
      <point x="470" y="631"/>
      <point x="473" y="636"/>
      <point x="478" y="636" type="curve" smooth="yes"/>
      <point x="479" y="636" type="line" smooth="yes"/>
      <point x="486" y="636"/>
      <point x="493" y="614"/>
      <point x="493" y="411" type="curve" smooth="yes"/>
      <point x="493" y="319" type="line" smooth="yes"/>
      <point x="493" y="301"/>
      <point x="490" y="299"/>
      <point x="464" y="299" type="curve" smooth="yes"/>
      <point x="295" y="299" type="line" smooth="yes"/>
      <point x="283" y="299"/>
      <point x="279" y="302"/>
      <point x="279" y="306" type="curve" smooth="yes"/>
    </contour>
  </outline>
</glyph>
<glyph name="Ccedilla" format="1">
  <advance width="731"/>
  <unicode hex="00C7"/>
  <outline>
    <contour>
      <point x="45" y="100"/>
      <point x="204" y="-10"/>
      <point x="382" y="-16" type="curve"/>
      <point x="369" y="-49"/>
      <point x="347" y="-105"/>
      <point x="347" y="-107" type="curve" smooth="yes"/>
      <point x="347" y="-109"/>
      <point x="353" y="-112"/>
      <point x="355" y="-112" type="curve" smooth="yes"/>
      <point x="358" y="-112"/>
      <point x="373" y="-103"/>
      <point x="392" y="-103" type="curve" smooth="yes"/>
      <point x="434" y="-103"/>
      <point x="447" y="-123"/>
      <point x="447" y="-148" type="curve" smooth="yes"/>
      <point x="447" y="-187"/>
      <point x="427" y="-204"/>
      <point x="381" y="-204" type="curve" smooth="yes"/>
      <point x="348" y="-204"/>
      <point x="324" y="-189"/>
      <point x="321" y="-189" type="curve" smooth="yes"/>
      <point x="313" y="-189"/>
      <point x="313" y="-197"/>
      <point x="313" y="-200" type="curve" smooth="yes"/>
      <point x="313" y="-204"/>
      <point x="346" y="-228"/>
      <point x="396" y="-228" type="curve" smooth="yes"/>
      <point x="462" y="-228"/>
      <point x="502" y="-179"/>
      <point x="502" y="-136" type="curve" smooth="yes"/>
      <point x="502" y="-105"/>
      <point x="474" y="-68"/>
      <point x="417" y="-68" type="curve" smooth="yes"/>
      <point x="398" y="-68"/>
      <point x="383" y="-74"/>
      <point x="381" y="-74" type="curve" smooth="yes"/>
      <point x="378" y="-74"/>
      <point x="380" y="-69"/>
      <point x="381" y="-65" type="curve"/>
      <point x="399" y="-16" type="line"/>
      <point x="525" y="-15"/>
      <point x="648" y="54"/>
      <point x="650" y="72" type="curve" smooth="yes"/>
      <point x="662" y="162"/>
      <point x="666" y="195"/>
      <point x="666" y="205" type="curve" smooth="yes"/>
      <point x="666" y="212"/>
      <point x="664" y="217"/>
      <point x="654" y="218" type="curve" smooth="yes"/>
      <point x="638" y="220"/>
      <point x="634" y="218"/>
      <point x="632" y="204" type="curve" smooth="yes"/>
      <point x="619" y="91" type="line" smooth="yes"/>
      <point x="618" y="80"/>
      <point x="537" y="23"/>
      <point x="424" y="23" type="curve" smooth="yes"/>
      <point x="270" y="23"/>
      <point x="147" y="164"/>
      <point x="147" y="333" type="curve" smooth="yes"/>
      <point x="147" y="514"/>
      <point x="250" y="650"/>
      <point x="395" y="650" type="curve" smooth="yes"/>
      <point x="528" y="650"/>
      <point x="626" y="545"/>
      <point x="626" y="531" type="curve" smooth="yes"/>
      <point x="626" y="522"/>
      <point x="622" y="445"/>
      <point x="622" y="441" type="curve" smooth="yes"/>
      <point x="622" y="432"/>
      <point x="623" y="429"/>
      <point x="641" y="429" type="curve" smooth="yes"/>
      <point x="654" y="429"/>
      <point x="657" y="433"/>
      <point x="657" y="445" type="curve" smooth="yes"/>
      <point x="657" y="496"/>
      <point x="661" y="620"/>
      <point x="661" y="638" type="curve" smooth="yes"/>
      <point x="661" y="650"/>
      <point x="656" y="651"/>
      <point x="641" y="651" type="curve" smooth="yes"/>
      <point x="626" y="651"/>
      <point x="626" y="649"/>
      <point x="626" y="638" type="curve" smooth="yes"/>
      <point x="626" y="611" type="line" smooth="yes"/>
      <point x="626" y="594"/>
      <point x="618" y="601"/>
      <point x="609" y="608" type="curve"/>
      <point x="589" y="622"/>
      <point x="520" y="680"/>
      <point x="402" y="680" type="curve" smooth="yes"/>
      <point x="200" y="680"/>
      <point x="45" y="544"/>
      <point x="45" y="335" type="curve" smooth="yes"/>
    </contour>
  </outline>
</glyph>
